/* XPM */
static char * close_prelight_xpm[] = {
"26 24 51 1",
" 	c None",
".	c #313447",
"+	c #E8E8E8",
"@	c #000000",
"#	c #CBCBCB",
"$	c #CCCCCC",
"%	c #CDCDCD",
"&	c #CECECE",
"*	c #CFCFCF",
"=	c #D0D0D0",
"-	c #D1D1D1",
";	c #D2D2D2",
">	c #D3D3D3",
",	c #D4D4D4",
"'	c #D5D5D5",
")	c #D6D6D6",
"!	c #D7D7D7",
"~	c #D8D8D8",
"{	c #D9D9D9",
"]	c #DADADA",
"^	c #DBDBDB",
"/	c #DCDCDC",
"(	c #DDDDDD",
"_	c #DEDEDE",
":	c #DFDFDF",
"<	c #E0E0E0",
"[	c #E1E1E1",
"}	c #7983BC",
"|	c #B7BBCE",
"1	c #B9BDD0",
"2	c #E2E2E2",
"3	c #7B84BD",
"4	c #E3E3E3",
"5	c #E4E4E4",
"6	c #7A84BD",
"7	c #7A83BC",
"8	c #BDC1D4",
"9	c #E5E5E5",
"0	c #E6E6E6",
"a	c #E7E7E7",
"b	c #BFC3D6",
"c	c #C0C4D7",
"d	c #E9E9E9",
"e	c #EAEAEA",
"f	c #EBEBEB",
"g	c #ECECEC",
"h	c #EDEDED",
"i	c #EEEEEE",
"j	c #EFEFEF",
"k	c #F0F0F0",
"l	c #F1F1F1",
".++++++++++++++++++++@@   ",
".+#$%&*==-;>,')!!~{]^++@  ",
".+$%&*==-;>,')!!~{]^/(_+@ ",
".+%&*==-;>,')!!~{]^/(__+@ ",
".+&*==-;>,')!!~{]^/(__:<+@",
".+*==-;>,')!!~{]^/(__:<[+@",
".+==-;>,}}|!~{]1}}__:<[2+@",
".+=-;>,}}}3|{]13}}}:<[24+@",
".+-;>,'}}}}3113}}}}<[245+@",
".+;>,')|3}}}67}}}38[2459+@",
".+>,')!!|3}}}}}}38[24599+@",
".+,')!!~{16}}}}78[245990+@",
".+')!!~{]17}}}}68245990a+@",
".+)!!~{]13}}}}}}3b5990a++@",
".+!!~{]13}}}76}}}3c90a+d+@",
".+!~{]^}}}}3883}}}}0a+de+@",
".+~{]^/}}}38[2b3}}}a+def+@",
".+{]^/(_}}8[245c}}a+defg+@",
".+]^/(__:<[245990a+defgg+@",
".+^/(__:<[245990a+defggh+@",
".+/(__:<[245990a+defgghi+@",
".+(__:<[245990a+defgghij+@",
".+__:<[245990a+defgghijk+@",
".+_:<[245990a+defgghijkl+@"};
