/* XPM */
static char * menu_active_xpm[] = {
"26 24 58 1",
" 	c None",
".	c #000000",
"+	c #EFEEED",
"@	c #393E5F",
"#	c #D5D4D2",
"$	c #D6D4D2",
"%	c #D7D5D3",
"&	c #D8D6D4",
"*	c #D8D7D5",
"=	c #D9D8D6",
"-	c #DAD8D7",
";	c #DBD9D7",
">	c #DBDAD8",
",	c #DCDBD9",
"'	c #DDDCDA",
")	c #DEDCDB",
"!	c #DFDDDC",
"~	c #DFDEDC",
"{	c #E0DFDD",
"]	c #E1E0DE",
"^	c #E2E0DF",
"/	c #E2E1E0",
"(	c #E3E2E1",
"_	c #E4E3E1",
":	c #D5D3D1",
"<	c #E5E4E2",
"[	c #E5E5E3",
"}	c #E6E5E4",
"|	c #E7E6E5",
"1	c #E8E7E6",
"2	c #E8E8E6",
"3	c #AEAEB6",
"4	c #A5A6B0",
"5	c #A9AAB4",
"6	c #B5B6BE",
"7	c #E9E9E7",
"8	c #3B4061",
"9	c #A6A7B1",
"0	c #EAE9E8",
"a	c #A7A9B2",
"b	c #EBEAE9",
"c	c #A8A9B4",
"d	c #ACADB8",
"e	c #ECEBEA",
"f	c #3A3F60",
"g	c #ECECEB",
"h	c #EDEDEB",
"i	c #EEEDEC",
"j	c #A9ABB4",
"k	c #AAACB6",
"l	c #EFEFEE",
"m	c #F0F0EF",
"n	c #F1F1F0",
"o	c #F2F1F0",
"p	c #F2F2F1",
"q	c #F3F3F2",
"r	c #F4F4F3",
"s	c #F5F5F4",
"   ..++++++++++++++++++++@",
"  .++#$%&*=-;>,')!~{]^/(_@",
" .+:#$%&*=-;>,')!~{]^/(_<@",
" .+#$%&*=-;>,')!~{]^/(_<[@",
".+#$%&*=-;>,')!~{]^/(_<[}@",
".+$%&*=-;>,')!~{]^/(_<[}|@",
".+%&*=-;>,')!~{]^/(_<[}|1@",
".+&*=-;>,')!~{]^/(_<[}|12@",
".+*=-;3@@4!~{]^/5@@6}|127@",
".+=-;>@@@89{]^/58@@@|1270@",
".+-;>,@@@@8a^/58@@@@1270b@",
".+;>,'48@@@8c58@@@8d270be@",
".+>,')!98@@@ff@@@8d270beg@",
".+,')!~{a8@@@@@@8d270begh@",
".+')!~{]^c8@@@@8d270beghi@",
".+)!~{]^/(j8@@8d270beghi+@",
".+!~{]^/(_<k@@d270beghi+l@",
".+~{]^/(_<[}|1270beghi+lm@",
".+{]^/(_<[}|1270beghi+lmn@",
".+]^/(_<[}|1270beghi+lmno@",
".+^/(_<[}|1270beghi+lmnop@",
".+/(_<[}|1270beghi+lmnopq@",
".+(_<[}|1270beghi+lmnopqr@",
".+_<[}|1270beghi+lmnopqrs@"};
