/* XPM */
static char * title_2_active_xpm[] = {
"12 26 37 1",
" 	c None",
".	c #000000",
"+	c #949EDC",
"@	c #6371C7",
"#	c #626FC5",
"$	c #616EC3",
"%	c #5F6DC1",
"&	c #5E6BBF",
"*	c #5D6ABD",
"=	c #5C69BB",
"-	c #5C69BF",
";	c #5A67B9",
">	c #5A67BD",
",	c #5966B7",
"'	c #5966BB",
")	c #5865B5",
"!	c #5865B9",
"~	c #5763B3",
"{	c #5763B7",
"]	c #5662B1",
"^	c #5662B6",
"/	c #5461AE",
"(	c #5461B3",
"_	c #535FAC",
":	c #535FB1",
"<	c #525EAA",
"[	c #525EAF",
"}	c #515DA8",
"|	c #515DAD",
"1	c #4F5BA6",
"2	c #4E5AA4",
"3	c #4D59A2",
"4	c #4C57A0",
"5	c #4A569E",
"6	c #49559C",
"7	c #48539A",
"8	c #797673",
"............",
"++++++++++++",
"@@@@@@@@@@@@",
"############",
"$$$$$$$$$$$$",
"%%%%%%%%%%%%",
"&&&&&&&&&&&&",
"************",
"===========-",
";;;;;;;;;;;>",
",,,,,,,,,,,'",
")))))))))))!",
"~~~~~~~~~~~{",
"]]]]]]]]]]]^",
"///////////(",
"___________:",
"<<<<<<<<<<<[",
"}}}}}}}}}}}|",
"111111111111",
"222222222222",
"333333333333",
"444444444444",
"555555555555",
"666666666666",
"777777777777",
"888888888888"};
