/* XPM */
static char *close_prelight[] = {
/* columns rows colors chars-per-pixel */
"23 23 53 1",
"  c gray19",
". c #313131",
"X c gray20",
"o c #353535",
"O c #31393C",
"+ c gray22",
"@ c #3C3C3C",
"# c #463D41",
"$ c #444444",
"% c gray27",
"& c #464646",
"* c #4B4B4B",
"= c #4E4E4E",
"- c gray31",
"; c #464D50",
": c gray33",
"> c #555555",
", c gray35",
"< c gray36",
"1 c gray37",
"2 c #595F62",
"3 c #645C60",
"4 c gray38",
"5 c gray39",
"6 c #676767",
"7 c DimGray",
"8 c gray42",
"9 c #6F6F6F",
"0 c #6A6F72",
"q c #6C7072",
"w c gray44",
"e c #777777",
"r c #797979",
"t c #7F7F7F",
"y c #808080",
"u c #8B8B8B",
"i c gray58",
"p c #9D9D9D",
"a c #A5A5A5",
"s c gray66",
"d c #B1B1B1",
"f c #BCBCBC",
"g c gray76",
"h c #C9CAC9",
"j c #CCCDCB",
"k c #D3D4D2",
"l c #D5D6D4",
"z c #DADCD8",
"x c #DBDDD9",
"c c gray98",
"v c gray99",
"b c gray100",
"n c None",
/* pixels */
"0xdddddddddddddddddddx0",
"0xdddddddddddddddddddx0",
"0xdddddddddddddddddddx0",
"2lssssse>:eae:>rsssssk8",
"2jppppp=vv=9=vv:ppppph8",
";guuuuu%vvv%cvc%uuuuuf>",
";arrrrr>@vvvvc@>rrrrri<",
"Oywwwwww=+vvv+=wwwwwwyO",
"Oy88888=ovvvvvo=88888yO",
"Oy66666.vvv.vvv.66666yO",
"Oy64444.vv.%.cv.64444yO",
"Oy44444$..%4% .%44444y#",
"Oy1111111111111111111t#",
"Oy1111111111111111111tO",
"Oy111111111111111111<tO",
"Ot<1<<<<<<<<<<<1<<<<<t#",
"Oyyyyyyyyyyyyyyyyyttt#3",
"#OOOOOOOOOOOOOOOOOOO#3n",
"nnnnnnnnnnnnnnnnnnnnnnn",
"nnnnnnnnnnnnnnnnnnnnnnn",
"nnnnnnnnnnnnnnnnnnnnnnn",
"nnnnnnnnnnnnnnnnnnnnnnn",
"nnnnnnnnnnnnnnnnnnnnnnn"
};
