/* XPM */
static char *hide_prelight[] = {
/* columns rows colors chars-per-pixel */
"23 23 42 1",
"  c gray19",
". c #313131",
"X c gray20",
"o c #353535",
"O c #31393C",
"+ c #463D41",
"@ c #444444",
"# c #4B4B4B",
"$ c #464D50",
"% c gray35",
"& c gray36",
"* c gray37",
"= c #595F62",
"- c #645C60",
"; c gray38",
": c gray39",
"> c #676767",
", c DimGray",
"< c gray42",
"1 c #6A6F72",
"2 c #6C7072",
"3 c gray44",
"4 c #797979",
"5 c #7F7F7F",
"6 c #808080",
"7 c #8B8B8B",
"8 c gray58",
"9 c #9D9D9D",
"0 c #A5A5A5",
"q c gray66",
"w c #B1B1B1",
"e c #BCBCBC",
"r c gray76",
"t c #C9CAC9",
"y c #CCCDCB",
"u c #D3D4D2",
"i c #D5D6D4",
"p c #DADCD8",
"a c #DBDDD9",
"s c gray99",
"d c gray100",
"f c None",
/* pixels */
"1awwwwwwwwwwwwwwwwwwwa1",
"1awwwwwwwwwwwwwwwwwwwa1",
"1awwwwwwwwwwwwwwwwwwwa1",
",uqqqqqqqqqqqqqqqqqqqi=",
",t9999999999999999999y=",
"%e7777777777777777777r$",
"%844444444444444444440$",
"O633333333333333333335O",
"O6,,<,#ooooooooo#<<,<6O",
"O6,>,,.sssssssss.>,>,6O",
"O6::::.ddddddddd.::::5O",
"+5;;;:@         @*:::5O",
"+5*******************6O",
"O5&******************6O",
"O5&******************6O",
"+5&&&&&&&&&&&&&&*%*%*6O",
"-+55566666666666666666O",
"f-+OOOOOOOOOOOOOOOOOOO,",
"fffffffffffffffffffffff",
"fffffffffffffffffffffff",
"fffffffffffffffffffffff",
"fffffffffffffffffffffff",
"fffffffffffffffffffffff"
};
