/* XPM */
static char *maximize_toggled_prelight[] = {
/* columns rows colors chars-per-pixel */
"23 23 37 1",
"  c gray19",
". c #313131",
"X c gray20",
"o c #353535",
"O c #31393C",
"+ c gray22",
"@ c #3C3C3C",
"# c #463D41",
"$ c #444444",
"% c gray27",
"& c #4E4E4E",
"* c #464D50",
"= c gray33",
"- c gray36",
"; c gray37",
": c #595F62",
"> c gray38",
", c gray39",
"< c #676767",
"1 c gray42",
"2 c #6A6F72",
"3 c gray44",
"4 c #777777",
"5 c #797979",
"6 c #808080",
"7 c #8B8B8B",
"8 c #9D9D9D",
"9 c #A5A5A5",
"0 c gray66",
"q c #B1B1B1",
"w c gray76",
"e c #CCCDCB",
"r c #D5D6D4",
"t c #DBDDD9",
"y c gray99",
"u c gray100",
"i c None",
/* pixels */
"2tqqqqqqqqqqqqqqqqqqqt2",
"2tqqqqqqqqq0qqqqqqqqqt2",
"2tqqqqqq4=========4qqt2",
":r000009&uyyyuuuyy&00r:",
":e888888%uyyyyyyyu%88e:",
"*w774=========4@@u@77w*",
"*955&uyyyyyyyu&4+u+559*",
"O633%uyyyyyyyu%1ouo336O",
"O611@u@@@@@@@u@  uX116O",
"O6,1@uo1 uuu@u@uuu <<6O",
"O6,, uo>%   ou    $,,6O",
"O6>> uo  o o u >>>>>>6O",
"O6>; uuuuuuuuu ;-->->6O",
"O6;;$         %;>-->>6O",
"O6;;;;;;;;;;;;;;->->-6O",
"O5-;-----------;-----6O",
"O666666666666666666666O",
"$OOOOOOOOOOOOOOOOOOOOO#",
"iiiiiiiiiiiiiiiiiiiiiii",
"iiiiiiiiiiiiiiiiiiiiiii",
"iiiiiiiiiiiiiiiiiiiiiii",
"iiiiiiiiiiiiiiiiiiiiiii",
"iiiiiiiiiiiiiiiiiiiiiii"
};
