/* XPM */
static char *dummy[]={
"69 4 2 1",
". c #000000",
"# c #00ff00",
".....................................................................",
".....................................................................",
".....................................................................",
"#####################################################################"};
