/* XPM */
static char *dummy[]={
"150 5 3 1",
"a c None",
". c #000000",
"# c #00ff00",
"..................................................................................................................................................##aa",
".................................................................................................................................................##aaa",
"................................................................................................................................................##aaaa",
"...............................................................................................................................................##aaaaa",
"################################################################################################################################################aaaaaa"};
