/* XPM */
static char *dummy[]={
"29 20 9 1",
". c None",
"a c #000000",
"# c #00ff00",
"d c #030000",
"g c #070000",
"f c #110000",
"e c #190000",
"b c #6d0000",
"c c #ff0000",
"......#################......",
".....#aabcadaaaaadacbaa#.....",
"....#aaaccbeabbbaebccaaa#....",
"...#aaaaabbacccccabbaaaaa#...",
"..#aaaaaaaacccccccaaaaaaaa#..",
"..#aaaaaaaacaacaacaaaaaaaa#..",
"..#aaaaaaaabaacaabaaaaaaaa#..",
"..#aaaaaaaabcccccbaaaaaaaa#..",
"..#aaaaaaafabcccbaaaaaaaaa#..",
"...#aaaaabbaabcbaabbaaaaa#...",
"....#aaaccbgaaaaagbccaaa#....",
".....#aabcadaaaaadacbaa#.....",
"......#################......",
".............................",
".............................",
".............................",
".............................",
".............................",
".............................",
"............................."};
