/* XPM */
static char *dummy[]={
"29 20 5 1",
". c None",
"c c #000000",
"# c #00ff00",
"b c #303030",
"a c #ff0000",
"......#################......",
".....#aabcaaaaaaaaacbaa#.....",
"....#aaaccbaabbbaabccaaa#....",
"...#aaaaabbacccccabbaaaaa#...",
"..#aaaaaaaacccccccaaaaaaaa#..",
"..#aaaaaaaacaacaacaaaaaaaa#..",
"..#aaaaaaaabaacaabaaaaaaaa#..",
"..#aaaaaaaabcccccbaaaaaaaa#..",
"..#aaaaaaaaabcccbaaaaaaaaa#..",
"...#aaaaabbaabcbaabbaaaaa#...",
"....#aaaccbaaaaaaabccaaa#....",
".....#aabcaaaaaaaaacbaa#.....",
"......#################......",
".............................",
".............................",
".............................",
".............................",
".............................",
".............................",
"............................."};
