/* XPM */
static char *dummy[]={
"29 20 3 1",
". c None",
"a c #000000",
"# c #00ff00",
"......#################......",
".....#aaaaaaaaaaaaaaaaa#.....",
"....#aaaaaaaaaaaaaaaaaaa#....",
"...#aaaaaaaaaaaaaaaaaaaaa#...",
"..#aaaaaaaaaaaaaaaaaaaaaaa#..",
"..#aaaaaaaaaaaaaaaaaaaaaaa#..",
"..#aaaaaaaaaaaaaaaaaaaaaaa#..",
"..#aaaaaaaaaaaaaaaaaaaaaaa#..",
"..#aaaaaaaaaaaaaaaaaaaaaaa#..",
"...#aaa#####aaaaaaaaaaaaa#...",
"....#aaaaaaaaaaaaaaaaaaa#....",
".....#aaaaaaaaaaaaaaaaa#.....",
"......#################......",
".............................",
".............................",
".............................",
".............................",
".............................",
".............................",
"............................."};
