/* XPM */
static char *dummy[]={
"29 20 3 1",
". c None",
"a c #000000",
"# c #919191",
"......#################......",
".....#aaaaaaaaaaaaaaaaa#.....",
"....#aaaaaaaaaaaaaaaaaaa#....",
"...#aaaaaa#########aaaaaa#...",
"..#aaaaaaa#aaaaaaa#aaaaaaa#..",
"..#aaaaaaa#aaaaaaa#aaaaaaa#..",
"..#aaaaaaa#####aaa#aaaaaaa#..",
"..#aaaaaaa#aaa#aaa#aaaaaaa#..",
"..#aaaaaaa#aaa#aaa#aaaaaaa#..",
"...#aaaaaa#########aaaaaa#...",
"....#aaaaaaaaaaaaaaaaaaa#....",
".....#aaaaaaaaaaaaaaaaa#.....",
"......#################......",
".............................",
".............................",
".............................",
".............................",
".............................",
".............................",
"............................."};
