/* XPM */
static char *dummy[]={
"4 12 3 1",
"a c None",
". c #000000",
"# c #919191",
".#aa",
".#aa",
".#aa",
".#aa",
".#aa",
".#aa",
".#aa",
".#aa",
".#aa",
".#aa",
".#aa",
".#aa"};
