/* XPM */
static char *dummy[]={
"29 20 3 1",
". c None",
"a c #000000",
"# c #919191",
"......#################......",
".....#aaaaaaaaaaaaaaaaa#.....",
"....#aaaaaaaaaaaaaaaaaaa#....",
"...#aaaaaaaaaaaaaaaaaaaaa#...",
"..#aaaaaaaaaaa#aaaaaaaaaaa#..",
"..#aaaaaaaaaa#a#aaaaaaaaaa#..",
"..#aaaaaaaaa#aaa#aaaaaaaaa#..",
"..#aaaaaaaa#aaaaa#aaaaaaaa#..",
"..#aaaaaaaaaaaaaaaaaaaaaaa#..",
"...#aaaaaaaaaaaaaaaaaaaaa#...",
"....#aaaaaaaaaaaaaaaaaaa#....",
".....#aaaaaaaaaaaaaaaaa#.....",
"......#################......",
".............................",
".............................",
".............................",
".............................",
".............................",
".............................",
"............................."};
