/* XPM */
static char *dummy[]={
"29 20 3 1",
". c None",
"# c #00ff00",
"a c #585858",
"......#################......",
".....#aaaaaaaaaaaaaaaaa#.....",
"....#aaaaaaaaaaaaaaaaaaa#....",
"...#aaaaaaaaaaa##aaaaaaaa#...",
"..#aaaaaaaaaaaa###aaaaaaaa#..",
"..#aaaaaaaaaaaaa###aaaaaaa#..",
"..#aaaaaaaaaaaa#a##aaaaaaa#..",
"..#aaaaaaaaaaa#aaaaaaaaaaa#..",
"..#aaaaaaaaaa#aaaaaaaaaaaa#..",
"...#aaaaaaaaaaaaaaaaaaaaa#...",
"....#aaaaaaaaaaaaaaaaaaa#....",
".....#aaaaaaaaaaaaaaaaa#.....",
"......#################......",
".............................",
".............................",
".............................",
".............................",
".............................",
".............................",
"............................."};
