/* XPM */
static char *dummy[]={
"150 21 3 1",
". c None",
"a c #000000",
"# c #919191",
".....................................................................................................................................#################",
"....................................................................................................................................##aaaaaaaaaaaaaaaa",
"...................................................................................................................................##aaaaaaaaaaaaaaaaa",
"..................................................................................................................................##aaaaaaaaaaaaaaaaaa",
".................................................................................................................................##aaaaaaaaaaaaaaaaaaa",
".................................................................................................................................#aaaaaaaaaaaaaaaaaaaa",
".................................................................................................................................#aaaaaaaaaaaaaaaaaaaa",
".................................................................................................................................#aaaaaaaaaaaaaaaaaaaa",
".................................................................................................................................#aaaaaaaaaaaaaaaaaaaa",
".................................................................................................................................#aaaaaaaaaaaaaaaaaaaa",
".................................................................................................................................#aaaaaaaaaaaaaaaaaaaa",
".................................................................................................................................#aaaaaaaaaaaaaaaaaaaa",
".................................................................................................................................#aaaaaaaaaaaaaaaaaaaa",
".................................................................................................................................#aaaaaaaaaaaaaaaaaaaa",
".................................................................................................................................#aaaaaaaaaaaaaaaaaaaa",
".................................................................................................................................#aaaaaaaaaaaaaaaaaaaa",
"......#############################################################################################################################aaaaaaaaaaaaaaaaaaa",
".....##aaaaaaaaaaaaaaaaaaaaaaaaaaaaaaaaaaaaaaaaaaaaaaaaaaaaaaaaaaaaaaaaaaaaaaaaaaaaaaaaaaaaaaaaaaaaaaaaaaaaaaaaaaaaaaaaaaaaaaaaaaa##aaaaaaaaaaaaaaaaaa",
"....##aaaaaaaaaaaaaaaaaaaaaaaaaaaaaaaaaaaaaaaaaaaaaaaaaaaaaaaaaaaaaaaaaaaaaaaaaaaaaaaaaaaaaaaaaaaaaaaaaaaaaaaaaaaaaaaaaaaaaaaaaaaaa##aaaaaaaaaaaaaaaaa",
"...##aaaaaaaaaaaaaaaaaaaaaaaaaaaaaaaaaaaaaaaaaaaaaaaaaaaaaaaaaaaaaaaaaaaaaaaaaaaaaaaaaaaaaaaaaaaaaaaaaaaaaaaaaaaaaaaaaaaaaaaaaaaaaaa##aaaaaaaaaaaaaaaa",
"..##aaaaaaaaaaaaaaaaaaaaaaaaaaaaaaaaaaaaaaaaaaaaaaaaaaaaaaaaaaaaaaaaaaaaaaaaaaaaaaaaaaaaaaaaaaaaaaaaaaaaaaaaaaaaaaaaaaaaaaaaaaaaaaaaa#################"};
