/* XPM */
static char *hide_pressed_png[] = {
/* columns rows colors chars-per-pixel */
"15 15 45 1",
"  c #3A4144",
". c #434343",
"X c #444444",
"o c gray29",
"O c gray30",
"+ c #534B4F",
"@ c #4C5254",
"# c #4F5355",
"$ c #535355",
"% c #585456",
"& c #5B5457",
"* c #545859",
"= c gray37",
"- c #5B6062",
"; c #5F6162",
": c gray38",
"> c #656565",
", c #676767",
"< c #686868",
"1 c DimGray",
"2 c #6A6A6A",
"3 c #6C6B6B",
"4 c #6C6C6C",
"5 c #6D6D6D",
"6 c gray44",
"7 c #727272",
"8 c gray46",
"9 c #74797B",
"0 c #7C7C7C",
"q c #7E7E7E",
"w c #7F7F7F",
"e c #838788",
"r c #8D8D8C",
"t c #8E8E8E",
"y c #919595",
"u c #929595",
"i c #919596",
"p c gray61",
"a c gray62",
"s c #A4A4A4",
"d c #B1B1B1",
"f c #B2B2B1",
"g c #BDBEBD",
"h c #BEBEBD",
"j c None",
/* pixels */
"ihdddddddddddhi",
"ihdddddddddddhi",
"rdsssssssssssde",
"qpttttttttttta9",
";088888888888q-",
"@741OoooooO157@",
"@5>:O66675O:>5@",
"%1:=X....XX=:1@",
"$,===========1@",
"$,===========>@",
"%3667657666678@",
"j+            *",
"jjjjjjjjjjjjjjj",
"jjjjjjjjjjjjjjj",
"jjjjjjjjjjjjjjj"
};
