/* XPM */
static char *hide_prelight[] = {
/* columns rows colors chars-per-pixel */
"15 15 72 1",
"  c #484B42",
". c #595B58",
"X c #6F6C4F",
"o c #736F4F",
"O c #616151",
"+ c #646451",
"@ c #656451",
"# c #686750",
"$ c #6C6950",
"% c #6A6A5E",
"& c #6E6D5F",
"* c #736754",
"= c #726A51",
"- c #736853",
"; c #746F50",
": c #7B7C72",
"> c #858277",
", c #A39561",
"< c #A69765",
"1 c #A99D73",
"2 c #A99E73",
"3 c #AEA06C",
"4 c #AFA16E",
"5 c #BEAA64",
"6 c #BEAB65",
"7 c #B6A669",
"8 c #B7A669",
"9 c #B9A86C",
"0 c #BCAB6F",
"q c #BDAC6F",
"w c #ADA278",
"e c #AFA479",
"r c #B2A471",
"t c #B3A471",
"y c #C3AF6A",
"u c #C3B06A",
"i c #C4B06A",
"p c #C4B06B",
"a c #C4B16B",
"s c #C7B46E",
"d c #D0BA6B",
"f c #D7BE69",
"g c #D1BA6C",
"h c #D3BD6E",
"j c #CAB97C",
"k c #DEC56D",
"l c #E0C76E",
"z c #E0C76F",
"x c #ECD170",
"c c #EDD170",
"v c #EDD271",
"b c #868881",
"n c #908E85",
"m c #929591",
"M c #939591",
"N c #929594",
"B c #AFA686",
"V c #B9B090",
"C c #BAB191",
"Z c #B7B098",
"A c #B7B099",
"S c #B4B3AD",
"D c #BAB6A8",
"F c #C1BBA3",
"G c #C2BBA3",
"H c #C5C2B2",
"J c #C5C2B3",
"K c #C0C0B9",
"L c #C1C0B9",
"P c #FEEDB0",
"I c #FEEDB1",
"U c None",
/* pixels */
"NLSSSSSSSSSSSLN",
"MHDDDDDDDDDDDJM",
"nFZZZZZZZZZZZGb",
">VBBBBBBBBBBBV:",
"&w11111111122w%",
"Or33,<<<<,,27tO",
"@q97jIIIIIj990+",
"*spy6uppyy5yys@",
"=hgddddddddddh$",
";zkkkkkkkkkkklo",
"*fxvcccvccvcvvo",
"UU            .",
"UUUUUUUUUUUUUUU",
"UUUUUUUUUUUUUUU",
"UUUUUUUUUUUUUUU"
};
