/* XPM */
static char *hide_toggled_pressed_png[] = {
/* columns rows colors chars-per-pixel */
"15 15 62 1",
"  c gray24",
". c #3F3F42",
"X c #3A4144",
"o c gray25",
"O c gray26",
"+ c #434343",
"@ c #444444",
"# c gray27",
"$ c #464646",
"% c #484848",
"& c #494949",
"* c gray29",
"= c #4B4B4B",
"- c gray30",
"; c #4E4E4E",
": c gray31",
"> c #4C5254",
", c #505050",
"< c #515151",
"1 c #535353",
"2 c gray33",
"3 c #555555",
"4 c gray34",
"5 c #585858",
"6 c gray35",
"7 c #5A5A5A",
"8 c #5B5B5B",
"9 c gray36",
"0 c #5D5D5D",
"q c gray37",
"w c #5F5F5F",
"e c #5B6062",
"r c #606060",
"t c gray39",
"y c #646464",
"u c gray40",
"i c #676767",
"p c #686868",
"a c DimGray",
"s c #6A6A6A",
"d c #6D6D6D",
"f c #6F6F6F",
"g c gray44",
"h c #727272",
"j c gray46",
"k c #777777",
"l c #74797B",
"z c #7F7F7F",
"x c #818181",
"c c #838788",
"v c #888888",
"b c #8D8D8D",
"n c #919595",
"m c #919596",
"M c gray62",
"N c #A0A0A0",
"B c #A4A4A4",
"V c #B1B1B1",
"C c #B2B2B1",
"Z c #BDBEBD",
"A c #BEBEBD",
"S c None",
/* pixels */
"mAVVVVVVCCCCCAm",
"mACCVbgggghkNAm",
"cCBBBtggfffuxCc",
"lMvfa6wwwa*wfNl",
"exyugfggg6-wwxe",
">g6w**--w@+6<g>",
">f19-%<-3@<*3f>",
">a:9++  3+66wa>",
">p>&:::::@wwwu>",
">p95565559wwwa>",
">jgggggggfffgj>",
"oXXXXXXXXXX.XX.",
"SSSSSSSSSSSSSSS",
"SSSSSSSSSSSSSSS",
"SSSSSSSSSSSSSSS"
};
