/* XPM */
static char * bottom_active_xpm[] = {
"24 7 5 1",
" 	c None",
".	c #797673",
"+	c #EFEEED",
"@	c #EDECEB",
"#	c #000000",
"........................",
"++++++++++++++++++++++++",
"@@@@@@@@@@@@@@@@@@@@@@@@",
"@@@@@@@@@@@@@@@@@@@@@@@@",
"@@@@@@@@@@@@@@@@@@@@@@@@",
"........................",
"########################"};
