/* XPM */
static char * close_pressed_xpm[] = {
"26 24 44 1",
" 	c None",
".	c #603D24",
"+	c #E8E8E8",
"@	c #000000",
"#	c #CBCBCB",
"$	c #CCCCCC",
"%	c #CDCDCD",
"&	c #CECECE",
"*	c #CFCFCF",
"=	c #D0D0D0",
"-	c #D1D1D1",
";	c #D2D2D2",
">	c #D3D3D3",
",	c #D4D4D4",
"'	c #D5D5D5",
")	c #D6D6D6",
"!	c #D7D7D7",
"~	c #D8D8D8",
"{	c #D9D9D9",
"]	c #DADADA",
"^	c #DBDBDB",
"/	c #DCDCDC",
"(	c #DDDDDD",
"_	c #DEDEDE",
":	c #DFDFDF",
"<	c #E0E0E0",
"[	c #E1E1E1",
"}	c #B3B3B3",
"|	c #E2E2E2",
"1	c #B4B4B4",
"2	c #E3E3E3",
"3	c #E4E4E4",
"4	c #E5E5E5",
"5	c #E6E6E6",
"6	c #E7E7E7",
"7	c #E9E9E9",
"8	c #EAEAEA",
"9	c #EBEBEB",
"0	c #ECECEC",
"a	c #EDEDED",
"b	c #EEEEEE",
"c	c #EFEFEF",
"d	c #F0F0F0",
"e	c #F1F1F1",
".++++++++++++++++++++@@   ",
".+#$%&*==-;>,')!!~{]^++@  ",
".+$%&*==-;>,')!!~{]^/(_+@ ",
".+%&*==-;>,')!!~{]^/(__+@ ",
".+&*==-;>,')!!~{]^/(__:<+@",
".+*==-;>,')!!~{]^/(__:<[+@",
".+==-;>,}}#!~{]%}}__:<[|+@",
".+=-;>,}}}1#{]%1}}}:<[|2+@",
".+-;>,'}}}}1%%1}}}}<[|23+@",
".+;>,')#1}}}1}}}}1-[|234+@",
".+>,')!!#1}}}}}}1-[|2344+@",
".+,')!!~{%1}}}}}-[|23445+@",
".+')!!~{]%}}}}}1-|234456+@",
".+)!!~{]%1}}}}}}1>34456++@",
".+!!~{]%1}}}}1}}}1,456+7+@",
".+!~{]^}}}}1--1}}}}56+78+@",
".+~{]^/}}}1-[|>1}}}6+789+@",
".+{]^/(_}}-[|23,}}6+7890+@",
".+]^/(__:<[|234456+78900+@",
".+^/(__:<[|234456+78900a+@",
".+/(__:<[|234456+78900ab+@",
".+(__:<[|234456+78900abc+@",
".+__:<[|234456+78900abcd+@",
".+_:<[|234456+78900abcde+@"};
