/* XPM */
static char * close_active_xpm[] = {
"26 24 58 1",
" 	c None",
".	c #603D24",
"+	c #EFEEED",
"@	c #000000",
"#	c #D3D1CF",
"$	c #D4D2D0",
"%	c #D5D3D1",
"&	c #D5D4D2",
"*	c #D6D4D2",
"=	c #D7D5D3",
"-	c #D8D6D4",
";	c #D8D7D5",
">	c #D9D8D6",
",	c #DAD8D7",
"'	c #DBD9D7",
")	c #DBDAD8",
"!	c #DCDBD9",
"~	c #DDDCDA",
"{	c #DEDCDB",
"]	c #DFDDDC",
"^	c #DFDEDC",
"/	c #E0DFDD",
"(	c #E1E0DE",
"_	c #E2E0DF",
":	c #E2E1E0",
"<	c #E3E2E1",
"[	c #E4E3E1",
"}	c #E5E4E2",
"|	c #E5E5E3",
"1	c #E6E5E4",
"2	c #B3A69C",
"3	c #B5A99E",
"4	c #E7E6E5",
"5	c #623F27",
"6	c #B4A79D",
"7	c #E8E7E6",
"8	c #B5A89E",
"9	c #E8E8E6",
"0	c #623F26",
"a	c #613E26",
"b	c #B8ACA2",
"c	c #E9E9E7",
"d	c #EAE9E8",
"e	c #EBEAE9",
"f	c #B9ACA2",
"g	c #ECEBEA",
"h	c #BAADA4",
"i	c #ECECEB",
"j	c #BBAFA4",
"k	c #EDEDEB",
"l	c #EEEDEC",
"m	c #EFEFEE",
"n	c #F0F0EF",
"o	c #F1F1F0",
"p	c #F2F1F0",
"q	c #F2F2F1",
"r	c #F3F3F2",
"s	c #F4F4F3",
".++++++++++++++++++++@@   ",
".+#$%&*=-;>,')!~{]^/(++@  ",
".+$%&*=-;>,')!~{]^/(_:<+@ ",
".+%&*=-;>,')!~{]^/(_:<[+@ ",
".+&*=-;>,')!~{]^/(_:<[}|+@",
".+*=-;>,')!~{]^/(_:<[}|1+@",
".+=-;>,'..2{]^/3..<[}|14+@",
".+-;>,'...56^/35...}|147+@",
".+;>,')....5835....|1479+@",
".+>,')!25...0a...5b1479c+@",
".+,')!~{65......5b1479cd+@",
".+')!~{]^80....ab1479cde+@",
".+)!~{]^/3a....0f479cdeg+@",
".+!~{]^/35......5h9cdegi+@",
".+~{]^/35...a0...5jdegik+@",
".+{]^/(....5bf5....egikl+@",
".+]^/(_...5b14h5...gikl++@",
".+^/(_:<..b1479j..gikl+m+@",
".+/(_:<[}|1479cdegikl+mn+@",
".+(_:<[}|1479cdegikl+mno+@",
".+_:<[}|1479cdegikl+mnop+@",
".+:<[}|1479cdegikl+mnopq+@",
".+<[}|1479cdegikl+mnopqr+@",
".+[}|1479cdegikl+mnopqrs+@"};
