/* XPM */
static char * hide_active_xpm[] = {
"26 24 50 1",
" 	c None",
".	c #603D24",
"+	c #EFEEED",
"@	c #D3D1CF",
"#	c #D4D2D0",
"$	c #D5D3D1",
"%	c #D5D4D2",
"&	c #D6D4D2",
"*	c #D7D5D3",
"=	c #D8D6D4",
"-	c #D8D7D5",
";	c #D9D8D6",
">	c #DAD8D7",
",	c #DBD9D7",
"'	c #DBDAD8",
")	c #DCDBD9",
"!	c #DDDCDA",
"~	c #DEDCDB",
"{	c #DFDDDC",
"]	c #DFDEDC",
"^	c #E0DFDD",
"/	c #E1E0DE",
"(	c #E2E0DF",
"_	c #E2E1E0",
":	c #E3E2E1",
"<	c #E4E3E1",
"[	c #E5E4E2",
"}	c #E5E5E3",
"|	c #E6E5E4",
"1	c #E7E6E5",
"2	c #E8E7E6",
"3	c #E8E8E6",
"4	c #E9E9E7",
"5	c #EAE9E8",
"6	c #EBEAE9",
"7	c #ECEBEA",
"8	c #ECECEB",
"9	c #AA9A8E",
"0	c #AE9F93",
"a	c #EDEDEB",
"b	c #EEEDEC",
"c	c #AB9B90",
"d	c #B0A195",
"e	c #EFEFEE",
"f	c #F0F0EF",
"g	c #F1F1F0",
"h	c #F2F1F0",
"i	c #F2F2F1",
"j	c #F3F3F2",
"k	c #F4F4F3",
".++++++++++++++++++++++++.",
".+@#$%&*=-;>,')!~{]^/(_::.",
".+#$%&*=-;>,')!~{]^/(_:<<.",
".+$%&*=-;>,')!~{]^/(_:<[[.",
".+%&*=-;>,')!~{]^/(_:<[}}.",
".+&*=-;>,')!~{]^/(_:<[}||.",
".+*=-;>,')!~{]^/(_:<[}|11.",
".+=-;>,')!~{]^/(_:<[}|122.",
".+-;>,')!~{]^/(_:<[}|1233.",
".+;>,')!~{]^/(_:<[}|12344.",
".+>,')!~{]^/(_:<[}|123455.",
".+,')!~{]^/(_:<[}|1234566.",
".+')!~{]^/(_:<[}|12345677.",
".+)!~{]^/(_:<[}|123456788.",
".+!~{]^9..........05678aa.",
".+~{]^/............678abb.",
".+{]^/(............78ab++.",
".+]^/(_c..........d8ab+ee.",
".+^/(_:<[}|12345678ab+eff.",
".+/(_:<[}|12345678ab+efgg.",
".+(_:<[}|12345678ab+efghh.",
".+_:<[}|12345678ab+efghii.",
".+:<[}|12345678ab+efghijj.",
".+<[}|12345678ab+efghijkk."};
