/* XPM */
static char * menu_prelight_xpm[] = {
"26 24 54 1",
" 	c None",
".	c #000000",
"+	c #E8E8E8",
"@	c #603D24",
"#	c #CECECE",
"$	c #CFCFCF",
"%	c #D0D0D0",
"&	c #D1D1D1",
"*	c #D2D2D2",
"=	c #D3D3D3",
"-	c #D4D4D4",
";	c #D5D5D5",
">	c #D6D6D6",
",	c #D7D7D7",
"'	c #D8D8D8",
")	c #D9D9D9",
"!	c #DADADA",
"~	c #DBDBDB",
"{	c #DCDCDC",
"]	c #DDDDDD",
"^	c #DEDEDE",
"/	c #CDCDCD",
"(	c #DFDFDF",
"_	c #E0E0E0",
":	c #E1E1E1",
"<	c #E2E2E2",
"[	c #E3E3E3",
"}	c #E4E4E4",
"|	c #DEC4B1",
"1	c #F69652",
"2	c #E2C1AA",
"3	c #E6C5AE",
"4	c #E6CCB9",
"5	c #E5E5E5",
"6	c #F69754",
"7	c #E3C2AB",
"8	c #E4C3AC",
"9	c #E6E6E6",
"0	c #EAC9B2",
"a	c #E7E7E7",
"b	c #F69653",
"c	c #E9E9E9",
"d	c #F69651",
"e	c #EAEAEA",
"f	c #F59652",
"g	c #EBEBEB",
"h	c #E8C7B0",
"i	c #ECECEC",
"j	c #EDEDED",
"k	c #EEEEEE",
"l	c #EFEFEF",
"m	c #F0F0F0",
"n	c #F1F1F1",
"o	c #F2F2F2",
"   ..++++++++++++++++++++@",
"  .++#$%%&*=-;>,,')!~{]^^@",
" .+/#$%%&*=-;>,,')!~{]^^(@",
" .+#$%%&*=-;>,,')!~{]^^(_@",
".+#$%%&*=-;>,,')!~{]^^(_:@",
".+$%%&*=-;>,,')!~{]^^(_:<@",
".+%%&*=-;>,,')!~{]^^(_:<[@",
".+%&*=-;>,,')!~{]^^(_:<[}@",
".+&*=-|112')!~{]3114:<[}5@",
".+*=-;11167!~{]36111<[}55@",
".+=-;>111168{]361111[}559@",
".+-;>,26111633611160}559a@",
".+;>,,'76111bb11160}559a+@",
".+>,,')!8611111160}559a+c@",
".+,,')!~{36d11160}559a+ce@",
".+,')!~{]^36f160}559a+ceg@",
".+')!~{]^^(h110}559a+cegi@",
".+)!~{]^^(_:<[}559a+cegii@",
".+!~{]^^(_:<[}559a+cegiij@",
".+~{]^^(_:<[}559a+cegiijk@",
".+{]^^(_:<[}559a+cegiijkl@",
".+]^^(_:<[}559a+cegiijklm@",
".+^^(_:<[}559a+cegiijklmn@",
".+^(_:<[}559a+cegiijklmno@"};
