/* XPM */
static char * shade_active_xpm[] = {
"26 24 51 1",
" 	c None",
".	c #603D24",
"+	c #E8E8E8",
"@	c #CBCBCB",
"#	c #CCCCCC",
"$	c #CDCDCD",
"%	c #CECECE",
"&	c #CFCFCF",
"*	c #D0D0D0",
"=	c #D1D1D1",
"-	c #D2D2D2",
";	c #D3D3D3",
">	c #D4D4D4",
",	c #D5D5D5",
"'	c #D6D6D6",
")	c #D7D7D7",
"!	c #D8D8D8",
"~	c #D9D9D9",
"{	c #DADADA",
"]	c #DBDBDB",
"^	c #DCDCDC",
"/	c #DDDDDD",
"(	c #DEDEDE",
"_	c #DFDFDF",
":	c #E0E0E0",
"<	c #AFA49C",
"[	c #B0A49C",
"}	c #E1E1E1",
"|	c #B1A69E",
"1	c #E2E2E2",
"2	c #B3A79F",
"3	c #E3E3E3",
"4	c #B4A8A0",
"5	c #E4E4E4",
"6	c #B5A9A1",
"7	c #E5E5E5",
"8	c #B6AAA2",
"9	c #E6E6E6",
"0	c #E7E7E7",
"a	c #B3A8A0",
"b	c #B8ACA4",
"c	c #E9E9E9",
"d	c #EAEAEA",
"e	c #EBEBEB",
"f	c #ECECEC",
"g	c #B7ACA4",
"h	c #EDEDED",
"i	c #EEEEEE",
"j	c #EFEFEF",
"k	c #F0F0F0",
"l	c #F1F1F1",
".++++++++++++++++++++++++.",
".+@#$%&**=-;>,'))!~{]^/((.",
".+#$%&**=-;>,'))!~{]^/(((.",
".+$%&**=-;>,'))!~{]^/((__.",
".+%&**=-;>,'))!~{]^/((_::.",
".+&**=-;>,')<[~{]^/((_:}}.",
".+**=-;>,')<..|]^/((_:}11.",
".+*=-;>,')<....2/((_:}133.",
".+=-;>,')<......4(_:}1355.",
".+-;>,')<........6:}13577.",
".+;>,')<..........8135777.",
".+>,'))............357799.",
".+,'))!............577900.",
".+'))!~|..a....8..b7790++.",
".+))!~{]^/(....1357790+cc.",
".+)!~{]^/((....357790+cdd.",
".+!~{]^/((_....57790+cdee.",
".+~{]^/((_:8..b7790+cdeff.",
".+{]^/((_:}1gb7790+cdefff.",
".+]^/((_:}1357790+cdeffhh.",
".+^/((_:}1357790+cdeffhii.",
".+/((_:}1357790+cdeffhijj.",
".+((_:}1357790+cdeffhijkk.",
".+(_:}1357790+cdeffhijkll."};
