/* XPM */
static char * shade_toggled_active_xpm[] = {
"26 24 50 1",
" 	c None",
".	c #603D24",
"+	c #E8E8E8",
"@	c #CBCBCB",
"#	c #CCCCCC",
"$	c #CDCDCD",
"%	c #CECECE",
"&	c #CFCFCF",
"*	c #D0D0D0",
"=	c #D1D1D1",
"-	c #D2D2D2",
";	c #D3D3D3",
">	c #D4D4D4",
",	c #D5D5D5",
"'	c #D6D6D6",
")	c #D7D7D7",
"!	c #D8D8D8",
"~	c #D9D9D9",
"{	c #DADADA",
"]	c #DBDBDB",
"^	c #DCDCDC",
"/	c #DDDDDD",
"(	c #DEDEDE",
"_	c #DFDFDF",
":	c #E0E0E0",
"<	c #AFA49C",
"[	c #B0A49C",
"}	c #E1E1E1",
"|	c #B1A69E",
"1	c #E2E2E2",
"2	c #E3E3E3",
"3	c #E4E4E4",
"4	c #E5E5E5",
"5	c #B4A8A0",
"6	c #B6AAA2",
"7	c #E6E6E6",
"8	c #E7E7E7",
"9	c #B8ACA4",
"0	c #B3A79F",
"a	c #E9E9E9",
"b	c #EAEAEA",
"c	c #B5A9A1",
"d	c #EBEBEB",
"e	c #ECECEC",
"f	c #B7ACA4",
"g	c #EDEDED",
"h	c #EEEEEE",
"i	c #EFEFEF",
"j	c #F0F0F0",
"k	c #F1F1F1",
".++++++++++++++++++++++++.",
".+@#$%&**=-;>,'))!~{]^/((.",
".+#$%&**=-;>,'))!~{]^/(((.",
".+$%&**=-;>,'))!~{]^/((__.",
".+%&**=-;>,'))!~{]^/((_::.",
".+&**=-;>,')<[~{]^/((_:}}.",
".+**=-;>,')<..|]^/((_:}11.",
".+*=-;>,'))....^/((_:}122.",
".+=-;>,'))!..../((_:}1233.",
".+-;>,'))!~....((_:}12344.",
".+;>,')<..|....5..6123444.",
".+>,'))............234477.",
".+,'))!............344788.",
".+'))!~|..........94478++.",
".+))!~{]0........94478+aa.",
".+)!~{]^/5......94478+abb.",
".+!~{]^/((c....94478+abdd.",
".+~{]^/((_:6..94478+abdee.",
".+{]^/((_:}1f94478+abdeee.",
".+]^/((_:}1234478+abdeegg.",
".+^/((_:}1234478+abdeeghh.",
".+/((_:}1234478+abdeeghii.",
".+((_:}1234478+abdeeghijj.",
".+(_:}1234478+abdeeghijkk."};
