/* XPM */
static char * shade_prelight_xpm[] = {
"26 24 52 1",
" 	c None",
".	c #603D24",
"+	c #E8E8E8",
"@	c #CBCBCB",
"#	c #CCCCCC",
"$	c #CDCDCD",
"%	c #CECECE",
"&	c #CFCFCF",
"*	c #D0D0D0",
"=	c #D1D1D1",
"-	c #D2D2D2",
";	c #D3D3D3",
">	c #D4D4D4",
",	c #D5D5D5",
"'	c #D6D6D6",
")	c #D7D7D7",
"!	c #D8D8D8",
"~	c #D9D9D9",
"{	c #DADADA",
"]	c #DBDBDB",
"^	c #DCDCDC",
"/	c #DDDDDD",
"(	c #DEDEDE",
"_	c #DFDFDF",
":	c #E0E0E0",
"<	c #E1C1AB",
"[	c #E1C2AB",
"}	c #E1E1E1",
"|	c #F69652",
"1	c #E3C3AD",
"2	c #E2E2E2",
"3	c #E4C4AE",
"4	c #E3E3E3",
"5	c #E5C6AF",
"6	c #E4E4E4",
"7	c #E6C6B0",
"8	c #E5E5E5",
"9	c #E7C8B1",
"0	c #E6E6E6",
"a	c #E7E7E7",
"b	c #E5C5AF",
"c	c #E9CAB3",
"d	c #E9E9E9",
"e	c #EAEAEA",
"f	c #EBEBEB",
"g	c #ECECEC",
"h	c #E9C9B3",
"i	c #EDEDED",
"j	c #EEEEEE",
"k	c #EFEFEF",
"l	c #F0F0F0",
"m	c #F1F1F1",
".++++++++++++++++++++++++.",
".+@#$%&**=-;>,'))!~{]^/((.",
".+#$%&**=-;>,'))!~{]^/(((.",
".+$%&**=-;>,'))!~{]^/((__.",
".+%&**=-;>,'))!~{]^/((_::.",
".+&**=-;>,')<[~{]^/((_:}}.",
".+**=-;>,')<||1]^/((_:}22.",
".+*=-;>,')<||||3/((_:}244.",
".+=-;>,')<||||||5(_:}2466.",
".+-;>,')<||||||||7:}24688.",
".+;>,')<||||||||||9246888.",
".+>,'))||||||||||||468800.",
".+,'))!||||||||||||6880aa.",
".+'))!~1||b||||9||c880a++.",
".+))!~{]^/(||||246880a+dd.",
".+)!~{]^/((||||46880a+dee.",
".+!~{]^/((_||||6880a+deff.",
".+~{]^/((_:9||c880a+defgg.",
".+{]^/((_:}2hc880a+defggg.",
".+]^/((_:}246880a+defggii.",
".+^/((_:}246880a+defggijj.",
".+/((_:}246880a+defggijkk.",
".+((_:}246880a+defggijkll.",
".+(_:}246880a+defggijklmm."};
