/* XPM */
static char * stick_pressed_xpm[] = {
"26 24 46 1",
" 	c None",
".	c #603D24",
"+	c #E8E8E8",
"@	c #CBCBCB",
"#	c #CCCCCC",
"$	c #CDCDCD",
"%	c #CECECE",
"&	c #CFCFCF",
"*	c #D0D0D0",
"=	c #D1D1D1",
"-	c #D2D2D2",
";	c #D3D3D3",
">	c #D4D4D4",
",	c #D5D5D5",
"'	c #D6D6D6",
")	c #D7D7D7",
"!	c #D8D8D8",
"~	c #D9D9D9",
"{	c #DADADA",
"]	c #DBDBDB",
"^	c #DCDCDC",
"/	c #DDDDDD",
"(	c #DEDEDE",
"_	c #DFDFDF",
":	c #E0E0E0",
"<	c #E1E1E1",
"[	c #C9C9C9",
"}	c #B8B8B8",
"|	c #B3B3B3",
"1	c #E2E2E2",
"2	c #E3E3E3",
"3	c #B9B9B9",
"4	c #E4E4E4",
"5	c #E5E5E5",
"6	c #E6E6E6",
"7	c #E7E7E7",
"8	c #E9E9E9",
"9	c #BABABA",
"0	c #EAEAEA",
"a	c #EBEBEB",
"b	c #ECECEC",
"c	c #EDEDED",
"d	c #EEEEEE",
"e	c #EFEFEF",
"f	c #F0F0F0",
"g	c #F1F1F1",
".++++++++++++++++++++++++.",
".+@#$%&**=-;>,'))!~{]^/((.",
".+#$%&**=-;>,'))!~{]^/(((.",
".+$%&**=-;>,'))!~{]^/((__.",
".+%&**=-;>,'))!~{]^/((_::.",
".+&**=-;>,'))!~{]^/((_:<<.",
".+**=-;>[}|||||||%((_:<11.",
".+*=-;>[||||||||||&_:<122.",
".+=-;>,}||||||||||3:<1244.",
".+-;>,'||||||||||||<12455.",
".+;>,')||||]^/(||||124555.",
".+>,'))||||^/((||||245566.",
".+,'))!||||/((_||||455677.",
".+'))!~||||((_:||||5567++.",
".+))!~{||||||||||||567+88.",
".+)!~{]}||||||||||967+800.",
".+!~{]^%||||||||||>7+80aa.",
".+~{]^/(&3|||||||>7+80abb.",
".+{]^/((_:<1245567+80abbb.",
".+]^/((_:<1245567+80abbcc.",
".+^/((_:<1245567+80abbcdd.",
".+/((_:<1245567+80abbcdee.",
".+((_:<1245567+80abbcdeff.",
".+(_:<1245567+80abbcdefgg."};
