/* XPM */
static char * title_1_active_xpm[] = {
"24 26 96 2",
"  	c None",
". 	c #000000",
"+ 	c #F69D5D",
"@ 	c #EE8942",
"# 	c #E7711D",
"$ 	c #DB6916",
"% 	c #BC5A13",
"& 	c #E37221",
"* 	c #D86717",
"= 	c #BA5914",
"- 	c #EA8842",
"; 	c #D46617",
"> 	c #B65814",
", 	c #E78742",
"' 	c #DE7021",
") 	c #B45714",
"! 	c #E58642",
"~ 	c #DB6F21",
"{ 	c #D16517",
"] 	c #E38643",
"^ 	c #DA6D1F",
"/ 	c #CF6518",
"( 	c #B25615",
"_ 	c #D66D22",
": 	c #CC6318",
"< 	c #AF5515",
"[ 	c #E08443",
"} 	c #C86219",
"| 	c #AC5416",
"1 	c #DD8344",
"2 	c #D26C23",
"3 	c #AA5316",
"4 	c #DA8244",
"5 	c #CF6B23",
"6 	c #C56119",
"7 	c #D88244",
"8 	c #CE6920",
"9 	c #C36019",
"0 	c #A75216",
"a 	c #CA6924",
"b 	c #BF5F1A",
"c 	c #A55216",
"d 	c #D58145",
"e 	c #BC5E1A",
"f 	c #A25116",
"g 	c #D28045",
"h 	c #C66824",
"i 	c #9F5016",
"j 	c #D07F45",
"k 	c #C36724",
"l 	c #B95D1A",
"m 	c #CE7E46",
"n 	c #C26422",
"o 	c #B75B1B",
"p 	c #9D4E17",
"q 	c #BD6525",
"r 	c #B25A1B",
"s 	c #9A4E17",
"t 	c #CA7D46",
"u 	c #B0591C",
"v 	c #974D18",
"w 	c #C77C46",
"x 	c #BA6326",
"y 	c #954C18",
"z 	c #C57B46",
"A 	c #B76226",
"B 	c #AD581C",
"C 	c #C37B46",
"D 	c #B56023",
"E 	c #AB581C",
"F 	c #924B18",
"G 	c #B16127",
"H 	c #A6561D",
"I 	c #8F4A19",
"J 	c #BF7947",
"K 	c #A4551D",
"L 	c #8D4919",
"M 	c #BD7847",
"N 	c #AE5F27",
"O 	c #8A481A",
"P 	c #BA7748",
"Q 	c #AB5E28",
"R 	c #A1541E",
"S 	c #B97748",
"T 	c #A95B25",
"U 	c #9F531E",
"V 	c #88471A",
"W 	c #A55C28",
"X 	c #9A521E",
"Y 	c #85461A",
"Z 	c #B57548",
"` 	c #97511F",
" .	c #82461A",
"..	c #B27549",
"+.	c #A15B29",
"@.	c #797673",
". . . . . . . . . . . . . . . . . . . . . . . . ",
"+ + + + + + + + + + + + + + + + + + + + + + + + ",
"@ # $ % @ # $ % @ # $ % @ # $ % @ # $ % @ # $ % ",
"& * = - & * = - & * = - & * = - & * = - & * = - ",
"; > , ' ; > , ' ; > , ' ; > , ' ; > , ' ; > , ' ",
") ! ~ { ) ! ~ { ) ! ~ { ) ! ~ { ) ! ~ { ) ! ~ { ",
"] ^ / ( ] ^ / ( ] ^ / ( ] ^ / ( ] ^ / ( ] ^ / ( ",
"_ : < [ _ : < [ _ : < [ _ : < [ _ : < [ _ : < [ ",
"} | 1 2 } | 1 2 } | 1 2 } | 1 2 } | 1 2 } | 1 2 ",
"3 4 5 6 3 4 5 6 3 4 5 6 3 4 5 6 3 4 5 6 3 4 5 6 ",
"7 8 9 0 7 8 9 0 7 8 9 0 7 8 9 0 7 8 9 0 7 8 9 0 ",
"a b c d a b c d a b c d a b c d a b c d a b c d ",
"e f g h e f g h e f g h e f g h e f g h e f g h ",
"i j k l i j k l i j k l i j k l i j k l i j k l ",
"m n o p m n o p m n o p m n o p m n o p m n o p ",
"q r s t q r s t q r s t q r s t q r s t q r s t ",
"u v w x u v w x u v w x u v w x u v w x u v w x ",
"y z A B y z A B y z A B y z A B y z A B y z A B ",
"C D E F C D E F C D E F C D E F C D E F C D E F ",
"G H I J G H I J G H I J G H I J G H I J G H I J ",
"K L M N K L M N K L M N K L M N K L M N K L M N ",
"O P Q R O P Q R O P Q R O P Q R O P Q R O P Q R ",
"S T U V S T U V S T U V S T U V S T U V S T U V ",
"W X Y Z W X Y Z W X Y Z W X Y Z W X Y Z W X Y Z ",
"`  ...+.`  ...+.`  ...+.`  ...+.`  ...+.`  ...+.",
"@.@.@.@.@.@.@.@.@.@.@.@.@.@.@.@.@.@.@.@.@.@.@.@."};
