/* XPM */
static char * top_right_inactive_xpm[] = {
"8 26 4 1",
" 	c None",
".	c #000000",
"+	c #EDECEB",
"@	c #797673",
"...     ",
"+++..   ",
"+++++.  ",
"++++++. ",
"++++++. ",
"+++++++.",
"+++++++.",
"+++++++.",
"+++++++.",
"+++++++.",
"+++++++.",
"+++++++.",
"+++++++.",
"+++++++.",
"+++++++.",
"+++++++.",
"+++++++.",
"+++++++.",
"+++++++.",
"+++++++.",
"+++++++.",
"+++++++.",
"+++++++.",
"+++++++.",
"+++++++.",
"@@@@@@@."};
