/* XPM */
static char *dummy[]={
"149 4 3 1",
"a c None",
". c #000000",
"# c #ff0000",
".................................................................................................................................................##aa",
"................................................................................................................................................##aaa",
"...............................................................................................................................................##aaaa",
"################################################################################################################################################aaaaa"};
