/* XPM */
static char *dummy[]={
"18 18 53 1",
". c None",
"e c #000000",
"F c #010000",
"u c #030000",
"D c #040000",
"x c #050000",
"r c #090000",
"N c #0f0000",
"J c #180000",
"l c #1b0000",
"Q c #250000",
"g c #280000",
"Y c #290000",
"R c #340000",
"o c #380000",
"U c #390000",
"A c #430000",
"p c #450000",
"y c #4b0000",
"I c #630000",
"G c #730000",
"q c #750000",
"f c #7f0000",
"b c #800000",
"m c #850000",
"H c #880000",
"T c #8f0000",
"V c #920000",
"O c #a10000",
"W c #a60000",
"i c #a70000",
"C c #ab0000",
"L c #ae0000",
"B c #b10000",
"z c #b20000",
"j c #b50000",
"c c #bf0000",
"a c #c00000",
"t c #c60000",
"E c #cb0000",
"v c #d20000",
"w c #d60000",
"s c #de0000",
"M c #e90000",
"K c #f10000",
"k c #f30000",
"h c #f90000",
"P c #fa0000",
"X c #fb0000",
"S c #fe0000",
"n c #ff0000",
"d c #ff0f0f",
"# c #ff1010",
"..##############..",
".#abbbbbbbbbbbbcd.",
".#beeeeeeeeeeeefd.",
".#beghieeeejklefd.",
".#beemnoeepnqeefd.",
".#beerstuuvwxeefd.",
".#beeeynzznAeeefd.",
".#beeeeBnnCeeeefd.",
".#beeeDwnnEFeeefd.",
".#beeeGnHHnIeeefd.",
".#beeJKLeeaMNeefd.",
".#beeOPQeeRSTeefd.",
".#beUSVeeeeWXYefd.",
".#beeeeeeeeeeeefd.",
".#cffffffffffffcd.",
"..dddddddddddddd..",
"..................",
".................."};
