/* XPM */
static char *dummy[]={
"18 18 46 1",
". c None",
"c c #000000",
"z c #010000",
"q c #020000",
"t c #030000",
"n c #050000",
"H c #080000",
"D c #0c0000",
"i c #0e0000",
"J c #130000",
"d c #140000",
"R c #150000",
"K c #1a0000",
"k c #1c0000",
"N c #1d0000",
"w c #220000",
"l c #230000",
"u c #260000",
"C c #320000",
"A c #3a0000",
"m c #3b0000",
"b c #400000",
"j c #430000",
"B c #440000",
"M c #480000",
"O c #490000",
"I c #510000",
"P c #530000",
"f c #540000",
"x c #560000",
"F c #570000",
"v c #590000",
"g c #5b0000",
"a c #600000",
"p c #630000",
"y c #660000",
"r c #690000",
"s c #6b0000",
"o c #6f0000",
"G c #750000",
"E c #790000",
"h c #7a0000",
"e c #7d0000",
"Q c #7e0000",
"L c #7f0000",
"# c #800000",
"..##############..",
".#abbbbbbbbbbbba#.",
".#bccccccccccccb#.",
".#bcdefccccghicb#.",
".#bccj#kccl#mccb#.",
".#bccnopqqrstccb#.",
".#bcccu#vv#wcccb#.",
".#bccccv##xccccb#.",
".#bcccqs##yzcccb#.",
".#bcccA#BB#Ccccb#.",
".#bccDEFccaGHccb#.",
".#bccIeJccKLMccb#.",
".#bcNLOccccPQRcb#.",
".#bccccccccccccb#.",
".#abbbbbbbbbbbba#.",
"..##############..",
"..................",
".................."};
