/* XPM */
static char *dummy[]={
"18 18 51 1",
". c None",
"D c #807f7f",
"d c #808080",
"s c #817e7e",
"v c #827d7d",
"B c #827e7e",
"p c #847b7b",
"L c #877878",
"H c #8c7474",
"k c #8d7272",
"O c #926d6d",
"W c #946b6b",
"f c #946c6c",
"P c #9a6666",
"S c #9c6363",
"m c #9c6464",
"y c #a15e5e",
"n c #a25d5d",
"w c #a55a5a",
"G c #b14e4e",
"E c #b94646",
"o c #ba4545",
"e c #bf4040",
"b c #c04040",
"l c #c23d3d",
"F c #c43c3c",
"R c #c73838",
"T c #c93737",
"M c #d02f2f",
"h c #d32c2c",
"U c #d32d2d",
"A c #d52a2a",
"J c #d72929",
"z c #d82727",
"x c #d92727",
"i c #da2525",
"c c #df2020",
"a c #e02020",
"r c #e31d1d",
"C c #e51a1a",
"t c #e91717",
"u c #eb1515",
"q c #ef1111",
"K c #f40b0b",
"I c #f80707",
"j c #f90606",
"g c #fc0303",
"V c #fd0202",
"N c #fd0303",
"# c #ff0000",
"Q c #ff0101",
"..##############..",
".#abbbbbbbbbbbbc#.",
".#bdddddddddddde#.",
".#bdfghddddijkde#.",
".#bddl#mddn#odde#.",
".#bddpqrsstuvdde#.",
".#bdddw#xx#yddde#.",
".#bddddz##Adddde#.",
".#bdddBu##CDddde#.",
".#bdddE#FF#Gddde#.",
".#bddHIJddaKLdde#.",
".#bddMNOddPQRdde#.",
".#bdSQTddddUVWde#.",
".#bdddddddddddde#.",
".#ceeeeeeeeeeeec#.",
"..##############..",
"..................",
".................."};
