/* XPM */
static char *dummy[]={
"4 12 3 1",
". c None",
"a c #000000",
"# c #ff0000",
"..#a",
"..#a",
"..#a",
"..#a",
"..#a",
"..#a",
"..#a",
"..#a",
"..#a",
"..#a",
"..#a",
"..#a"};
