/* XPM */
static char *dummy[]={
"18 18 5 1",
". c None",
"c c #000000",
"b c #400000",
"a c #600000",
"# c #800000",
"..##############..",
".#abbbbbbbbbbbba#.",
".#bccccccccccccb#.",
".#bccccccccccccb#.",
".#bc##########cb#.",
".#bc#cccccccc#cb#.",
".#bc#cccccccc#cb#.",
".#bc#cccccccc#cb#.",
".#bc#####cccc#cb#.",
".#bc#ccc#cccc#cb#.",
".#bc#ccc#cccc#cb#.",
".#bc##########cb#.",
".#bccccccccccccb#.",
".#bccccccccccccb#.",
".#abbbbbbbbbbbba#.",
"..##############..",
"..................",
".................."};
