/* XPM */
static char *dummy[]={
"18 18 9 1",
". c None",
"e c #000000",
"f c #7f0000",
"b c #800000",
"c c #bf0000",
"a c #c00000",
"g c #ff0000",
"d c #ff0f0f",
"# c #ff1010",
"..##############..",
".#abbbbbbbbbbbbcd.",
".#beeeeeeeeeeeefd.",
".#beeeeeeeeeeeefd.",
".#beggggggggggefd.",
".#begeeeeeeeegefd.",
".#begeeeeeeeegefd.",
".#begeeeeeeeegefd.",
".#begggggeeeegefd.",
".#begeeegeeeegefd.",
".#begeeegeeeegefd.",
".#beggggggggggefd.",
".#beeeeeeeeeeeefd.",
".#beeeeeeeeeeeefd.",
".#cffffffffffffcd.",
"..dddddddddddddd..",
"..................",
".................."};
