/* XPM */
static char *dummy[]={
"18 18 7 1",
". c None",
"d c #808080",
"e c #bf4040",
"b c #c04040",
"c c #df2020",
"a c #e02020",
"# c #ff0000",
"..##############..",
".#abbbbbbbbbbbbc#.",
".#bdddddddddddde#.",
".#bdddddddddddde#.",
".#bdd########dde#.",
".#bdddddddddddde#.",
".#bdddddddddddde#.",
".#bdd########dde#.",
".#bdddddddddddde#.",
".#bdddddddddddde#.",
".#bdd########dde#.",
".#bdddddddddddde#.",
".#bdddddddddddde#.",
".#bdddddddddddde#.",
".#ceeeeeeeeeeeec#.",
"..##############..",
"..................",
".................."};
