/* XPM */
static char *dummy[]={
"18 18 5 1",
". c None",
"c c #000000",
"b c #400000",
"a c #600000",
"# c #800000",
"..##############..",
".#abbbbbbbbbbbba#.",
".#bccccccccccccb#.",
".#bccccccccccccb#.",
".#bcc########ccb#.",
".#bccccccccccccb#.",
".#bccccccccccccb#.",
".#bcc########ccb#.",
".#bccccccccccccb#.",
".#bccccccccccccb#.",
".#bcc########ccb#.",
".#bccccccccccccb#.",
".#bccccccccccccb#.",
".#bccccccccccccb#.",
".#abbbbbbbbbbbba#.",
"..##############..",
"..................",
".................."};
