/* XPM */
static char *dummy[]={
"18 18 24 1",
". c None",
"d c #808080",
"i c #847b7b",
"f c #857a7a",
"r c #956a6a",
"n c #976969",
"p c #a35c5c",
"t c #a55a5a",
"q c #a65a5a",
"u c #a85858",
"e c #bf4040",
"b c #c04040",
"m c #c33d3d",
"j c #c53a3a",
"v c #c73838",
"s c #c93737",
"c c #df2020",
"a c #e02020",
"h c #e41b1b",
"g c #e61a1a",
"o c #fa0606",
"k c #fb0404",
"l c #fc0303",
"# c #ff0000",
"..##############..",
".#abbbbbbbbbbbbc#.",
".#bdddddddddddde#.",
".#bdddddddddddde#.",
".#bdddddddddddde#.",
".#bddddfghidddde#.",
".#bddddjklmdddde#.",
".#bdddnopqorddde#.",
".#bdddstdduvddde#.",
".#bdddddddddddde#.",
".#bdddddddddddde#.",
".#bdddddddddddde#.",
".#bdddddddddddde#.",
".#bdddddddddddde#.",
".#ceeeeeeeeeeeec#.",
"..##############..",
"..................",
".................."};
