/* XPM */
static char *dummy[]={
"18 18 21 1",
". c None",
"c c #000000",
"g c #050000",
"d c #060000",
"p c #160000",
"l c #170000",
"n c #240000",
"o c #260000",
"r c #280000",
"b c #400000",
"k c #430000",
"h c #460000",
"s c #480000",
"q c #490000",
"a c #600000",
"f c #650000",
"e c #660000",
"m c #7a0000",
"i c #7c0000",
"j c #7d0000",
"# c #800000",
"..##############..",
".#abbbbbbbbbbbba#.",
".#bccccccccccccb#.",
".#bccccccccccccb#.",
".#bccccccccccccb#.",
".#bccccdefgccccb#.",
".#bcccchijkccccb#.",
".#bccclmnompcccb#.",
".#bcccqoccrscccb#.",
".#bccccccccccccb#.",
".#bccccccccccccb#.",
".#bccccccccccccb#.",
".#bccccccccccccb#.",
".#bccccccccccccb#.",
".#abbbbbbbbbbbba#.",
"..##############..",
"..................",
".................."};
