/* XPM */
static char *dummy[]={
"18 18 25 1",
". c None",
"e c #000000",
"j c #090000",
"g c #0b0000",
"s c #2b0000",
"o c #2e0000",
"q c #470000",
"u c #4b0000",
"r c #4c0000",
"v c #500000",
"f c #7f0000",
"b c #800000",
"n c #860000",
"k c #8b0000",
"w c #8f0000",
"t c #920000",
"c c #bf0000",
"a c #c00000",
"i c #c90000",
"h c #cc0000",
"p c #f40000",
"l c #f70000",
"m c #f90000",
"d c #ff0f0f",
"# c #ff1010",
"..##############..",
".#abbbbbbbbbbbbcd.",
".#beeeeeeeeeeeefd.",
".#beeeeeeeeeeeefd.",
".#beeeeeeeeeeeefd.",
".#beeeeghijeeeefd.",
".#beeeeklmneeeefd.",
".#beeeopqrpseeefd.",
".#beeetueevweeefd.",
".#beeeeeeeeeeeefd.",
".#beeeeeeeeeeeefd.",
".#beeeeeeeeeeeefd.",
".#beeeeeeeeeeeefd.",
".#beeeeeeeeeeeefd.",
".#cffffffffffffcd.",
"..dddddddddddddd..",
"..................",
".................."};
