/* XPM */
static char *dummy[]={
"18 18 24 1",
". c None",
"e c #000000",
"v c #170000",
"n c #190000",
"i c #1d0000",
"o c #380000",
"p c #3b0000",
"t c #3f0000",
"s c #490000",
"h c #4a0000",
"g c #4b0000",
"f c #7f0000",
"b c #800000",
"k c #b40000",
"l c #b50000",
"r c #b60000",
"c c #bf0000",
"a c #c00000",
"u c #df0000",
"q c #e10000",
"m c #e20000",
"j c #e30000",
"d c #ff0f0f",
"# c #ff1010",
"..##############..",
".#abbbbbbbbbbbbcd.",
".#beeeeeeeeeeeefd.",
".#beeeeeeeeeeeefd.",
".#beeeeegheeeeefd.",
".#beeeijklmneeefd.",
".#beeejoeepqeeefd.",
".#beegkeeeelheefd.",
".#beehleeeerseefd.",
".#beeempeetueeefd.",
".#beeenqlruveeefd.",
".#beeeeehseeeeefd.",
".#beeeeeeeeeeeefd.",
".#beeeeeeeeeeeefd.",
".#cffffffffffffcd.",
"..dddddddddddddd..",
"..................",
".................."};
