/* XPM */
static char *dummy[]={
"18 18 23 1",
". c None",
"d c #808080",
"u c #8c7474",
"m c #8d7373",
"h c #8e7171",
"n c #9c6464",
"o c #9d6262",
"s c #a06060",
"r c #a45b5b",
"f c #a55a5a",
"g c #a55b5b",
"e c #bf4040",
"b c #c04040",
"k c #da2525",
"j c #da2626",
"q c #db2525",
"c c #df2020",
"a c #e02020",
"t c #ef1010",
"p c #f00f0f",
"i c #f10e0e",
"l c #f10f0f",
"# c #ff0000",
"..##############..",
".#abbbbbbbbbbbbc#.",
".#bdddddddddddde#.",
".#bdddddddddddde#.",
".#bdddddfgddddde#.",
".#bdddhijklmddde#.",
".#bdddinddopddde#.",
".#bddfjddddkgdde#.",
".#bddgkddddqrdde#.",
".#bdddioddstddde#.",
".#bdddmpkqtuddde#.",
".#bdddddgrddddde#.",
".#bdddddddddddde#.",
".#bdddddddddddde#.",
".#ceeeeeeeeeeeec#.",
"..##############..",
"..................",
".................."};
