/* XPM */
static char *dummy[]={
"18 18 18 1",
". c None",
"c c #000000",
"p c #0c0000",
"j c #0d0000",
"f c #100000",
"k c #1c0000",
"l c #1e0000",
"n c #200000",
"e c #250000",
"d c #260000",
"b c #400000",
"h c #5a0000",
"i c #5b0000",
"a c #600000",
"o c #700000",
"m c #710000",
"g c #720000",
"# c #800000",
"..##############..",
".#abbbbbbbbbbbba#.",
".#bccccccccccccb#.",
".#bccccccccccccb#.",
".#bcccccdecccccb#.",
".#bcccfghigjcccb#.",
".#bcccgkcclmcccb#.",
".#bccdhccccieccb#.",
".#bcceiccccieccb#.",
".#bcccmlccnocccb#.",
".#bccpjmiiopcccb#.",
".#bccccceecccccb#.",
".#bccccccccccccb#.",
".#bccccccccccccb#.",
".#abbbbbbbbbbbba#.",
"..##############..",
"..................",
".................."};
