/* XPM */
static char *dummy[]={
"21 21 2 1",
"# c #000000",
". c #ff0000",
".....................",
"#####################",
"#####################",
"#####################",
"#####################",
"#####################",
"#####################",
"#####################",
"#####################",
"#####################",
"#####################",
"#####################",
"#####################",
"#####################",
"#####################",
"#####################",
"#####################",
"#####################",
"#####################",
"#####################",
"....................."};
