/* XPM */
static char * bottom_right_active_xpm[] = {
"24 24 5 1",
" 	c None",
".	c #317937",
"+	c #32A63C",
"@	c #000000",
"#	c #51B459",
"                 .+....@",
"                 .#+++.@",
"                 .#+++.@",
"                 .#+++.@",
"                 .#+++.@",
"                 .#+++.@",
"                 .#+++.@",
"                 .#+++.@",
"                 .#+++.@",
"                 .#+++.@",
"                 .#+++.@",
"                 .#+++.@",
"                 .#+++.@",
"                 .#+++.@",
"                 .#+++.@",
"                 .#+++.@",
"                 .#+++.@",
"+................#++++.@",
"#################+++++.@",
"#++++++++++++++++++++.@ ",
"#++++++++++++++++++++.@ ",
"#++++++++++++++++++..@  ",
"+..................@@   ",
"@@@@@@@@@@@@@@@@@@@     "};
