/* XPM */
static char * close_inactive_xpm[] = {
"26 24 34 1",
" 	c None",
".	c #EFEEED",
"+	c #000000",
"@	c #D5D3D1",
"#	c #D4D2D0",
"$	c #D3D1CF",
"%	c #D3D1CE",
"&	c #666666",
"*	c #AEADAB",
"=	c #D2D0CE",
"-	c #676767",
";	c #ADACAB",
">	c #D2D0CD",
",	c #ADACAA",
"'	c #D1CFCD",
")	c #ADABAA",
"!	c #D1CFCC",
"~	c #ADABA9",
"{	c #D0CECC",
"]	c #ACABA9",
"^	c #D0CECB",
"/	c #CFCDCA",
"(	c #ABAAA8",
"_	c #CECCCA",
":	c #ABA9A8",
"<	c #CECCC9",
"[	c #ABA9A7",
"}	c #CDCBC9",
"|	c #AAA9A7",
"1	c #CDCBC8",
"2	c #CCCAC8",
"3	c #CCCAC7",
"4	c #CBC9C6",
"5	c #CAC8C5",
".....................++   ",
"@@@@@@@@@@@@@@@@@@@@@..+  ",
"@@@@@@@@@@@@@@@@@@@@@@@.+ ",
"#######################.+ ",
"########################.+",
"$$$$$$$$$$$$$$$$$$$$$$$$.+",
"%%%%%%%%&&*%%%%*&&%%%%%%.+",
"=======&&&-;==;-&&&=====.+",
">>>>>>>&&&&-,,-&&&&>>>>>.+",
"''''''')-&&&--&&&-)'''''.+",
"!!!!!!!!~-&&&&&&-~!!!!!!.+",
"{{{{{{{{{]-&&&&-]{{{{{{{.+",
"^^^^^^^^^]-&&&&-]^^^^^^^.+",
"////////(-&&&&&&-(//////.+",
"_______:-&&&--&&&-:_____.+",
"<<<<<<<&&&&-[[-&&&&<<<<<.+",
"}}}}}}}&&&-|}}|-&&&}}}}}.+",
"11111111&&|1111|&&111111.+",
"222222222222222222222222.+",
"333333333333333333333333.+",
"444444444444444444444444.+",
"444444444444444444444444.+",
"555555555555555555555555.+",
"555555555555555555555555.+"};
