/* XPM */
static char * hide_prelight_xpm[] = {
"26 24 47 1",
" 	c None",
".	c #27442A",
"+	c #EFEEED",
"@	c #CBCBCB",
"#	c #CCCCCC",
"$	c #CDCDCD",
"%	c #CECECE",
"&	c #CFCFCF",
"*	c #D0D0D0",
"=	c #D1D1D1",
"-	c #D2D2D2",
";	c #D3D3D3",
">	c #D4D4D4",
",	c #D5D5D5",
"'	c #D6D6D6",
")	c #D7D7D7",
"!	c #D8D8D8",
"~	c #D9D9D9",
"{	c #DADADA",
"]	c #DBDBDB",
"^	c #DCDCDC",
"/	c #DDDDDD",
"(	c #DEDEDE",
"_	c #DFDFDF",
":	c #E0E0E0",
"<	c #E1E1E1",
"[	c #E2E2E2",
"}	c #E3E3E3",
"|	c #E4E4E4",
"1	c #E5E5E5",
"2	c #E6E6E6",
"3	c #E7E7E7",
"4	c #E8E8E8",
"5	c #A8CDAC",
"6	c #65BC6D",
"7	c #AED3B2",
"8	c #E9E9E9",
"9	c #EAEAEA",
"0	c #EBEBEB",
"a	c #AACFAE",
"b	c #AFD4B3",
"c	c #ECECEC",
"d	c #EDEDED",
"e	c #EEEEEE",
"f	c #EFEFEF",
"g	c #F0F0F0",
"h	c #F1F1F1",
".++++++++++++++++++++++++.",
".+@#$%&**=-;>,'))!~{]^/((.",
".+#$%&**=-;>,'))!~{]^/(((.",
".+$%&**=-;>,'))!~{]^/((__.",
".+%&**=-;>,'))!~{]^/((_::.",
".+&**=-;>,'))!~{]^/((_:<<.",
".+**=-;>,'))!~{]^/((_:<[[.",
".+*=-;>,'))!~{]^/((_:<[}}.",
".+=-;>,'))!~{]^/((_:<[}||.",
".+-;>,'))!~{]^/((_:<[}|11.",
".+;>,'))!~{]^/((_:<[}|111.",
".+>,'))!~{]^/((_:<[}|1122.",
".+,'))!~{]^/((_:<[}|11233.",
".+'))!~{]^/((_:<[}|112344.",
".+))!~{566666666667123488.",
".+)!~{]666666666666234899.",
".+!~{]^666666666666348900.",
".+~{]^/a6666666666b4890cc.",
".+{]^/((_:<[}|11234890ccc.",
".+]^/((_:<[}|11234890ccdd.",
".+^/((_:<[}|11234890ccdee.",
".+/((_:<[}|11234890ccdeff.",
".+((_:<[}|11234890ccdefgg.",
".+(_:<[}|11234890ccdefghh."};
