/* XPM */
static char * maximize_toggled_prelight_xpm[] = {
"26 24 46 1",
" 	c None",
".	c #27442A",
"+	c #EFEEED",
"@	c #CBCBCB",
"#	c #CCCCCC",
"$	c #CDCDCD",
"%	c #CECECE",
"&	c #CFCFCF",
"*	c #D0D0D0",
"=	c #D1D1D1",
"-	c #D2D2D2",
";	c #D3D3D3",
">	c #D4D4D4",
",	c #D5D5D5",
"'	c #D6D6D6",
")	c #D7D7D7",
"!	c #D8D8D8",
"~	c #D9D9D9",
"{	c #DADADA",
"]	c #DBDBDB",
"^	c #DCDCDC",
"/	c #DDDDDD",
"(	c #DEDEDE",
"_	c #DFDFDF",
":	c #E0E0E0",
"<	c #E1E1E1",
"[	c #B7CFB9",
"}	c #65BC6D",
"|	c #BCD4BE",
"1	c #E2E2E2",
"2	c #E3E3E3",
"3	c #E4E4E4",
"4	c #E5E5E5",
"5	c #E6E6E6",
"6	c #E7E7E7",
"7	c #C1D9C3",
"8	c #E8E8E8",
"9	c #E9E9E9",
"0	c #EAEAEA",
"a	c #EBEBEB",
"b	c #ECECEC",
"c	c #EDEDED",
"d	c #EEEEEE",
"e	c #EFEFEF",
"f	c #F0F0F0",
"g	c #F1F1F1",
".++++++++++++++++++++++++.",
".+@#$%&**=-;>,'))!~{]^/((.",
".+#$%&**=-;>,'))!~{]^/(((.",
".+$%&**=-;>,'))!~{]^/((__.",
".+%&**=-;>,'))!~{]^/((_::.",
".+&**=-;>,'))!~{]^/((_:<<.",
".+**=-;>,')[}}}}}}|(_:<11.",
".+*=-;>,'))}}}}}}}}_:<122.",
".+=-;>,'))!}}}}}}}}:<1233.",
".+-;>,'))!~{]^/((_}<12344.",
".+;>,')[}}}}}}|(_:}123444.",
".+>,'))}}}}}}}}_:<}234455.",
".+,'))!}}}}}}}}:<1}344566.",
".+'))!~}]^/((_}<}}7445688.",
".+))!~{}^/((_:}1234456899.",
".+)!~{]}/((_:<}2344568900.",
".+!~{]^}((_:<1}34456890aa.",
".+~{]^/|}}}}}}74456890abb.",
".+{]^/((_:<1234456890abbb.",
".+]^/((_:<1234456890abbcc.",
".+^/((_:<1234456890abbcdd.",
".+/((_:<1234456890abbcdee.",
".+((_:<1234456890abbcdeff.",
".+(_:<1234456890abbcdefgg."};
