/* XPM */
static char * maximize_prelight_xpm[] = {
"26 24 46 1",
" 	c None",
".	c #27442A",
"+	c #EFEEED",
"@	c #CBCBCB",
"#	c #CCCCCC",
"$	c #CDCDCD",
"%	c #CECECE",
"&	c #CFCFCF",
"*	c #D0D0D0",
"=	c #D1D1D1",
"-	c #D2D2D2",
";	c #D3D3D3",
">	c #D4D4D4",
",	c #D5D5D5",
"'	c #D6D6D6",
")	c #D7D7D7",
"!	c #D8D8D8",
"~	c #D9D9D9",
"{	c #DADADA",
"]	c #DBDBDB",
"^	c #DCDCDC",
"/	c #DDDDDD",
"(	c #DEDEDE",
"_	c #DFDFDF",
":	c #E0E0E0",
"<	c #E1E1E1",
"[	c #B5CDB7",
"}	c #65BC6D",
"|	c #BCD4BE",
"1	c #E2E2E2",
"2	c #E3E3E3",
"3	c #E4E4E4",
"4	c #E5E5E5",
"5	c #E6E6E6",
"6	c #E7E7E7",
"7	c #E8E8E8",
"8	c #E9E9E9",
"9	c #EAEAEA",
"0	c #EBEBEB",
"a	c #C3DBC5",
"b	c #ECECEC",
"c	c #EDEDED",
"d	c #EEEEEE",
"e	c #EFEFEF",
"f	c #F0F0F0",
"g	c #F1F1F1",
".++++++++++++++++++++++++.",
".+@#$%&**=-;>,'))!~{]^/((.",
".+#$%&**=-;>,'))!~{]^/(((.",
".+$%&**=-;>,'))!~{]^/((__.",
".+%&**=-;>,'))!~{]^/((_::.",
".+&**=-;>,'))!~{]^/((_:<<.",
".+**=-;[}}}}}}}}}}|(_:<11.",
".+*=-;>}}}}}}}}}}}}_:<122.",
".+=-;>,}}}}}}}}}}}}:<1233.",
".+-;>,'}}}}}}}}}}}}<12344.",
".+;>,')}!~{]^/((_:}123444.",
".+>,'))}~{]^/((_:<}234455.",
".+,'))!}{]^/((_:<1}344566.",
".+'))!~}]^/((_:<12}445677.",
".+))!~{}^/((_:<123}456788.",
".+)!~{]}/((_:<1234}567899.",
".+!~{]^}((_:<12344}678900.",
".+~{]^/|}}}}}}}}}}a7890bb.",
".+{]^/((_:<12344567890bbb.",
".+]^/((_:<12344567890bbcc.",
".+^/((_:<12344567890bbcdd.",
".+/((_:<12344567890bbcdee.",
".+((_:<12344567890bbcdeff.",
".+(_:<12344567890bbcdefgg."};
