/* XPM */
static char * menu_active_xpm[] = {
"26 24 59 1",
" 	c None",
".	c #000000",
"+	c #EFEEED",
"@	c #27442A",
"#	c #D5D4D2",
"$	c #D6D4D2",
"%	c #D7D5D3",
"&	c #D8D6D4",
"*	c #D8D7D5",
"=	c #D9D8D6",
"-	c #DAD8D7",
";	c #DBD9D7",
">	c #DBDAD8",
",	c #DCDBD9",
"'	c #DDDCDA",
")	c #DEDCDB",
"!	c #DFDDDC",
"~	c #DFDEDC",
"{	c #E0DFDD",
"]	c #E1E0DE",
"^	c #E2E0DF",
"/	c #E2E1E0",
"(	c #E3E2E1",
"_	c #E4E3E1",
":	c #D5D3D1",
"<	c #E5E4E2",
"[	c #E5E5E3",
"}	c #E6E5E4",
"|	c #E7E6E5",
"1	c #E8E7E6",
"2	c #E8E8E6",
"3	c #A9B0A8",
"4	c #9FA89E",
"5	c #A3ACA2",
"6	c #B0B8B0",
"7	c #E9E9E7",
"8	c #2A462C",
"9	c #A0A99F",
"0	c #EAE9E8",
"a	c #A1ABA0",
"b	c #EBEAE9",
"c	c #A2ABA2",
"d	c #A6AFA6",
"e	c #ECEBEA",
"f	c #29452B",
"g	c #ECECEB",
"h	c #274429",
"i	c #EDEDEB",
"j	c #EEEDEC",
"k	c #A3ADA2",
"l	c #A4AEA4",
"m	c #EFEFEE",
"n	c #F0F0EF",
"o	c #F1F1F0",
"p	c #F2F1F0",
"q	c #F2F2F1",
"r	c #F3F3F2",
"s	c #F4F4F3",
"t	c #F5F5F4",
"   ..++++++++++++++++++++@",
"  .++#$%&*=-;>,')!~{]^/(_@",
" .+:#$%&*=-;>,')!~{]^/(_<@",
" .+#$%&*=-;>,')!~{]^/(_<[@",
".+#$%&*=-;>,')!~{]^/(_<[}@",
".+$%&*=-;>,')!~{]^/(_<[}|@",
".+%&*=-;>,')!~{]^/(_<[}|1@",
".+&*=-;>,')!~{]^/(_<[}|12@",
".+*=-;3@@4!~{]^/5@@6}|127@",
".+=-;>@@@89{]^/58@@@|1270@",
".+-;>,@@@@8a^/58@@@@1270b@",
".+;>,'48@@@8c58@@@8d270be@",
".+>,')!98@@@ff@@@8d270beg@",
".+,')!~{a8@@h@@@8d270begi@",
".+')!~{]^c8@@@@8d270begij@",
".+)!~{]^/(k8@@8d270begij+@",
".+!~{]^/(_<l@@d270begij+m@",
".+~{]^/(_<[}|1270begij+mn@",
".+{]^/(_<[}|1270begij+mno@",
".+]^/(_<[}|1270begij+mnop@",
".+^/(_<[}|1270begij+mnopq@",
".+/(_<[}|1270begij+mnopqr@",
".+(_<[}|1270begij+mnopqrs@",
".+_<[}|1270begij+mnopqrst@"};
