/* XPM */
static char * menu_prelight_xpm[] = {
"26 24 53 1",
" 	c None",
".	c #000000",
"+	c #E8E8E8",
"@	c #27442A",
"#	c #CECECE",
"$	c #CFCFCF",
"%	c #D0D0D0",
"&	c #D1D1D1",
"*	c #D2D2D2",
"=	c #D3D3D3",
"-	c #D4D4D4",
";	c #D5D5D5",
">	c #D6D6D6",
",	c #D7D7D7",
"'	c #D8D8D8",
")	c #D9D9D9",
"!	c #DADADA",
"~	c #DBDBDB",
"{	c #DCDCDC",
"]	c #DDDDDD",
"^	c #DEDEDE",
"/	c #CDCDCD",
"(	c #DFDFDF",
"_	c #E0E0E0",
":	c #E1E1E1",
"<	c #E2E2E2",
"[	c #E3E3E3",
"}	c #E4E4E4",
"|	c #B6CEB8",
"1	c #65BC6D",
"2	c #B0CEB3",
"3	c #B4D2B7",
"4	c #BED6C0",
"5	c #E5E5E5",
"6	c #67BD6F",
"7	c #B1CFB4",
"8	c #B2D0B5",
"9	c #E6E6E6",
"0	c #B8D6BB",
"a	c #E7E7E7",
"b	c #66BD6E",
"c	c #66BC6E",
"d	c #E9E9E9",
"e	c #EAEAEA",
"f	c #EBEBEB",
"g	c #B6D4B9",
"h	c #ECECEC",
"i	c #EDEDED",
"j	c #EEEEEE",
"k	c #EFEFEF",
"l	c #F0F0F0",
"m	c #F1F1F1",
"n	c #F2F2F2",
"   ..++++++++++++++++++++@",
"  .++#$%%&*=-;>,,')!~{]^^@",
" .+/#$%%&*=-;>,,')!~{]^^(@",
" .+#$%%&*=-;>,,')!~{]^^(_@",
".+#$%%&*=-;>,,')!~{]^^(_:@",
".+$%%&*=-;>,,')!~{]^^(_:<@",
".+%%&*=-;>,,')!~{]^^(_:<[@",
".+%&*=-;>,,')!~{]^^(_:<[}@",
".+&*=-|112')!~{]3114:<[}5@",
".+*=-;11167!~{]36111<[}55@",
".+=-;>111168{]361111[}559@",
".+-;>,26111633611160}559a@",
".+;>,,'76111bc11160}559a+@",
".+>,,')!8611111160}559a+d@",
".+,,')!~{36111160}559a+de@",
".+,')!~{]^361160}559a+def@",
".+')!~{]^^(g110}559a+defh@",
".+)!~{]^^(_:<[}559a+defhh@",
".+!~{]^^(_:<[}559a+defhhi@",
".+~{]^^(_:<[}559a+defhhij@",
".+{]^^(_:<[}559a+defhhijk@",
".+]^^(_:<[}559a+defhhijkl@",
".+^^(_:<[}559a+defhhijklm@",
".+^(_:<[}559a+defhhijklmn@"};
