/* XPM */
static char * shade_toggled_inactive_xpm[] = {
"26 24 31 1",
" 	c None",
".	c #EFEEED",
"+	c #D5D3D1",
"@	c #D4D2D0",
"#	c #D3D1CF",
"$	c #A19F9E",
"%	c #D3D1CE",
"&	c #A19F9D",
"*	c #666666",
"=	c #D2D0CE",
"-	c #D2D0CD",
";	c #D1CFCD",
">	c #D1CFCC",
",	c #9F9E9C",
"'	c #D0CECC",
")	c #D0CECB",
"!	c #CFCDCA",
"~	c #9E9D9B",
"{	c #CECCCA",
"]	c #9D9C9B",
"^	c #CECCC9",
"/	c #9D9C9A",
"(	c #CDCBC9",
"_	c #9D9B9A",
":	c #CDCBC8",
"<	c #9D9B99",
"[	c #CCCAC8",
"}	c #9C9B99",
"|	c #CCCAC7",
"1	c #CBC9C6",
"2	c #CAC8C5",
"..........................",
"++++++++++++++++++++++++++",
"++++++++++++++++++++++++++",
"@@@@@@@@@@@@@@@@@@@@@@@@@@",
"@@@@@@@@@@@@@@@@@@@@@@@@@@",
"############$$############",
"%%%%%%%%%%%&**&%%%%%%%%%%%",
"===========****===========",
"-----------****-----------",
";;;;;;;;;;;****;;;;;;;;;;;",
">>>>>>>,**,****,**,>>>>>>>",
"'''''''************'''''''",
")))))))************)))))))",
"!!!!!!!~**********~!!!!!!!",
"{{{{{{{{]********]{{{{{{{{",
"^^^^^^^^^/******/^^^^^^^^^",
"((((((((((_****_((((((((((",
":::::::::::<**<:::::::::::",
"[[[[[[[[[[[[}}[[[[[[[[[[[[",
"||||||||||||||||||||||||||",
"11111111111111111111111111",
"11111111111111111111111111",
"22222222222222222222222222",
"22222222222222222222222222"};
