/* XPM */
static char * stick_inactive_xpm[] = {
"26 24 30 1",
" 	c None",
".	c #EFEEED",
"+	c #D5D3D1",
"@	c #D4D2D0",
"#	c #D3D1CF",
"$	c #D3D1CE",
"%	c #AEACAA",
"&	c #757575",
"*	c #666666",
"=	c #D2D0CE",
"-	c #ADACAA",
";	c #D2D0CD",
">	c #757574",
",	c #D1CFCD",
"'	c #D1CFCC",
")	c #D0CECC",
"!	c #D0CECB",
"~	c #CFCDCA",
"{	c #CECCCA",
"]	c #CECCC9",
"^	c #757474",
"/	c #CDCBC9",
"(	c #AAA8A7",
"_	c #CDCBC8",
":	c #AAA8A6",
"<	c #747474",
"[	c #CCCAC8",
"}	c #CCCAC7",
"|	c #CBC9C6",
"1	c #CAC8C5",
"..........................",
"++++++++++++++++++++++++++",
"++++++++++++++++++++++++++",
"@@@@@@@@@@@@@@@@@@@@@@@@@@",
"@@@@@@@@@@@@@@@@@@@@@@@@@@",
"##########################",
"$$$$$$$$%&*******%$$$$$$$$",
"=======-**********-=======",
";;;;;;;>**********>;;;;;;;",
",,,,,,,************,,,,,,,",
"'''''''****''''****'''''''",
")))))))****))))****)))))))",
"!!!!!!!****!!!!****!!!!!!!",
"~~~~~~~****~~~~****~~~~~~~",
"{{{{{{{************{{{{{{{",
"]]]]]]]^**********^]]]]]]]",
"///////(**********(///////",
"________:<*******:________",
"[[[[[[[[[[[[[[[[[[[[[[[[[[",
"}}}}}}}}}}}}}}}}}}}}}}}}}}",
"||||||||||||||||||||||||||",
"||||||||||||||||||||||||||",
"11111111111111111111111111",
"11111111111111111111111111"};
