/* XPM */
static char * title_4_inactive_xpm[] = {
"8 26 23 1",
" 	c None",
".	c #000000",
"+	c #EFEEED",
"@	c #D5D3D1",
"#	c #D4D2D0",
"$	c #D3D1CF",
"%	c #D3D1CE",
"&	c #D2D0CE",
"*	c #D2D0CD",
"=	c #D1CFCD",
"-	c #D1CFCC",
";	c #D0CECC",
">	c #D0CECB",
",	c #CFCDCA",
"'	c #CECCCA",
")	c #CECCC9",
"!	c #CDCBC9",
"~	c #CDCBC8",
"{	c #CCCAC8",
"]	c #CCCAC7",
"^	c #CBC9C6",
"/	c #CAC8C5",
"(	c #797673",
"........",
"++++++++",
"@@@@@@@@",
"@@@@@@@@",
"########",
"########",
"$$$$$$$$",
"%%%%%%%%",
"&&&&&&&&",
"********",
"========",
"--------",
";;;;;;;;",
">>>>>>>>",
",,,,,,,,",
"''''''''",
"))))))))",
"!!!!!!!!",
"~~~~~~~~",
"{{{{{{{{",
"]]]]]]]]",
"^^^^^^^^",
"^^^^^^^^",
"////////",
"////////",
"(((((((("};
