/* XPM */
static char *close_prelight[] = {
/* columns rows colors chars-per-pixel */
"15 15 103 2",
"   c #453C3F",
".  c #483D3E",
"X  c #5E474A",
"o  c #6B4745",
"O  c #6F4544",
"+  c #684847",
"@  c #604B4A",
"#  c #644949",
"$  c #6F4D4F",
"%  c #734442",
"&  c #734644",
"*  c #724847",
"=  c #734A4A",
"-  c #695858",
";  c #6E5A59",
":  c #7A6E6F",
">  c #945550",
",  c #955551",
"<  c #AD514A",
"1  c #BD524A",
"2  c #BD534B",
"3  c #BE534B",
"4  c #A75A54",
"5  c #A85B55",
"6  c #B45851",
"7  c #B75B54",
"8  c #BB5F58",
"9  c #A1635E",
"0  c #A2625E",
"q  c #AD605B",
"w  c #AE605B",
"e  c #B0645E",
"r  c #B1645E",
"t  c #976864",
"y  c #986864",
"u  c #857473",
"i  c #867E7F",
"p  c #977573",
"a  c #987673",
"s  c #9C7A77",
"d  c #A76964",
"f  c #A86864",
"g  c #AC6D68",
"h  c #AE6E6A",
"j  c #A67773",
"k  c #A07E7C",
"l  c #A17E7C",
"z  c #AE7D79",
"x  c #AD7D7A",
"c  c #AE7D7A",
"v  c #AD7E7A",
"b  c #C0554D",
"n  c #CF554C",
"m  c #CF564C",
"M  c #D4534A",
"N  c #DC554B",
"B  c #DD554B",
"V  c #DE574C",
"C  c #DF574D",
"Z  c #D1594F",
"A  c #C25850",
"S  c #C35850",
"D  c #C65B53",
"F  c #D35950",
"G  c #EB564A",
"H  c #EB564B",
"J  c #EC564A",
"K  c #EC564B",
"L  c #ED564B",
"P  c #908483",
"I  c #928F90",
"U  c #939090",
"Y  c #929394",
"T  c #B78784",
"R  c #B98985",
"E  c #B69391",
"W  c #B59491",
"Q  c #B69491",
"!  c #B6A3A2",
"~  c #B6A4A2",
"^  c #B8A5A4",
"/  c #B9A6A4",
"(  c #B8A6A5",
")  c #B9A6A5",
"_  c #B3ADAC",
"`  c #B3ADAD",
"'  c #B3AEAD",
"]  c #BFBAB8",
"[  c #C09E9B",
"{  c #C19F9B",
"}  c #E98C86",
"|  c #E98D86",
" . c #E1A39E",
".. c #E2A39E",
"X. c #F0A29C",
"o. c #D9A9A6",
"O. c #C4B2AF",
"+. c #C0BAB8",
"@. c #F5A8A1",
"#. c #EBBCB8",
"$. c #ECBCB9",
"%. c #FDBEB9",
"&. c None",
/* pixels */
"Y +._ _ _ _ _ _ ' ' ' ' ' ] Y ",
"I O.) ) ^ ! ~ ^ ~ ( ( ( ) O.Y ",
"i { Q E k k p s a l s Q E Q P ",
": R z z y o.#.j $.o.y z v T u ",
"- h f f 0 , ..%...> 9 d d g ; ",
"@ r w w 4 5 X.@.X.5 4 w w r @ ",
"# 8 7 7 < | | 6 | | < 7 7 r # ",
"+ D S S 3 3 3 3 2 3 2 A A m = ",
"o F n n Z n n n n n n m n Z * ",
"O C B B B B B B B B B B B V * ",
"% J J J J J L L J J J G G M $ ",
"  . . . . .   . . . . . . X &.",
"&.&.&.&.&.&.&.&.&.&.&.&.&.&.&.",
"&.&.&.&.&.&.&.&.&.&.&.&.&.&.&.",
"&.&.&.&.&.&.&.&.&.&.&.&.&.&.&."
};
