/* XPM */
static char *close_active_png[] = {
/* columns rows colors chars-per-pixel */
"15 15 61 1",
"  c #403E42",
". c #3A4144",
"X c #534B4F",
"o c #4C5254",
"O c #4F5355",
"+ c #535355",
"@ c #585456",
"# c #5B5457",
"$ c gray35",
"% c #5A5A5A",
"& c #5B5B5B",
"* c gray37",
"= c #5B6062",
"- c #5F6162",
"; c gray38",
": c #656565",
"> c gray40",
", c #676767",
"< c #686868",
"1 c #6A6A6A",
"2 c #6C6B6B",
"3 c #6C6C6C",
"4 c #6D6D6D",
"5 c gray44",
"6 c #717171",
"7 c #727272",
"8 c gray46",
"9 c #74797B",
"0 c #7C7C7C",
"q c #7E7E7E",
"w c #7F7F7F",
"e c #838788",
"r c gray54",
"t c #8D8D8C",
"y c #8E8E8E",
"u c gray57",
"i c #929292",
"p c #939393",
"a c #919595",
"s c #929595",
"d c #919596",
"f c gray59",
"g c #989898",
"h c #9A9A9A",
"j c #9B9B9B",
"k c gray61",
"l c gray62",
"z c #A2A2A2",
"x c gray64",
"c c #A4A4A4",
"v c #A9A9A9",
"b c #ACACAC",
"n c #AFAFAF",
"m c gray69",
"M c #B1B1B1",
"N c #B2B2B1",
"B c #B9B9B9",
"V c #BBBBBB",
"C c #BDBEBD",
"Z c #BEBEBD",
"A c None",
/* pixels */
"dZmNmmNmmmNNmZd",
"dZNNmmmmnmmmmZd",
"eNccfguiigfccMy",
"9lyywbVrVbwyykw",
"=w886>xBz>6880-",
"o633><vbv<>336o",
"o4>>%jh;hj%>>3o",
"o1;;%%%%%&%;;1@",
"o<***********,+",
"o<***********,+",
"o8555556555561#",
" ............XA",
"AAAAAAAAAAAAAAA",
"AAAAAAAAAAAAAAA",
"AAAAAAAAAAAAAAA"
};
