/* XPM */
static char *hide_toggled_active_png[] = {
/* columns rows colors chars-per-pixel */
"15 15 59 1",
"  c #3F3F42",
". c #3A4144",
"X c #4C5254",
"o c gray34",
"O c #585858",
"+ c gray35",
"@ c #5B5B5B",
"# c gray36",
"$ c #5D5D5D",
"% c gray37",
"& c #5B6062",
"* c #606060",
"= c gray38",
"- c gray39",
"; c #646464",
": c gray40",
"> c #676767",
", c #686868",
"< c DimGray",
"1 c #6A6A6A",
"2 c #6D6D6D",
"3 c gray43",
"4 c #6F6F6F",
"5 c gray44",
"6 c #727272",
"7 c gray45",
"8 c #747474",
"9 c gray46",
"0 c #767676",
"q c #74797B",
"w c gray48",
"e c #7B7B7B",
"r c #7F7F7F",
"t c gray52",
"y c gray53",
"u c #838788",
"i c #8B8B8B",
"p c #8D8D8D",
"a c #8E8E8E",
"s c gray56",
"d c gray57",
"f c #939393",
"g c #919595",
"h c #919596",
"j c gray58",
"k c #979797",
"l c gray60",
"z c #9D9D9D",
"x c gray62",
"c c #A4A4A4",
"v c #A7A7A7",
"b c #B1B1B1",
"n c #B2B2B1",
"m c #B2B2B2",
"M c #BDBEBD",
"N c #BEBEBD",
"B c gray79",
"V c #CACACA",
"C c None",
/* pixels */
"hNbbbbbbbbbbbNh",
"hNbnbzdsdddjcNh",
"unccctVVVBVnsnu",
"qxssstkkkj8xwxq",
"&r5nVVVBVw%j,r&",
"X8;z5885l1%d%6X",
"X3%k%33<y<r6%3X",
"X<+d=;;-i%#%%<X",
"X,O4wwwwwo#%%,X",
"X<%@######%%%,X",
"X8455555544450X",
".............. ",
"CCCCCCCCCCCCCCC",
"CCCCCCCCCCCCCCC",
"CCCCCCCCCCCCCCC"
};
