/* XPM */
static char *maximize_toggled__prelight[] = {
/* columns rows colors chars-per-pixel */
"15 15 146 2",
"   c #314A39",
".  c #324A39",
"X  c #324A3A",
"o  c #356937",
"O  c #346B36",
"+  c #336C35",
"@  c #38673A",
"#  c #38663B",
"$  c #3B633E",
"%  c #3A643D",
"&  c #366838",
"*  c #3F5F43",
"=  c #3D6141",
"-  c #3D6240",
";  c #405E44",
":  c #515B55",
">  c #4E6952",
",  c #4F6853",
"<  c #657B69",
"1  c #667B6B",
"2  c #3A9331",
"3  c #3D9634",
"4  c #3F9735",
"5  c #3E9A35",
"6  c #3AA12F",
"7  c #37AB2B",
"8  c #37AD2A",
"9  c #35B927",
"0  c #3AB22E",
"q  c #3BB22E",
"w  c #35B928",
"e  c #36B828",
"r  c #36B829",
"t  c #35BA28",
"y  c #36BB28",
"u  c #37B92A",
"i  c #36BC29",
"p  c #37BC29",
"a  c #38BF2A",
"s  c #3ABC2C",
"d  c #3AA030",
"f  c #3BA230",
"g  c #3CA331",
"h  c #3CA531",
"j  c #3DA631",
"k  c #3DA432",
"l  c #3FA934",
"z  c #3FB233",
"x  c #3DB631",
"c  c #44833D",
"v  c #408D38",
"b  c #468F3E",
"n  c #43903A",
"m  c #47933F",
"M  c #48A23E",
"N  c #45AB3A",
"B  c #43AE38",
"V  c #47BB3B",
"C  c #36C527",
"Z  c #35C626",
"A  c #35C726",
"S  c #36C627",
"D  c #35C825",
"F  c #35C925",
"G  c #37C628",
"H  c #4A8A44",
"J  c #508C4A",
"K  c #4F9A47",
"L  c #53924D",
"P  c #509B48",
"I  c #519F49",
"U  c #539D4B",
"Y  c #588653",
"T  c #5B8D56",
"R  c #5E8F59",
"E  c #618F5C",
"W  c #63915E",
"Q  c #619E5B",
"!  c #4BA342",
"~  c #49A640",
"^  c #56B14C",
"/  c #58A450",
"(  c #5BA652",
")  c #5FA058",
"_  c #5AB451",
"`  c #61BC58",
"'  c #62BD59",
"]  c #63BD5A",
"[  c #668863",
"{  c #6F826D",
"}  c #6F836D",
"|  c #6E936A",
" . c #6F9C6A",
".. c #728770",
"X. c #76877A",
"o. c #78877C",
"O. c #73A36E",
"+. c #74A36F",
"@. c #73A46E",
"#. c #7CAE77",
"$. c #7FAD7A",
"%. c #4EC341",
"&. c #4EC342",
"*. c #4EC441",
"=. c #4EC442",
"-. c #5DC551",
";. c #64CA59",
":. c #6FC766",
">. c #78C470",
",. c #79C671",
"<. c #7EC977",
"1. c #84C37D",
"2. c #839681",
"3. c #89948C",
"4. c #8A948E",
"5. c #8E9592",
"6. c #8F9593",
"7. c #8CAD89",
"8. c #91A78F",
"9. c #94BA90",
"0. c #98B894",
"q. c #A2B4A0",
"w. c #ABB1A9",
"e. c #AAB2A9",
"r. c #AAB3A9",
"t. c #ABB2AA",
"y. c #ABB2AB",
"u. c #ACB2AB",
"i. c #ACB2AC",
"p. c #B6BFB4",
"a. c #B8BFB7",
"s. c #94D08D",
"d. c #95C690",
"f. c #ABCFA7",
"g. c #AAC1A8",
"h. c #AEC0AC",
"j. c #AEEDA8",
"k. c #AFEDA8",
"l. c #AFEDA9",
"z. c #B0EDA9",
"x. c #B0EDAA",
"c. c #CFF3CB",
"v. c #D0F3CC",
"b. c #D1F3CD",
"n. c #D2F4CF",
"m. c None",
/* pixels */
"6.a.i.u.y.y.y.y.y.y.y.y.e.p.6.",
"4.h.q.q.q.2.{ { { { { ..8.g.3.",
"o.0.7.7.7.[ n.v.v.v.v.f.| 9.X.",
"1 $. .W E Y O.O.O.+.R d.T #.< ",
"> Q H s.x.x.x.k.j.L c 1.H ) , ",
"; U m <.K P ( / >.m 3 >.n I ; ",
"- ! n :.2 3 ] _ ' M ' ^ 5 ~ - ",
"$ N 6 ;.k k 6 6 -.j k k l B # ",
"# B 8 V %.%.%.%.=.8 0 0 0 x & ",
"& s u 9 u w 9 w w t t t u C & ",
"O G S S G A G D D D D D D D + ",
": . . . . . . . X X X X X X : ",
"m.m.m.m.m.m.m.m.m.m.m.m.m.m.m.",
"m.m.m.m.m.m.m.m.m.m.m.m.m.m.m.",
"m.m.m.m.m.m.m.m.m.m.m.m.m.m.m."
};
