/* XPM */
static char *maximize_prelight[] = {
/* columns rows colors chars-per-pixel */
"15 15 139 2",
"   c #314A39",
".  c #324A39",
"X  c #324A3A",
"o  c #356937",
"O  c #346B36",
"+  c #336C35",
"@  c #38673A",
"#  c #38663B",
"$  c #3B633E",
"%  c #3A643D",
"&  c #366838",
"*  c #3F5F43",
"=  c #3D6141",
"-  c #3D6240",
";  c #405E44",
":  c #515B55",
">  c #4E6952",
",  c #4F6853",
"<  c #657B69",
"1  c #667B6B",
"2  c #3AA22F",
"3  c #3BB12E",
"4  c #3BB02F",
"5  c #3BB12F",
"6  c #3AB22E",
"7  c #3BB22E",
"8  c #37BA29",
"9  c #37BB29",
"0  c #37BA2A",
"q  c #36BC29",
"w  c #37BC29",
"e  c #38BA2A",
"r  c #38BF2A",
"t  c #3ABC2C",
"y  c #3AA130",
"u  c #3FA834",
"i  c #3BB030",
"p  c #3FB233",
"a  c #3DB631",
"s  c #43813D",
"d  c #43823D",
"f  c #449F3B",
"g  c #459E3C",
"h  c #479F3E",
"j  c #40A635",
"k  c #40A735",
"l  c #41A737",
"z  c #40A834",
"x  c #40A835",
"c  c #40AA35",
"v  c #46A23C",
"b  c #45AB3A",
"n  c #43AE38",
"m  c #36C527",
"M  c #35C626",
"N  c #35C726",
"B  c #36C627",
"V  c #35C825",
"C  c #35C925",
"Z  c #37C628",
"A  c #4B9744",
"S  c #4D9745",
"D  c #4B9844",
"F  c #4C9944",
"G  c #4D9845",
"H  c #4F9C46",
"J  c #51914B",
"K  c #52904B",
"L  c #509948",
"P  c #519F49",
"I  c #539D4B",
"U  c #579451",
"Y  c #569650",
"T  c #5B9755",
"R  c #599953",
"E  c #619E5B",
"W  c #4BA342",
"Q  c #49A640",
"!  c #58B34E",
"~  c #5FA058",
"^  c #59B250",
"/  c #59B450",
"(  c #5AB450",
")  c #5AB451",
"_  c #61AE59",
"`  c #62AD5A",
"'  c #66BF5D",
"]  c #698D65",
"[  c #6B8C67",
"{  c #6D9E68",
"}  c #6F9D6A",
"|  c #76877A",
" . c #78877C",
".. c #6BA965",
"X. c #6AAA64",
"o. c #71A36C",
"O. c #73A16F",
"+. c #79A774",
"@. c #77A872",
"#. c #7CAE77",
"$. c #7DA079",
"%. c #7DA07A",
"&. c #7EA07A",
"*. c #7FAD7A",
"=. c #64C05B",
"-. c #89948C",
";. c #8A948E",
":. c #8E9592",
">. c #8F9593",
",. c #85AA82",
"<. c #88A884",
"1. c #89AE86",
"2. c #8CAD89",
"3. c #94BA90",
"4. c #98B894",
"5. c #9DB19B",
"6. c #9EB29B",
"7. c #9EB19C",
"8. c #9FB29D",
"9. c #9FB59D",
"0. c #A0B59D",
"q. c #A1B4A0",
"w. c #A2B4A0",
"e. c #ABB1A9",
"r. c #AAB2A9",
"t. c #AAB3A9",
"y. c #ABB2AA",
"u. c #ABB2AB",
"i. c #ACB2AB",
"p. c #ACB2AC",
"a. c #B6BFB4",
"s. c #B8BFB7",
"d. c #AAC1A8",
"f. c #AEC0AC",
"g. c #B6E5B1",
"h. c #B6E6B1",
"j. c #B8E8B2",
"k. c #BAE8B5",
"l. c None",
/* pixels */
">.s.p.i.i.y.y.y.y.y.y.t.t.a.>.",
";.f.q.q.8.8.5.8.5.5.5.9.9.d.-.",
" .4.2.<.[ %.%.%.$.$.] ,.1.3.| ",
"1 *.O.} +.k.g.g.h.g.@.o.o.#.< ",
", E T U ..K s s d J X.Y R T > ",
"; I L S ` S A S F F ` F P P * ",
"= W h g ^ ' / / ! =.! v v Q = ",
"$ b k k y k k x x u 2 x c n # ",
"# p i i 4 4 4 4 4 3 3 4 4 a @ ",
"@ t e e 9 q q 9 q w w q 9 m o ",
"O Z m m m m m V m V V C V V + ",
": X X X X X X X . . . . X X : ",
"l.l.l.l.l.l.l.l.l.l.l.l.l.l.l.",
"l.l.l.l.l.l.l.l.l.l.l.l.l.l.l.",
"l.l.l.l.l.l.l.l.l.l.l.l.l.l.l."
};
