/* XPM */
static char * close_prelight_xpm[] = {
"23 23 71 1",
" 	c None",
".	c #6A6F72",
"+	c #DBDDD9",
"@	c #B1B1B1",
"#	c #DADCD8",
"$	c #6C7072",
"%	c #595F62",
"&	c #D5D6D4",
"*	c #A8A8A8",
"=	c #777777",
"-	c #545454",
";	c #D3D4D2",
">	c #696969",
",	c #CDCECC",
"'	c #A0A0A0",
")	c #525252",
"!	c #FCFCFC",
"~	c #535353",
"{	c #737373",
"]	c #FFFFFF",
"^	c #CACBCA",
"/	c #464D50",
"(	c #C7C7C7",
"_	c #969696",
":	c #575757",
"<	c #C2C2C2",
"[	c #595959",
"}	c #B4B4B4",
"|	c #8F8F8F",
"1	c #717171",
"2	c #5C5C5C",
"3	c #FAFAFA",
"4	c #727272",
"5	c #A6A6A6",
"6	c #31393C",
"7	c #9E9E9E",
"8	c #929292",
"9	c #797979",
"0	c #676767",
"a	c #A7A7A7",
"b	c #989898",
"c	c #828282",
"d	c #747474",
"e	c #838383",
"f	c #999999",
"g	c #B0B0B0",
"h	c #A1A1A1",
"i	c #818181",
"j	c #FDFDFD",
"k	c #B9B9B9",
"l	c #A9A9A9",
"m	c #8E8E8E",
"n	c #8D8D8D",
"o	c #9A9A9A",
"p	c #B3B3B3",
"q	c #9C9C9C",
"r	c #9B9B9B",
"s	c #463D41",
"t	c #CBCBCB",
"u	c #BDBDBD",
"v	c #D4D4D4",
"w	c #C9C9C9",
"x	c #C8C8C8",
"y	c #DDDDDD",
"z	c #D5D5D5",
"A	c #E6E6E6",
"B	c #DFDFDF",
"C	c #E0E0E0",
"D	c #F0F0F0",
"E	c #EFEFEF",
"F	c #645C60",
".+@@@@@@@@@@@@@@@@@@@+.",
".+@@@@@@@@@@@@@@@@@@@+.",
".+@@@@@@@@@@@@@@@@@@@#$",
"%&*****=--=*=--=*****;>",
"%,''''')!!~{~]!~'''''^>",
"/(_____:!!!:!!!:_____<[",
"/}|||||12!!!!324|||||5[",
"6788888890!!!0988888876",
"6abbbbbc{!!!!!defbfbfa6",
"6g'hh''ijjjijjjihh'''g6",
"6klllllmjjnonjjmlllllk6",
"6<}}}}p5qr5}5qr5}}}}}<s",
"6tuuuuuuuuuuuuuuuuuuuts",
"6vwwwwwwwwwwwwwwwwwwxv6",
"6yvvvvvzvvvvvvvvvvvzvy6",
"6ABBBCBCBBCBBBBBBBBBBAs",
"6DEDDDDEDEDDEEDEDEEEEsF",
"s6666666666666666666sF ",
"                       ",
"                       ",
"                       ",
"                       ",
"                       "};
