/* XPM */
static char *hide_prelight[] = {
/* columns rows colors chars-per-pixel */
"23 23 62 1",
"  c #31393C",
". c #463D41",
"X c #464D50",
"o c gray35",
"O c #595F62",
"+ c #645C60",
"@ c DimGray",
"# c #6A6F72",
"$ c #6C7072",
"% c #7C7C7C",
"& c gray49",
"* c #888888",
"= c #898989",
"- c gray54",
"; c #8B8B8B",
": c #959595",
"> c gray59",
", c #989898",
"< c gray60",
"1 c #9D9D9D",
"2 c #9F9F9F",
"3 c #A2A2A2",
"4 c #A4A4A4",
"5 c #A5A5A5",
"6 c gray65",
"7 c #A7A7A7",
"8 c #AAAAAA",
"9 c gray67",
"0 c #ACACAC",
"q c gray68",
"w c #AEAEAE",
"e c #AFAFAF",
"r c #B1B1B1",
"t c gray71",
"y c gray72",
"u c #B9B9B9",
"i c gray74",
"p c gray",
"a c #C1C1C1",
"s c gray76",
"d c #C5C5C5",
"f c #C6C6C6",
"g c #CBCBCB",
"h c gray80",
"j c #CDCECD",
"k c #CECECE",
"l c #D0D1CF",
"z c #D4D5D3",
"x c #D6D7D5",
"c c gray84",
"v c #D7D7D7",
"b c #DADCD8",
"n c #DBDDD9",
"m c #DFDFDF",
"M c gray88",
"N c #E1E1E1",
"B c #E7E7E7",
"V c #EFEFEF",
"C c gray94",
"Z c #FDFDFD",
"A c gray100",
"S c None",
/* pixels */
"#nrrrrrrrrrrrrrrrrrrrn#",
"#nrrrrrrrrrrrrrrrrrrrn#",
"#nrrrrrrrrrrrrrrrrrrrn#",
"@z8888888888888888888cO",
"@j5555555555555555555lO",
"of1111111111111111111hX",
"o9>>>>>>>>>>>>>>>>>>>uX",
" 4<,<<<<<<<<<<<<<<,<<4 ",
" w2222;&&&&&&&&&=3122w ",
" t5555=ZZZZZZZZZ=5577t ",
" pewee>ZZZZZZZZZ>wwwep ",
".fyyyu93435353359yyyyf ",
".jaaaaaaaaaaaaaaaaaaaj ",
" chhhhhhhhhjjghjhhhhjc ",
" MccvvvvcvcvvccccccccM ",
".BNNMNNNMNNNNNMMMMNNNB ",
"+.CCVCCCCCCCCCCCCCCCCC ",
"S+.                   @",
"SSSSSSSSSSSSSSSSSSSSSSS",
"SSSSSSSSSSSSSSSSSSSSSSS",
"SSSSSSSSSSSSSSSSSSSSSSS",
"SSSSSSSSSSSSSSSSSSSSSSS",
"SSSSSSSSSSSSSSSSSSSSSSS"
};
