/* XPM */
static char *hide_active[] = {
/* columns rows colors chars-per-pixel */
"23 23 41 1",
"  c #31393C",
". c #463D41",
"X c #484848",
"o c gray29",
"O c gray30",
"+ c #464D50",
"@ c #505050",
"# c gray32",
"$ c gray35",
"% c #5B5B5B",
"& c gray36",
"* c gray37",
"= c #595F62",
"- c #645C60",
"; c gray38",
": c gray39",
"> c #676767",
", c DimGray",
"< c gray42",
"1 c #6A6F72",
"2 c #6C7072",
"3 c gray44",
"4 c #797979",
"5 c #7F7F7F",
"6 c #808080",
"7 c #8B8B8B",
"8 c gray58",
"9 c #9D9D9D",
"0 c #A5A5A5",
"q c gray66",
"w c #B1B1B1",
"e c #B2B2B2",
"r c #BCBCBC",
"t c gray76",
"y c #C9CAC9",
"u c #CCCDCB",
"i c #D3D4D2",
"p c #D5D6D4",
"a c #DADCD8",
"s c #DBDDD9",
"d c None",
/* pixels */
"1swwwwwwwwwwwwwwwwwwws1",
"1swwwwwwwwwwwwwwwwwwws1",
"1swwwwwwwwwwwwwwwwwwws2",
",iqqqqqqqqqqqqqqqqqqqp=",
",y9999999999999999999u=",
"$r7777777777777777777t+",
"$844444444444444444440+",
" 633333333333333333336 ",
" 6<<<<$#@@#@@#@@$<<<<6 ",
" 6>>>>OwwwwwwwwwO,,:,6 ",
" 6::::owwwwwwwwwo::;:6 ",
".6;;;;#XoXXXXXXo#;;;;6 ",
".5*******************6 ",
" 5&******************6 ",
" 5&******************6 ",
".5&&&&&&&&&&&&&&&&*$*6 ",
"-.55566666666666666666 ",
"d-.                   ,",
"ddddddddddddddddddddddd",
"ddddddddddddddddddddddd",
"ddddddddddddddddddddddd",
"ddddddddddddddddddddddd",
"ddddddddddddddddddddddd"
};
