/* XPM */
static char *maximize_toggled_pressed[] = {
/* columns rows colors chars-per-pixel */
"23 23 35 1",
"  c gray19",
". c #313131",
"X c gray20",
"o c #353535",
"O c #31393C",
"+ c gray22",
"@ c #3C3C3C",
"# c #463D41",
"$ c #444444",
"% c gray27",
"& c #4E4E4E",
"* c #464D50",
"= c gray33",
"- c gray36",
"; c gray37",
": c #595F62",
"> c gray38",
", c gray39",
"< c #676767",
"1 c gray42",
"2 c #6A6F72",
"3 c gray44",
"4 c #777777",
"5 c #797979",
"6 c #808080",
"7 c #8B8B8B",
"8 c #9D9D9D",
"9 c #A5A5A5",
"0 c gray66",
"q c #B1B1B1",
"w c gray76",
"e c #CCCDCB",
"r c #D5D6D4",
"t c #DBDDD9",
"y c None",
/* pixels */
"2tqqqqqqqqqqqqqqqqqqqt2",
"2tqqqqqqqqqqqqqqqqqqqt2",
"2tqqqqqq4=========4qqt2",
":r000000&333333333&00r:",
":e888888%333333333$88e:",
"*w774=========4@@3@77w*",
"*955&333333333&3+3+550*",
"O633%333333333%1o3o336O",
"O611@3@@@@@@@3@.X3X116O",
"O6,1@1@3.331@3@333 <<6O",
"O6,,o1o1%   o3o   $>>6O",
"O6>>o3.o.o.o.3.>>>>>>6O",
"O6;;.133333133.;-->->6O",
"O6;;$ ..... ..%;>-->>6O",
"O6;;;;;;;;;;;;;;->->-6O",
"O5;;-----;-----------6O",
"O666666666666666666666O",
"$OOOOOOOOOOOOOOOOOOOOO#",
"yyyyyyyyyyyyyyyyyyyyyyy",
"yyyyyyyyyyyyyyyyyyyyyyy",
"yyyyyyyyyyyyyyyyyyyyyyy",
"yyyyyyyyyyyyyyyyyyyyyyy",
"yyyyyyyyyyyyyyyyyyyyyyy"
};
