/* XPM */
static char * close_active_xpm[] = {
"26 24 58 1",
" 	c None",
".	c #7C2929",
"+	c #EFEEED",
"@	c #000000",
"#	c #D3D1CF",
"$	c #D4D2D0",
"%	c #D5D3D1",
"&	c #D5D4D2",
"*	c #D6D4D2",
"=	c #D7D5D3",
"-	c #D8D6D4",
";	c #D8D7D5",
">	c #D9D8D6",
",	c #DAD8D7",
"'	c #DBD9D7",
")	c #DBDAD8",
"!	c #DCDBD9",
"~	c #DDDCDA",
"{	c #DEDCDB",
"]	c #DFDDDC",
"^	c #DFDEDC",
"/	c #E0DFDD",
"(	c #E1E0DE",
"_	c #E2E0DF",
":	c #E2E1E0",
"<	c #E3E2E1",
"[	c #E4E3E1",
"}	c #E5E4E2",
"|	c #E5E5E3",
"1	c #E6E5E4",
"2	c #BC9F9E",
"3	c #BEA2A0",
"4	c #E7E6E5",
"5	c #7E2B2B",
"6	c #BDA09F",
"7	c #E8E7E6",
"8	c #BEA1A0",
"9	c #E8E8E6",
"0	c #7D2A2A",
"a	c #C1A5A4",
"b	c #E9E9E7",
"c	c #7C2828",
"d	c #EAE9E8",
"e	c #EBEAE9",
"f	c #C2A5A4",
"g	c #ECEBEA",
"h	c #C3A6A6",
"i	c #ECECEB",
"j	c #C4A8A6",
"k	c #EDEDEB",
"l	c #EEEDEC",
"m	c #EFEFEE",
"n	c #F0F0EF",
"o	c #F1F1F0",
"p	c #F2F1F0",
"q	c #F2F2F1",
"r	c #F3F3F2",
"s	c #F4F4F3",
".++++++++++++++++++++@@   ",
".+#$%&*=-;>,')!~{]^/(++@  ",
".+$%&*=-;>,')!~{]^/(_:<+@ ",
".+%&*=-;>,')!~{]^/(_:<[+@ ",
".+&*=-;>,')!~{]^/(_:<[}|+@",
".+*=-;>,')!~{]^/(_:<[}|1+@",
".+=-;>,'..2{]^/3..<[}|14+@",
".+-;>,'...56^/35...}|147+@",
".+;>,')....5835....|1479+@",
".+>,')!25...00...5a1479b+@",
".+,')!~{65..c...5a1479bd+@",
".+')!~{]^80c...0a1479bde+@",
".+)!~{]^/30...c0f479bdeg+@",
".+!~{]^/35...c..5h9bdegi+@",
".+~{]^/35...00...5jdegik+@",
".+{]^/(....5af5....egikl+@",
".+]^/(_...5a14h5...gikl++@",
".+^/(_:<..a1479j..gikl+m+@",
".+/(_:<[}|1479bdegikl+mn+@",
".+(_:<[}|1479bdegikl+mno+@",
".+_:<[}|1479bdegikl+mnop+@",
".+:<[}|1479bdegikl+mnopq+@",
".+<[}|1479bdegikl+mnopqr+@",
".+[}|1479bdegikl+mnopqrs+@"};
