/* XPM */
static char * close_prelight_xpm[] = {
"26 24 50 1",
" 	c None",
".	c #7C2929",
"+	c #E8E8E8",
"@	c #000000",
"#	c #CBCBCB",
"$	c #CCCCCC",
"%	c #CDCDCD",
"&	c #CECECE",
"*	c #CFCFCF",
"=	c #D0D0D0",
"-	c #D1D1D1",
";	c #D2D2D2",
">	c #D3D3D3",
",	c #D4D4D4",
"'	c #D5D5D5",
")	c #D6D6D6",
"!	c #D7D7D7",
"~	c #D8D8D8",
"{	c #D9D9D9",
"]	c #DADADA",
"^	c #DBDBDB",
"/	c #DCDCDC",
"(	c #DDDDDD",
"_	c #DEDEDE",
":	c #DFDFDF",
"<	c #E0E0E0",
"[	c #E1E1E1",
"}	c #FF7979",
"|	c #E5B7B7",
"1	c #E7B9B9",
"2	c #E2E2E2",
"3	c #FF7B7B",
"4	c #E3E3E3",
"5	c #E4E4E4",
"6	c #FF7A7A",
"7	c #EBBDBD",
"8	c #E5E5E5",
"9	c #E6E6E6",
"0	c #E7E7E7",
"a	c #EDBFBF",
"b	c #EEC0C0",
"c	c #E9E9E9",
"d	c #EAEAEA",
"e	c #EBEBEB",
"f	c #ECECEC",
"g	c #EDEDED",
"h	c #EEEEEE",
"i	c #EFEFEF",
"j	c #F0F0F0",
"k	c #F1F1F1",
".++++++++++++++++++++@@   ",
".+#$%&*==-;>,')!!~{]^++@  ",
".+$%&*==-;>,')!!~{]^/(_+@ ",
".+%&*==-;>,')!!~{]^/(__+@ ",
".+&*==-;>,')!!~{]^/(__:<+@",
".+*==-;>,')!!~{]^/(__:<[+@",
".+==-;>,}}|!~{]1}}__:<[2+@",
".+=-;>,}}}3|{]13}}}:<[24+@",
".+-;>,'}}}}3113}}}}<[245+@",
".+;>,')|3}}}66}}}37[2458+@",
".+>,')!!|3}}}}}}37[24588+@",
".+,')!!~{16}}}}67[245889+@",
".+')!!~{]16}}}}672458890+@",
".+)!!~{]13}}}}}}3a58890++@",
".+!!~{]13}}}66}}}3b890+c+@",
".+!~{]^}}}}3773}}}}90+cd+@",
".+~{]^/}}}37[2a3}}}0+cde+@",
".+{]^/(_}}7[245b}}0+cdef+@",
".+]^/(__:<[2458890+cdeff+@",
".+^/(__:<[2458890+cdeffg+@",
".+/(__:<[2458890+cdeffgh+@",
".+(__:<[2458890+cdeffghi+@",
".+__:<[2458890+cdeffghij+@",
".+_:<[2458890+cdeffghijk+@"};
