/* XPM */
static char * left_inactive_xpm[] = {
"7 24 5 1",
" 	c None",
".	c #000000",
"+	c #EFEEED",
"@	c #EDECEB",
"#	c #797673",
".+@@@@#",
".+@@@@#",
".+@@@@#",
".+@@@@#",
".+@@@@#",
".+@@@@#",
".+@@@@#",
".+@@@@#",
".+@@@@#",
".+@@@@#",
".+@@@@#",
".+@@@@#",
".+@@@@#",
".+@@@@#",
".+@@@@#",
".+@@@@#",
".+@@@@#",
".+@@@@#",
".+@@@@#",
".+@@@@#",
".+@@@@#",
".+@@@@#",
".+@@@@#",
".+@@@@#"};
