/* XPM */
static char * maximize_toggled_active_xpm[] = {
"26 24 44 1",
" 	c None",
".	c #7C2929",
"+	c #E8E8E8",
"@	c #CBCBCB",
"#	c #CCCCCC",
"$	c #CDCDCD",
"%	c #CECECE",
"&	c #CFCFCF",
"*	c #D0D0D0",
"=	c #D1D1D1",
"-	c #D2D2D2",
";	c #D3D3D3",
">	c #D4D4D4",
",	c #D5D5D5",
"'	c #D6D6D6",
")	c #D7D7D7",
"!	c #D8D8D8",
"~	c #D9D9D9",
"{	c #DADADA",
"]	c #DBDBDB",
"^	c #DCDCDC",
"/	c #DDDDDD",
"(	c #DEDEDE",
"_	c #DFDFDF",
":	c #E0E0E0",
"<	c #E1E1E1",
"[	c #BEA6A6",
"}	c #C3ABAB",
"|	c #E2E2E2",
"1	c #E3E3E3",
"2	c #E4E4E4",
"3	c #E5E5E5",
"4	c #E6E6E6",
"5	c #E7E7E7",
"6	c #C8B0B0",
"7	c #E9E9E9",
"8	c #EAEAEA",
"9	c #EBEBEB",
"0	c #ECECEC",
"a	c #EDEDED",
"b	c #EEEEEE",
"c	c #EFEFEF",
"d	c #F0F0F0",
"e	c #F1F1F1",
".++++++++++++++++++++++++.",
".+@#$%&**=-;>,'))!~{]^/((.",
".+#$%&**=-;>,'))!~{]^/(((.",
".+$%&**=-;>,'))!~{]^/((__.",
".+%&**=-;>,'))!~{]^/((_::.",
".+&**=-;>,'))!~{]^/((_:<<.",
".+**=-;>,')[......}(_:<||.",
".+*=-;>,'))........_:<|11.",
".+=-;>,'))!........:<|122.",
".+-;>,'))!~{]^/((_.<|1233.",
".+;>,')[......}(_:.|12333.",
".+>,'))........_:<.123344.",
".+,'))!........:<|.233455.",
".+'))!~.]^/((_.<..63345++.",
".+))!~{.^/((_:.|123345+77.",
".+)!~{]./((_:<.123345+788.",
".+!~{]^.((_:<|.23345+7899.",
".+~{]^/}......63345+78900.",
".+{]^/((_:<|123345+789000.",
".+]^/((_:<|123345+78900aa.",
".+^/((_:<|123345+78900abb.",
".+/((_:<|123345+78900abcc.",
".+((_:<|123345+78900abcdd.",
".+(_:<|123345+78900abcdee."};
