/* XPM */
static char * maximize_toggled_prelight_xpm[] = {
"26 24 45 1",
" 	c None",
".	c #7C2929",
"+	c #E8E8E8",
"@	c #CBCBCB",
"#	c #CCCCCC",
"$	c #CDCDCD",
"%	c #CECECE",
"&	c #CFCFCF",
"*	c #D0D0D0",
"=	c #D1D1D1",
"-	c #D2D2D2",
";	c #D3D3D3",
">	c #D4D4D4",
",	c #D5D5D5",
"'	c #D6D6D6",
")	c #D7D7D7",
"!	c #D8D8D8",
"~	c #D9D9D9",
"{	c #DADADA",
"]	c #DBDBDB",
"^	c #DCDCDC",
"/	c #DDDDDD",
"(	c #DEDEDE",
"_	c #DFDFDF",
":	c #E0E0E0",
"<	c #E1E1E1",
"[	c #E2BDBD",
"}	c #FF7979",
"|	c #E7C2C2",
"1	c #E2E2E2",
"2	c #E3E3E3",
"3	c #E4E4E4",
"4	c #E5E5E5",
"5	c #E6E6E6",
"6	c #E7E7E7",
"7	c #ECC7C7",
"8	c #E9E9E9",
"9	c #EAEAEA",
"0	c #EBEBEB",
"a	c #ECECEC",
"b	c #EDEDED",
"c	c #EEEEEE",
"d	c #EFEFEF",
"e	c #F0F0F0",
"f	c #F1F1F1",
".++++++++++++++++++++++++.",
".+@#$%&**=-;>,'))!~{]^/((.",
".+#$%&**=-;>,'))!~{]^/(((.",
".+$%&**=-;>,'))!~{]^/((__.",
".+%&**=-;>,'))!~{]^/((_::.",
".+&**=-;>,'))!~{]^/((_:<<.",
".+**=-;>,')[}}}}}}|(_:<11.",
".+*=-;>,'))}}}}}}}}_:<122.",
".+=-;>,'))!}}}}}}}}:<1233.",
".+-;>,'))!~{]^/((_}<12344.",
".+;>,')[}}}}}}|(_:}123444.",
".+>,'))}}}}}}}}_:<}234455.",
".+,'))!}}}}}}}}:<1}344566.",
".+'))!~}]^/((_}<}}74456++.",
".+))!~{}^/((_:}1234456+88.",
".+)!~{]}/((_:<}234456+899.",
".+!~{]^}((_:<1}34456+8900.",
".+~{]^/|}}}}}}74456+890aa.",
".+{]^/((_:<1234456+890aaa.",
".+]^/((_:<1234456+890aabb.",
".+^/((_:<1234456+890aabcc.",
".+/((_:<1234456+890aabcdd.",
".+((_:<1234456+890aabcdee.",
".+(_:<1234456+890aabcdeff."};
