/* XPM */
static char * menu_inactive_xpm[] = {
"26 24 33 1",
" 	c None",
".	c #000000",
"+	c #EFEEED",
"@	c #D5D3D1",
"#	c #D4D2D0",
"$	c #D3D1CF",
"%	c #D3D1CE",
"&	c #D2D0CE",
"*	c #D2D0CD",
"=	c #B4B2B0",
"-	c #666666",
";	c #ADACAA",
">	c #D1CFCD",
",	c #676767",
"'	c #ADABAA",
")	c #D1CFCC",
"!	c #ADABA9",
"~	c #D0CECC",
"{	c #ACABA9",
"]	c #D0CECB",
"^	c #CFCDCA",
"/	c #ABAAA8",
"(	c #CECCCA",
"_	c #ABA9A8",
":	c #CECCC9",
"<	c #ABA9A7",
"[	c #CDCBC9",
"}	c #AAA9A7",
"|	c #CDCBC8",
"1	c #CCCAC8",
"2	c #CCCAC7",
"3	c #CBC9C6",
"4	c #CAC8C5",
"   ..+++++++++++++++++++++",
"  .++@@@@@@@@@@@@@@@@@@@@@",
" .+@@@@@@@@@@@@@@@@@@@@@@@",
" .+#######################",
".+########################",
".+$$$$$$$$$$$$$$$$$$$$$$$$",
".+%%%%%%%%%%%%%%%%%%%%%%%%",
".+&&&&&&&&&&&&&&&&&&&&&&&&",
".+****=--;******;--=******",
".+>>>>---,'>>>>',--->>>>>>",
".+))))----,!))!,----))))))",
".+~~~~{,---,{{,---,{~~~~~~",
".+]]]]]{,---,,---,{]]]]]]]",
".+^^^^^^/,------,/^^^^^^^^",
".+(((((((_,----,_(((((((((",
".+::::::::<,--,<::::::::::",
".+[[[[[[[[[}--}[[[[[[[[[[[",
".+||||||||||||||||||||||||",
".+111111111111111111111111",
".+222222222222222222222222",
".+333333333333333333333333",
".+333333333333333333333333",
".+444444444444444444444444",
".+444444444444444444444444"};
