/* XPM */
static char * shade_toggled_pressed_xpm[] = {
"26 24 50 1",
" 	c None",
".	c #7C2929",
"+	c #E8E8E8",
"@	c #CBCBCB",
"#	c #CCCCCC",
"$	c #CDCDCD",
"%	c #CECECE",
"&	c #CFCFCF",
"*	c #D0D0D0",
"=	c #D1D1D1",
"-	c #D2D2D2",
";	c #D3D3D3",
">	c #D4D4D4",
",	c #D5D5D5",
"'	c #D6D6D6",
")	c #D7D7D7",
"!	c #D8D8D8",
"~	c #D9D9D9",
"{	c #DADADA",
"]	c #DBDBDB",
"^	c #DCDCDC",
"/	c #DDDDDD",
"(	c #DEDEDE",
"_	c #DFDFDF",
":	c #E0E0E0",
"<	c #C2C2C2",
"[	c #C3C3C3",
"}	c #E1E1E1",
"|	c #B3B3B3",
"1	c #C4C4C4",
"2	c #E2E2E2",
"3	c #E3E3E3",
"4	c #E4E4E4",
"5	c #E5E5E5",
"6	c #C7C7C7",
"7	c #C9C9C9",
"8	c #E6E6E6",
"9	c #E7E7E7",
"0	c #C6C6C6",
"a	c #E9E9E9",
"b	c #EAEAEA",
"c	c #C8C8C8",
"d	c #EBEBEB",
"e	c #ECECEC",
"f	c #CACACA",
"g	c #EDEDED",
"h	c #EEEEEE",
"i	c #EFEFEF",
"j	c #F0F0F0",
"k	c #F1F1F1",
".++++++++++++++++++++++++.",
".+@#$%&**=-;>,'))!~{]^/((.",
".+#$%&**=-;>,'))!~{]^/(((.",
".+$%&**=-;>,'))!~{]^/((__.",
".+%&**=-;>,'))!~{]^/((_::.",
".+&**=-;>,')<[~{]^/((_:}}.",
".+**=-;>,')<||1]^/((_:}22.",
".+*=-;>,'))||||^/((_:}233.",
".+=-;>,'))!||||/((_:}2344.",
".+-;>,'))!~||||((_:}23455.",
".+;>,')<||1||||6||7234555.",
".+>,'))||||||||||||345588.",
".+,'))!||||||||||||455899.",
".+'))!~1||||||||||@5589++.",
".+))!~{]0||||||||@5589+aa.",
".+)!~{]^/6||||||@5589+abb.",
".+!~{]^/((c||||@5589+abdd.",
".+~{]^/((_:7||@5589+abdee.",
".+{]^/((_:}2f@5589+abdeee.",
".+]^/((_:}2345589+abdeegg.",
".+^/((_:}2345589+abdeeghh.",
".+/((_:}2345589+abdeeghii.",
".+((_:}2345589+abdeeghijj.",
".+(_:}2345589+abdeeghijkk."};
