/* XPM */
static char * shade_toggled_prelight_xpm[] = {
"26 24 49 1",
" 	c None",
".	c #7C2929",
"+	c #E8E8E8",
"@	c #CBCBCB",
"#	c #CCCCCC",
"$	c #CDCDCD",
"%	c #CECECE",
"&	c #CFCFCF",
"*	c #D0D0D0",
"=	c #D1D1D1",
"-	c #D2D2D2",
";	c #D3D3D3",
">	c #D4D4D4",
",	c #D5D5D5",
"'	c #D6D6D6",
")	c #D7D7D7",
"!	c #D8D8D8",
"~	c #D9D9D9",
"{	c #DADADA",
"]	c #DBDBDB",
"^	c #DCDCDC",
"/	c #DDDDDD",
"(	c #DEDEDE",
"_	c #DFDFDF",
":	c #E0E0E0",
"<	c #E4B8B8",
"[	c #E1E1E1",
"}	c #FF7979",
"|	c #E6BABA",
"1	c #E2E2E2",
"2	c #E3E3E3",
"3	c #E4E4E4",
"4	c #E5E5E5",
"5	c #E8BCBC",
"6	c #EABEBE",
"7	c #E6E6E6",
"8	c #E7E7E7",
"9	c #ECC0C0",
"0	c #E7BBBB",
"a	c #E9E9E9",
"b	c #EAEAEA",
"c	c #E9BDBD",
"d	c #EBEBEB",
"e	c #ECECEC",
"f	c #EDEDED",
"g	c #EEEEEE",
"h	c #EFEFEF",
"i	c #F0F0F0",
"j	c #F1F1F1",
".++++++++++++++++++++++++.",
".+@#$%&**=-;>,'))!~{]^/((.",
".+#$%&**=-;>,'))!~{]^/(((.",
".+$%&**=-;>,'))!~{]^/((__.",
".+%&**=-;>,'))!~{]^/((_::.",
".+&**=-;>,')<<~{]^/((_:[[.",
".+**=-;>,')<}}|]^/((_:[11.",
".+*=-;>,'))}}}}^/((_:[122.",
".+=-;>,'))!}}}}/((_:[1233.",
".+-;>,'))!~}}}}((_:[12344.",
".+;>,')<}}|}}}}5}}6123444.",
".+>,'))}}}}}}}}}}}}234477.",
".+,'))!}}}}}}}}}}}}344788.",
".+'))!~|}}}}}}}}}}94478++.",
".+))!~{]0}}}}}}}}94478+aa.",
".+)!~{]^/5}}}}}}94478+abb.",
".+!~{]^/((c}}}}94478+abdd.",
".+~{]^/((_:6}}94478+abdee.",
".+{]^/((_:[1994478+abdeee.",
".+]^/((_:[1234478+abdeeff.",
".+^/((_:[1234478+abdeefgg.",
".+/((_:[1234478+abdeefghh.",
".+((_:[1234478+abdeefghii.",
".+(_:[1234478+abdeefghijj."};
