/* XPM */
static char * shade_pressed_xpm[] = {
"26 24 50 1",
" 	c None",
".	c #7C2929",
"+	c #E8E8E8",
"@	c #CBCBCB",
"#	c #CCCCCC",
"$	c #CDCDCD",
"%	c #CECECE",
"&	c #CFCFCF",
"*	c #D0D0D0",
"=	c #D1D1D1",
"-	c #D2D2D2",
";	c #D3D3D3",
">	c #D4D4D4",
",	c #D5D5D5",
"'	c #D6D6D6",
")	c #D7D7D7",
"!	c #D8D8D8",
"~	c #D9D9D9",
"{	c #DADADA",
"]	c #DBDBDB",
"^	c #DCDCDC",
"/	c #DDDDDD",
"(	c #DEDEDE",
"_	c #DFDFDF",
":	c #E0E0E0",
"<	c #C2C2C2",
"[	c #C3C3C3",
"}	c #E1E1E1",
"|	c #B3B3B3",
"1	c #C4C4C4",
"2	c #E2E2E2",
"3	c #C6C6C6",
"4	c #E3E3E3",
"5	c #C7C7C7",
"6	c #E4E4E4",
"7	c #C8C8C8",
"8	c #E5E5E5",
"9	c #C9C9C9",
"0	c #E6E6E6",
"a	c #E7E7E7",
"b	c #E9E9E9",
"c	c #EAEAEA",
"d	c #EBEBEB",
"e	c #ECECEC",
"f	c #CACACA",
"g	c #EDEDED",
"h	c #EEEEEE",
"i	c #EFEFEF",
"j	c #F0F0F0",
"k	c #F1F1F1",
".++++++++++++++++++++++++.",
".+@#$%&**=-;>,'))!~{]^/((.",
".+#$%&**=-;>,'))!~{]^/(((.",
".+$%&**=-;>,'))!~{]^/((__.",
".+%&**=-;>,'))!~{]^/((_::.",
".+&**=-;>,')<[~{]^/((_:}}.",
".+**=-;>,')<||1]^/((_:}22.",
".+*=-;>,')<||||3/((_:}244.",
".+=-;>,')<||||||5(_:}2466.",
".+-;>,')<||||||||7:}24688.",
".+;>,')<||||||||||9246888.",
".+>,'))||||||||||||468800.",
".+,'))!||||||||||||6880aa.",
".+'))!~1||3||||9||@880a++.",
".+))!~{]^/(||||246880a+bb.",
".+)!~{]^/((||||46880a+bcc.",
".+!~{]^/((_||||6880a+bcdd.",
".+~{]^/((_:9||@880a+bcdee.",
".+{]^/((_:}2f@880a+bcdeee.",
".+]^/((_:}246880a+bcdeegg.",
".+^/((_:}246880a+bcdeeghh.",
".+/((_:}246880a+bcdeeghii.",
".+((_:}246880a+bcdeeghijj.",
".+(_:}246880a+bcdeeghijkk."};
