/* XPM */
static char * stick_active_xpm[] = {
"26 24 48 1",
" 	c None",
".	c #7C2929",
"+	c #E8E8E8",
"@	c #CBCBCB",
"#	c #CCCCCC",
"$	c #CDCDCD",
"%	c #CECECE",
"&	c #CFCFCF",
"*	c #D0D0D0",
"=	c #D1D1D1",
"-	c #D2D2D2",
";	c #D3D3D3",
">	c #D4D4D4",
",	c #D5D5D5",
"'	c #D6D6D6",
")	c #D7D7D7",
"!	c #D8D8D8",
"~	c #D9D9D9",
"{	c #DADADA",
"]	c #DBDBDB",
"^	c #DCDCDC",
"/	c #DDDDDD",
"(	c #DEDEDE",
"_	c #DFDFDF",
":	c #E0E0E0",
"<	c #E1E1E1",
"[	c #A17171",
"}	c #823535",
"|	c #A47474",
"1	c #E2E2E2",
"2	c #A57474",
"3	c #E3E3E3",
"4	c #833636",
"5	c #E4E4E4",
"6	c #E5E5E5",
"7	c #E6E6E6",
"8	c #E7E7E7",
"9	c #E9E9E9",
"0	c #833737",
"a	c #EAEAEA",
"b	c #A87878",
"c	c #EBEBEB",
"d	c #ECECEC",
"e	c #EDEDED",
"f	c #EEEEEE",
"g	c #EFEFEF",
"h	c #F0F0F0",
"i	c #F1F1F1",
".++++++++++++++++++++++++.",
".+@#$%&**=-;>,'))!~{]^/((.",
".+#$%&**=-;>,'))!~{]^/(((.",
".+$%&**=-;>,'))!~{]^/((__.",
".+%&**=-;>,'))!~{]^/((_::.",
".+&**=-;>,'))!~{]^/((_:<<.",
".+**=-;>[}.......|((_:<11.",
".+*=-;>[..........2_:<133.",
".+=-;>,}..........4:<1355.",
".+-;>,'............<13566.",
".+;>,')....]^/(....135666.",
".+>,'))....^/((....356677.",
".+,'))!..../((_....566788.",
".+'))!~....((_:....6678++.",
".+))!~{............678+99.",
".+)!~{]4..........078+9aa.",
".+!~{]^|..........b8+9acc.",
".+~{]^/(24.......b8+9acdd.",
".+{]^/((_:<1356678+9acddd.",
".+]^/((_:<1356678+9acddee.",
".+^/((_:<1356678+9acddeff.",
".+/((_:<1356678+9acddefgg.",
".+((_:<1356678+9acddefghh.",
".+(_:<1356678+9acddefghii."};
