/* XPM */
static char * stick_prelight_xpm[] = {
"26 24 49 1",
" 	c None",
".	c #7C2929",
"+	c #E8E8E8",
"@	c #CBCBCB",
"#	c #CCCCCC",
"$	c #CDCDCD",
"%	c #CECECE",
"&	c #CFCFCF",
"*	c #D0D0D0",
"=	c #D1D1D1",
"-	c #D2D2D2",
";	c #D3D3D3",
">	c #D4D4D4",
",	c #D5D5D5",
"'	c #D6D6D6",
")	c #D7D7D7",
"!	c #D8D8D8",
"~	c #D9D9D9",
"{	c #DADADA",
"]	c #DBDBDB",
"^	c #DCDCDC",
"/	c #DDDDDD",
"(	c #DEDEDE",
"_	c #DFDFDF",
":	c #E0E0E0",
"<	c #E1E1E1",
"[	c #ED9F9F",
"}	c #FB7F7F",
"|	c #FF7979",
"1	c #F0A2A2",
"2	c #E2E2E2",
"3	c #F1A3A3",
"4	c #E3E3E3",
"5	c #FC8080",
"6	c #E4E4E4",
"7	c #E5E5E5",
"8	c #E6E6E6",
"9	c #E7E7E7",
"0	c #E9E9E9",
"a	c #FD8181",
"b	c #EAEAEA",
"c	c #F4A6A6",
"d	c #EBEBEB",
"e	c #ECECEC",
"f	c #EDEDED",
"g	c #EEEEEE",
"h	c #EFEFEF",
"i	c #F0F0F0",
"j	c #F1F1F1",
".++++++++++++++++++++++++.",
".+@#$%&**=-;>,'))!~{]^/((.",
".+#$%&**=-;>,'))!~{]^/(((.",
".+$%&**=-;>,'))!~{]^/((__.",
".+%&**=-;>,'))!~{]^/((_::.",
".+&**=-;>,'))!~{]^/((_:<<.",
".+**=-;>[}|||||||1((_:<22.",
".+*=-;>[||||||||||3_:<244.",
".+=-;>,}||||||||||5:<2466.",
".+-;>,'||||||||||||<24677.",
".+;>,')||||]^/(||||246777.",
".+>,'))||||^/((||||467788.",
".+,'))!||||/((_||||677899.",
".+'))!~||||((_:||||7789++.",
".+))!~{||||||||||||789+00.",
".+)!~{]5||||||||||a89+0bb.",
".+!~{]^1||||||||||c9+0bdd.",
".+~{]^/(35|||||||c9+0bdee.",
".+{]^/((_:<2467789+0bdeee.",
".+]^/((_:<2467789+0bdeeff.",
".+^/((_:<2467789+0bdeefgg.",
".+/((_:<2467789+0bdeefghh.",
".+((_:<2467789+0bdeefghii.",
".+(_:<2467789+0bdeefghijj."};
