/* XPM */
static char *close_prelight[] = {
/* columns rows colors chars-per-pixel */
"15 15 64 1",
"  c #403E42",
". c #3A4144",
"X c gray31",
"o c #534B4F",
"O c #4C5254",
"+ c #4F5355",
"@ c #515151",
"# c #535355",
"$ c gray33",
"% c #555555",
"& c gray34",
"* c #585456",
"= c #5B5457",
"- c #5D5D5D",
"; c gray37",
": c #5B6062",
"> c #5F6162",
", c #606060",
"< c gray38",
"1 c #646464",
"2 c #656565",
"3 c #676767",
"4 c #686868",
"5 c #6A6A6A",
"6 c #6C6B6B",
"7 c #6C6C6C",
"8 c #6D6D6D",
"9 c gray44",
"0 c #727272",
"q c gray46",
"w c #74797B",
"e c #7C7C7C",
"r c #7E7E7E",
"t c #7F7F7F",
"y c #808080",
"u c #838383",
"i c #868686",
"p c #838788",
"a c #898989",
"s c gray55",
"d c #8D8D8C",
"f c #8E8E8E",
"g c #919595",
"h c #929595",
"j c #919596",
"k c gray61",
"l c gray62",
"z c #A4A4A4",
"x c gray68",
"c c #AEAEAE",
"v c gray69",
"b c #B1B1B1",
"n c #B2B2B1",
"m c #BDBEBD",
"M c #BEBEBD",
"N c #CACACA",
"B c #CECECE",
"V c gray81",
"C c #D0D0D0",
"Z c #E6E6E6",
"A c #E7E7E7",
"S c gray92",
"D c gray99",
"F c None",
/* pixels */
"jMvnvnvnnnnnvMj",
"jMnnvxxvxxvvnMj",
"pnzzastuysazzvf",
"wlff9NZiZN9ffkt",
":tqq7&CDC&7qqe>",
"O077>1ZSZ1>650O",
"O822XCB-BC@228O",
"O5,,&&@#X&&,,5&",
"O4---,----,-,3#",
"O4,----,,-,--2#",
"Oq089990900805=",
" ............oF",
"FFFFFFFFFFFFFFF",
"FFFFFFFFFFFFFFF",
"FFFFFFFFFFFFFFF"
};
