/* XPM */
static char *hide_prelight[] = {
/* columns rows colors chars-per-pixel */
"15 15 46 1",
"  c #3A4144",
". c gray31",
"X c #534B4F",
"o c #4C5254",
"O c #4F5355",
"+ c #535355",
"@ c #555555",
"# c #585456",
"$ c #5B5457",
"% c #545859",
"& c gray36",
"* c gray37",
"= c #5B6062",
"- c #5F6162",
"; c gray38",
": c #656565",
"> c #676767",
", c #686868",
"< c DimGray",
"1 c #6A6A6A",
"2 c #6C6B6B",
"3 c #6C6C6C",
"4 c #6D6D6D",
"5 c gray44",
"6 c #727272",
"7 c gray46",
"8 c #74797B",
"9 c #7C7C7C",
"0 c #7E7E7E",
"q c #7F7F7F",
"w c #838788",
"e c gray54",
"r c #8D8D8C",
"t c #8E8E8E",
"y c #919595",
"u c #929595",
"i c #919596",
"p c gray61",
"a c gray62",
"s c #A4A4A4",
"d c #B1B1B1",
"f c #B2B2B1",
"g c #BDBEBD",
"h c #BEBEBD",
"j c #FDFDFD",
"k c None",
/* pixels */
"ihdddddddddddhi",
"ihddddddffdddhi",
"rdsssssssssssdw",
"0ptttttttttttp8",
"-977777777777q=",
"o63<@&&&&&@<36o",
"o4:;ejjjjje;:4o",
"#<;*.&&&&&o*;<o",
"@<***********,o",
"O:***********<o",
"$<555556555547O",
"kX            %",
"kkkkkkkkkkkkkkk",
"kkkkkkkkkkkkkkk",
"kkkkkkkkkkkkkkk"
};
