/* XPM */
static char *maximize_prelight[] = {
/* columns rows colors chars-per-pixel */
"15 15 44 1",
"  c #3F3F42",
". c #3A4144",
"X c gray31",
"o c #4C5254",
"O c #535353",
"+ c gray36",
"@ c gray37",
"# c #5B6062",
"$ c gray38",
"% c #656565",
"& c #676767",
"* c #686868",
"= c #6A6A6A",
"- c #6C6C6C",
"; c #6D6D6D",
": c gray44",
"> c #727272",
", c gray46",
"< c #74797B",
"1 c #7B7B7B",
"2 c #7F7F7F",
"3 c #838788",
"4 c #888888",
"5 c #8B8B8B",
"6 c #8D8D8D",
"7 c #8E8E8E",
"8 c #909090",
"9 c #919595",
"0 c #919596",
"q c #959595",
"w c gray59",
"e c gray62",
"r c #A4A4A4",
"t c #ACACAC",
"y c gray68",
"u c #AEAEAE",
"i c gray69",
"p c #B1B1B1",
"a c #B2B2B1",
"s c #BDBEBD",
"d c #BEBEBD",
"f c gray92",
"g c #EFEFEF",
"h c None",
/* pixels */
"0daiaaiaaaaaas0",
"0daiyyytyyyyas0",
"3are1wwwqw1era3",
"<e74wgfffgq48e<",
"#2,:8&OOO&8:,2#",
"o>-&7&%%%&7&;>o",
"o;%$5tqqqt7$%;o",
"o-$@X+++++X@$*o",
"o&@@@@@@@@@@@*o",
"o&@@@@@@@@@@@*o",
"o,:::::::::::,o",
" ............. ",
"hhhhhhhhhhhhhhh",
"hhhhhhhhhhhhhhh",
"hhhhhhhhhhhhhhh"
};
