/* XPM */
static char *maximize_active_png[] = {
/* columns rows colors chars-per-pixel */
"15 15 47 1",
"  c #3F3F42",
". c #3A4144",
"X c #4C5254",
"o c #585858",
"O c gray37",
"+ c #5B6062",
"@ c #606060",
"# c gray38",
"$ c gray39",
"% c #646464",
"& c #656565",
"* c #686868",
"= c DimGray",
"- c #6A6A6A",
"; c #6C6C6C",
": c #6D6D6D",
"> c gray43",
", c gray44",
"< c #727272",
"1 c gray45",
"2 c gray46",
"3 c #74797B",
"4 c gray47",
"5 c #7C7C7C",
"6 c gray49",
"7 c #7F7F7F",
"8 c gray51",
"9 c #838788",
"0 c #888888",
"q c #8B8B8B",
"w c #8E8E8E",
"e c gray56",
"r c #929292",
"t c #919595",
"y c #919596",
"u c #9D9D9D",
"i c gray62",
"p c gray63",
"a c #A4A4A4",
"s c #AFAFAF",
"d c #B1B1B1",
"f c #B2B2B1",
"g c gray74",
"h c #BDBEBD",
"j c #BEBEBD",
"k c gray75",
"l c None",
/* pixels */
"yjsffsffsffddky",
"yjffsssssssssjy",
"9fapeuuuuuepad9",
"3iwqrkggjkrqei3",
"+7218>%%%:8127+",
"X1-*5-***-5--<X",
"X:%%4066604%&:X",
"X-%OoOOOOOo##-X",
"X*OOOOOOOOOOO*X",
"X*OOOOOOOOOOO*X",
"X2><<>><><<><2X",
" ............. ",
"lllllllllllllll",
"lllllllllllllll",
"lllllllllllllll"
};
