/* XPM */
static char *maximize_toggled_prelight[] = {
/* columns rows colors chars-per-pixel */
"15 15 68 1",
"  c #3F3F42",
". c #3A4144",
"X c #4B4B4B",
"o c #4E4E4E",
"O c gray31",
"+ c #4C5254",
"@ c #505050",
"# c gray32",
"$ c #535353",
"% c gray33",
"& c #555555",
"* c #565656",
"= c #585858",
"- c gray35",
"; c #5A5A5A",
": c #5B5B5B",
"> c gray36",
", c #5D5D5D",
"< c gray37",
"1 c #5F5F5F",
"2 c #5B6062",
"3 c #646464",
"4 c #676767",
"5 c #686868",
"6 c DimGray",
"7 c #6A6A6A",
"8 c gray42",
"9 c #6D6D6D",
"0 c #6F6F6F",
"q c gray44",
"w c #727272",
"e c gray46",
"r c #767676",
"t c #74797B",
"y c gray47",
"u c #7B7B7B",
"i c #7C7C7C",
"p c #7F7F7F",
"a c #818181",
"s c gray51",
"d c #838788",
"f c #888888",
"g c gray54",
"h c #8E8E8E",
"j c gray56",
"k c #939393",
"l c #919595",
"z c #919596",
"x c gray61",
"c c gray62",
"v c #9F9F9F",
"b c #A0A0A0",
"n c #A4A4A4",
"m c #AFAFAF",
"M c #B1B1B1",
"N c #B2B2B1",
"B c gray71",
"V c #B9B9B9",
"C c gray73",
"Z c #BBBBBB",
"A c #BDBEBD",
"S c #BEBEBD",
"D c gray75",
"F c #C0C0C0",
"G c #CECECE",
"H c gray99",
"J c #FDFDFD",
"K c None",
/* pixels */
"zSmNNNNmNNMMMSz",
"zSNNmhytyyyicSz",
"dNnnneJJHHHGaNd",
"tcfye7jhhhqDqct",
"2p3GJJHHJ8$V<p2",
"+w;D57puB>$C&w+",
"+9$VX@xgc4xa%9+",
"+7@Z;;&&m==;27+",
"+5@ikkkkko<<<4+",
"+5>======;<<<4+",
"+eqq0w0w000wwe+",
" .. .......... ",
"KKKKKKKKKKKKKKK",
"KKKKKKKKKKKKKKK",
"KKKKKKKKKKKKKKK"
};
