/* XPM */
static char *maximize_toggled_active[] = {
/* columns rows colors chars-per-pixel */
"23 23 42 1",
"  c #31393C",
". c #463D41",
"X c #484848",
"o c gray29",
"O c gray30",
"+ c #464D50",
"@ c #505050",
"# c gray32",
"$ c gray33",
"% c #5A5A5A",
"& c gray36",
"* c gray37",
"= c #595F62",
"- c gray38",
"; c gray39",
": c #676767",
"> c #686868",
", c gray42",
"< c #6A6F72",
"1 c gray44",
"2 c gray46",
"3 c #797979",
"4 c #7E7E7E",
"5 c #808080",
"6 c #8B8B8B",
"7 c gray56",
"8 c #9D9D9D",
"9 c #A5A5A5",
"0 c gray66",
"q c #B1B1B1",
"w c gray70",
"e c gray71",
"r c gray72",
"t c #BCBCBC",
"y c gray76",
"u c gray77",
"i c #C5C5C5",
"p c #CCCDCB",
"a c #CDCDCD",
"s c #D5D6D4",
"d c #DBDDD9",
"f c None",
/* pixels */
"<dqqqqqqqqqqqqqqqqqqqd<",
"<dqqqqqqqqqqqqqqqqqqqd<",
"<dqqqqqq74444444447qqd<",
"=s0000002aaaaaaaaa200s=",
"=p888888>iyiiiyiui:88a=",
"+y6674444444447%%t%66y+",
"+9332aaaaaaaaa21$r$339+",
" 511>iiyiiiiii>>@e#115 ",
" 5,>%t%&%%&%%t%OOeO,,5 ",
" 5>>$r$11,11$r$qqqX>>5 ",
" 5;;#e#>,,,,#e#XXX$;-5 ",
" 5--OqOOOOOOOqO------5 ",
" 5&-XqqqqqqqqqX&&-&&-5 ",
" 5-&#XXXXXXXXX#-&--&&5 ",
" 5&&&--&-&-&&&&--&&&-5 ",
" 5&&&&&&&&&&&&&&&&&&&5 ",
" 555555555555555555555 ",
".                     .",
"fffffffffffffffffffffff",
"fffffffffffffffffffffff",
"fffffffffffffffffffffff",
"fffffffffffffffffffffff",
"fffffffffffffffffffffff"
};
