/* XPM */
static char * hide_pressed_xpm[] = {
"26 24 43 1",
" 	c None",
".	c #592C86",
"+	c #E8E8E8",
"@	c #CBCBCB",
"#	c #CCCCCC",
"$	c #CDCDCD",
"%	c #CECECE",
"&	c #CFCFCF",
"*	c #D0D0D0",
"=	c #D1D1D1",
"-	c #D2D2D2",
";	c #D3D3D3",
">	c #D4D4D4",
",	c #D5D5D5",
"'	c #D6D6D6",
")	c #D7D7D7",
"!	c #D8D8D8",
"~	c #D9D9D9",
"{	c #DADADA",
"]	c #DBDBDB",
"^	c #DCDCDC",
"/	c #DDDDDD",
"(	c #DEDEDE",
"_	c #DFDFDF",
":	c #E0E0E0",
"<	c #E1E1E1",
"[	c #E2E2E2",
"}	c #E3E3E3",
"|	c #E4E4E4",
"1	c #E5E5E5",
"2	c #E6E6E6",
"3	c #E7E7E7",
"4	c #CACACA",
"5	c #B3B3B3",
"6	c #E9E9E9",
"7	c #EAEAEA",
"8	c #EBEBEB",
"9	c #ECECEC",
"0	c #EDEDED",
"a	c #EEEEEE",
"b	c #EFEFEF",
"c	c #F0F0F0",
"d	c #F1F1F1",
".++++++++++++++++++++++++.",
".+@#$%&**=-;>,'))!~{]^/((.",
".+#$%&**=-;>,'))!~{]^/(((.",
".+$%&**=-;>,'))!~{]^/((__.",
".+%&**=-;>,'))!~{]^/((_::.",
".+&**=-;>,'))!~{]^/((_:<<.",
".+**=-;>,'))!~{]^/((_:<[[.",
".+*=-;>,'))!~{]^/((_:<[}}.",
".+=-;>,'))!~{]^/((_:<[}||.",
".+-;>,'))!~{]^/((_:<[}|11.",
".+;>,'))!~{]^/((_:<[}|111.",
".+>,'))!~{]^/((_:<[}|1122.",
".+,'))!~{]^/((_:<[}|11233.",
".+'))!~{]^/((_:<[}|1123++.",
".+))!~{45555555555*123+66.",
".+)!~{]55555555555523+677.",
".+!~{]^5555555555553+6788.",
".+~{]^/#5555555555=+67899.",
".+{]^/((_:<[}|1123+678999.",
".+]^/((_:<[}|1123+6789900.",
".+^/((_:<[}|1123+678990aa.",
".+/((_:<[}|1123+678990abb.",
".+((_:<[}|1123+678990abcc.",
".+(_:<[}|1123+678990abcdd."};
