/* XPM */
static char * maximize_toggled_inactive_xpm[] = {
"26 24 26 1",
" 	c None",
".	c #EFEEED",
"+	c #D5D3D1",
"@	c #D4D2D0",
"#	c #D3D1CF",
"$	c #D3D1CE",
"%	c #AEAEAE",
"&	c #666666",
"*	c #D2D0CE",
"=	c #D2D0CD",
"-	c #D1CFCD",
";	c #D1CFCC",
">	c #ADADAD",
",	c #D0CECC",
"'	c #D0CECB",
")	c #CFCDCA",
"!	c #ACACAC",
"~	c #CECCCA",
"{	c #CECCC9",
"]	c #CDCBC9",
"^	c #CDCBC8",
"/	c #AAAAAA",
"(	c #CBC9C7",
"_	c #CBC9C6",
":	c #C9C7C5",
"<	c #C7C6C4",
"..........................",
"++++++++++++++++++++++++++",
"++++++++++++++++++++++++++",
"@@@@@@@@@@@@@@@@@@@@@@@@@@",
"@@@@@@@@@@@@@@@@@@@@@@@@@@",
"##########################",
"$$$$$$$$$$$%&&&&&&%$$$$$$$",
"***********&&&&&&&&*******",
"===========&&&&&&&&=======",
"------------------&-------",
";;;;;;;>&&&&&&>;;;&;;;;;;;",
",,,,,,,&&&&&&&&,,,&,,,,,,,",
"'''''''&&&&&&&&'''&'''''''",
")))))))&))))))&)&&!)))))))",
"~~~~~~~&~~~~~~&~~~~~~~~~~~",
"{{{{{{{&{{{{{{&{{{{{{{{{{{",
"]]]]]]]&]]]]]]&]]]]]]]]]]]",
"^^^^^^^/&&&&&&/^^^^^^^^^^^",
"((((((((((((((((((((((((((",
"__________________________",
"::::::::::::::::::::::::::",
"::::::::::::::::::::::::::",
"<<<<<<<<<<<<<<<<<<<<<<<<<<",
"<<<<<<<<<<<<<<<<<<<<<<<<<<"};
