/* XPM */
static char * maximize_pressed_xpm[] = {
"26 24 42 1",
" 	c None",
".	c #592C86",
"+	c #E8E8E8",
"@	c #CBCBCB",
"#	c #CCCCCC",
"$	c #CDCDCD",
"%	c #CECECE",
"&	c #CFCFCF",
"*	c #D0D0D0",
"=	c #D1D1D1",
"-	c #D2D2D2",
";	c #D3D3D3",
">	c #D4D4D4",
",	c #D5D5D5",
"'	c #D6D6D6",
")	c #D7D7D7",
"!	c #D8D8D8",
"~	c #D9D9D9",
"{	c #DADADA",
"]	c #DBDBDB",
"^	c #DCDCDC",
"/	c #DDDDDD",
"(	c #DEDEDE",
"_	c #DFDFDF",
":	c #E0E0E0",
"<	c #E1E1E1",
"[	c #B3B3B3",
"}	c #E2E2E2",
"|	c #E3E3E3",
"1	c #E4E4E4",
"2	c #E5E5E5",
"3	c #E6E6E6",
"4	c #E7E7E7",
"5	c #E9E9E9",
"6	c #EAEAEA",
"7	c #EBEBEB",
"8	c #ECECEC",
"9	c #EDEDED",
"0	c #EEEEEE",
"a	c #EFEFEF",
"b	c #F0F0F0",
"c	c #F1F1F1",
".++++++++++++++++++++++++.",
".+@#$%&**=-;>,'))!~{]^/((.",
".+#$%&**=-;>,'))!~{]^/(((.",
".+$%&**=-;>,'))!~{]^/((__.",
".+%&**=-;>,'))!~{]^/((_::.",
".+&**=-;>,'))!~{]^/((_:<<.",
".+**=-;@[[[[[[[[[[-(_:<}}.",
".+*=-;>[[[[[[[[[[[[_:<}||.",
".+=-;>,[[[[[[[[[[[[:<}|11.",
".+-;>,'[[[[[[[[[[[[<}|122.",
".+;>,')[!~{]^/((_:[}|1222.",
".+>,'))[~{]^/((_:<[|12233.",
".+,'))![{]^/((_:<}[122344.",
".+'))!~[]^/((_:<}|[2234++.",
".+))!~{[^/((_:<}|1[234+55.",
".+)!~{][/((_:<}|12[34+566.",
".+!~{]^[((_:<}|122[4+5677.",
".+~{]^/-[[[[[[[[[[~+56788.",
".+{]^/((_:<}|12234+567888.",
".+]^/((_:<}|12234+5678899.",
".+^/((_:<}|12234+56788900.",
".+/((_:<}|12234+5678890aa.",
".+((_:<}|12234+5678890abb.",
".+(_:<}|12234+5678890abcc."};
