/* XPM */
static char * maximize_active_xpm[] = {
"26 24 49 1",
" 	c None",
".	c #592C86",
"+	c #EFEEED",
"@	c #D3D1CF",
"#	c #D4D2D0",
"$	c #D5D3D1",
"%	c #D5D4D2",
"&	c #D6D4D2",
"*	c #D7D5D3",
"=	c #D8D6D4",
"-	c #D8D7D5",
";	c #D9D8D6",
">	c #DAD8D7",
",	c #DBD9D7",
"'	c #DBDAD8",
")	c #DCDBD9",
"!	c #DDDCDA",
"~	c #DEDCDB",
"{	c #DFDDDC",
"]	c #DFDEDC",
"^	c #E0DFDD",
"/	c #E1E0DE",
"(	c #E2E0DF",
"_	c #E2E1E0",
":	c #E3E2E1",
"<	c #E4E3E1",
"[	c #E5E4E2",
"}	c #E5E5E3",
"|	c #E6E5E4",
"1	c #B7A9C0",
"2	c #BDAFC7",
"3	c #E7E6E5",
"4	c #E8E7E6",
"5	c #E8E8E6",
"6	c #E9E9E7",
"7	c #EAE9E8",
"8	c #EBEAE9",
"9	c #ECEBEA",
"0	c #ECECEB",
"a	c #EDEDEB",
"b	c #EEEDEC",
"c	c #C3B6CE",
"d	c #EFEFEE",
"e	c #F0F0EF",
"f	c #F1F1F0",
"g	c #F2F1F0",
"h	c #F2F2F1",
"i	c #F3F3F2",
"j	c #F4F4F3",
".++++++++++++++++++++++++.",
".+@#$%&*=-;>,')!~{]^/(_::.",
".+#$%&*=-;>,')!~{]^/(_:<<.",
".+$%&*=-;>,')!~{]^/(_:<[[.",
".+%&*=-;>,')!~{]^/(_:<[}}.",
".+&*=-;>,')!~{]^/(_:<[}||.",
".+*=-;>1..........2<[}|33.",
".+=-;>,............[}|344.",
".+-;>,'............}|3455.",
".+;>,')............|34566.",
".+>,')!.{]^/(_:<[}.345677.",
".+,')!~.]^/(_:<[}|.456788.",
".+')!~{.^/(_:<[}|3.567899.",
".+)!~{]./(_:<[}|34.678900.",
".+!~{]^.(_:<[}|345.7890aa.",
".+~{]^/._:<[}|3456.890abb.",
".+{]^/(.:<[}|34567.90ab++.",
".+]^/(_2..........c0ab+dd.",
".+^/(_:<[}|34567890ab+dee.",
".+/(_:<[}|34567890ab+deff.",
".+(_:<[}|34567890ab+defgg.",
".+_:<[}|34567890ab+defghh.",
".+:<[}|34567890ab+defghii.",
".+<[}|34567890ab+defghijj."};
