/* XPM */
static char * menu_pressed_xpm[] = {
"26 24 49 1",
" 	c None",
".	c #000000",
"+	c #E8E8E8",
"@	c #592C86",
"#	c #CECECE",
"$	c #CFCFCF",
"%	c #D0D0D0",
"&	c #D1D1D1",
"*	c #D2D2D2",
"=	c #D3D3D3",
"-	c #D4D4D4",
";	c #D5D5D5",
">	c #D6D6D6",
",	c #D7D7D7",
"'	c #D8D8D8",
")	c #D9D9D9",
"!	c #DADADA",
"~	c #DBDBDB",
"{	c #DCDCDC",
"]	c #DDDDDD",
"^	c #DEDEDE",
"/	c #CDCDCD",
"(	c #DFDFDF",
"_	c #E0E0E0",
":	c #E1E1E1",
"<	c #E2E2E2",
"[	c #E3E3E3",
"}	c #E4E4E4",
"|	c #C5C5C5",
"1	c #B3B3B3",
"2	c #C2C2C2",
"3	c #C6C6C6",
"4	c #E5E5E5",
"5	c #C3C3C3",
"6	c #C4C4C4",
"7	c #E6E6E6",
"8	c #CACACA",
"9	c #E7E7E7",
"0	c #E9E9E9",
"a	c #EAEAEA",
"b	c #EBEBEB",
"c	c #C8C8C8",
"d	c #ECECEC",
"e	c #EDEDED",
"f	c #EEEEEE",
"g	c #EFEFEF",
"h	c #F0F0F0",
"i	c #F1F1F1",
"j	c #F2F2F2",
"   ..++++++++++++++++++++@",
"  .++#$%%&*=-;>,,')!~{]^^@",
" .+/#$%%&*=-;>,,')!~{]^^(@",
" .+#$%%&*=-;>,,')!~{]^^(_@",
".+#$%%&*=-;>,,')!~{]^^(_:@",
".+$%%&*=-;>,,')!~{]^^(_:<@",
".+%%&*=-;>,,')!~{]^^(_:<[@",
".+%&*=-;>,,')!~{]^^(_:<[}@",
".+&*=-|112')!~{]311/:<[}4@",
".+*=-;11115!~{]31111<[}44@",
".+=-;>111116{]311111[}447@",
".+-;>,21111133111118}4479@",
".+;>,,'511111111118}4479+@",
".+>,,')!6111111118}4479+0@",
".+,,')!~{31111118}4479+0a@",
".+,')!~{]^311118}4479+0ab@",
".+')!~{]^^(c118}4479+0abd@",
".+)!~{]^^(_:<[}4479+0abdd@",
".+!~{]^^(_:<[}4479+0abdde@",
".+~{]^^(_:<[}4479+0abddef@",
".+{]^^(_:<[}4479+0abddefg@",
".+]^^(_:<[}4479+0abddefgh@",
".+^^(_:<[}4479+0abddefghi@",
".+^(_:<[}4479+0abddefghij@"};
