/* XPM */
static char * menu_active_xpm[] = {
"26 24 59 1",
" 	c None",
".	c #000000",
"+	c #EFEEED",
"@	c #592C86",
"#	c #D5D4D2",
"$	c #D6D4D2",
"%	c #D7D5D3",
"&	c #D8D6D4",
"*	c #D8D7D5",
"=	c #D9D8D6",
"-	c #DAD8D7",
";	c #DBD9D7",
">	c #DBDAD8",
",	c #DCDBD9",
"'	c #DDDCDA",
")	c #DEDCDB",
"!	c #DFDDDC",
"~	c #DFDEDC",
"{	c #E0DFDD",
"]	c #E1E0DE",
"^	c #E2E0DF",
"/	c #E2E1E0",
"(	c #E3E2E1",
"_	c #E4E3E1",
":	c #D5D3D1",
"<	c #E5E4E2",
"[	c #E5E5E3",
"}	c #E6E5E4",
"|	c #E7E6E5",
"1	c #E8E7E6",
"2	c #E8E8E6",
"3	c #B7A9C1",
"4	c #B0A0BE",
"5	c #B4A4C2",
"6	c #BEB1C9",
"7	c #E9E9E7",
"8	c #5B2E87",
"9	c #B1A1BF",
"0	c #EAE9E8",
"a	c #B2A3C0",
"b	c #EBEAE9",
"c	c #B3A3C2",
"d	c #B7A7C6",
"e	c #ECEBEA",
"f	c #5A2D87",
"g	c #5A2D86",
"h	c #ECECEB",
"i	c #EDEDEB",
"j	c #EEEDEC",
"k	c #B4A5C2",
"l	c #B5A6C4",
"m	c #EFEFEE",
"n	c #F0F0EF",
"o	c #F1F1F0",
"p	c #F2F1F0",
"q	c #F2F2F1",
"r	c #F3F3F2",
"s	c #F4F4F3",
"t	c #F5F5F4",
"   ..++++++++++++++++++++@",
"  .++#$%&*=-;>,')!~{]^/(_@",
" .+:#$%&*=-;>,')!~{]^/(_<@",
" .+#$%&*=-;>,')!~{]^/(_<[@",
".+#$%&*=-;>,')!~{]^/(_<[}@",
".+$%&*=-;>,')!~{]^/(_<[}|@",
".+%&*=-;>,')!~{]^/(_<[}|1@",
".+&*=-;>,')!~{]^/(_<[}|12@",
".+*=-;3@@4!~{]^/5@@6}|127@",
".+=-;>@@@89{]^/58@@@|1270@",
".+-;>,@@@@8a^/58@@@@1270b@",
".+;>,'48@@@8c58@@@8d270be@",
".+>,')!98@@@fg@@@8d270beh@",
".+,')!~{a8@@@@@@8d270behi@",
".+')!~{]^c8@@@@8d270behij@",
".+)!~{]^/(k8@@8d270behij+@",
".+!~{]^/(_<l@@d270behij+m@",
".+~{]^/(_<[}|1270behij+mn@",
".+{]^/(_<[}|1270behij+mno@",
".+]^/(_<[}|1270behij+mnop@",
".+^/(_<[}|1270behij+mnopq@",
".+/(_<[}|1270behij+mnopqr@",
".+(_<[}|1270behij+mnopqrs@",
".+_<[}|1270behij+mnopqrst@"};
