/* XPM */
static char * right_active_xpm[] = {
"7 24 5 1",
" 	c None",
".	c #797673",
"+	c #EFEEED",
"@	c #EDECEB",
"#	c #000000",
".+@@@.#",
".+@@@.#",
".+@@@.#",
".+@@@.#",
".+@@@.#",
".+@@@.#",
".+@@@.#",
".+@@@.#",
".+@@@.#",
".+@@@.#",
".+@@@.#",
".+@@@.#",
".+@@@.#",
".+@@@.#",
".+@@@.#",
".+@@@.#",
".+@@@.#",
".+@@@.#",
".+@@@.#",
".+@@@.#",
".+@@@.#",
".+@@@.#",
".+@@@.#",
".+@@@.#"};
