/* XPM */
static char * stick_toggled_active_xpm[] = {
"26 24 47 1",
" 	c None",
".	c #592C86",
"+	c #E8E8E8",
"@	c #CBCBCB",
"#	c #CCCCCC",
"$	c #CDCDCD",
"%	c #CECECE",
"&	c #CFCFCF",
"*	c #D0D0D0",
"=	c #D1D1D1",
"-	c #D2D2D2",
";	c #D3D3D3",
">	c #D4D4D4",
",	c #D5D5D5",
"'	c #D6D6D6",
")	c #D7D7D7",
"!	c #D8D8D8",
"~	c #D9D9D9",
"{	c #DADADA",
"]	c #DBDBDB",
"^	c #DCDCDC",
"/	c #DDDDDD",
"(	c #DEDEDE",
"_	c #DFDFDF",
":	c #E0E0E0",
"<	c #E1E1E1",
"[	c #8D72A7",
"}	c #62388B",
"|	c #9076AA",
"1	c #E2E2E2",
"2	c #E3E3E3",
"3	c #62398C",
"4	c #E4E4E4",
"5	c #E5E5E5",
"6	c #E6E6E6",
"7	c #E7E7E7",
"8	c #E9E9E9",
"9	c #63398D",
"0	c #EAEAEA",
"a	c #947AAE",
"b	c #EBEBEB",
"c	c #ECECEC",
"d	c #EDEDED",
"e	c #EEEEEE",
"f	c #EFEFEF",
"g	c #F0F0F0",
"h	c #F1F1F1",
".++++++++++++++++++++++++.",
".+@#$%&**=-;>,'))!~{]^/((.",
".+#$%&**=-;>,'))!~{]^/(((.",
".+$%&**=-;>,'))!~{]^/((__.",
".+%&**=-;>,'))!~{]^/((_::.",
".+&**=-;>,'))!~{]^/((_:<<.",
".+**=-;>[}.......|((_:<11.",
".+*=-;>[..........|_:<122.",
".+=-;>,}..........3:<1244.",
".+-;>,'...~{]^/(...<12455.",
".+;>,')...{....(...124555.",
".+>,'))...]...._...245566.",
".+,'))!...^....:...455677.",
".+'))!~.../....<...5567++.",
".+))!~{...((_:<1...567+88.",
".+)!~{]3..........967+800.",
".+!~{]^|..........a7+80bb.",
".+~{]^/(|3.......a7+80bcc.",
".+{]^/((_:<1245567+80bccc.",
".+]^/((_:<1245567+80bccdd.",
".+^/((_:<1245567+80bccdee.",
".+/((_:<1245567+80bccdeff.",
".+((_:<1245567+80bccdefgg.",
".+(_:<1245567+80bccdefghh."};
