/* XPM */
static char * stick_toggled_prelight_xpm[] = {
"26 24 50 1",
" 	c None",
".	c #592C86",
"+	c #E8E8E8",
"@	c #CBCBCB",
"#	c #CCCCCC",
"$	c #CDCDCD",
"%	c #CECECE",
"&	c #CFCFCF",
"*	c #D0D0D0",
"=	c #D1D1D1",
"-	c #D2D2D2",
";	c #D3D3D3",
">	c #D4D4D4",
",	c #D5D5D5",
"'	c #D6D6D6",
")	c #D7D7D7",
"!	c #D8D8D8",
"~	c #D9D9D9",
"{	c #DADADA",
"]	c #DBDBDB",
"^	c #DCDCDC",
"/	c #DDDDDD",
"(	c #DEDEDE",
"_	c #DFDFDF",
":	c #E0E0E0",
"<	c #E1E1E1",
"[	c #CCAAED",
"}	c #C791FB",
"|	c #C68CFF",
"1	c #CFADF0",
"2	c #E2E2E2",
"3	c #D0AEF1",
"4	c #E3E3E3",
"5	c #C792FC",
"6	c #E4E4E4",
"7	c #E5E5E5",
"8	c #E6E6E6",
"9	c #E7E7E7",
"0	c #E9E9E9",
"a	c #C791FC",
"b	c #C892FD",
"c	c #EAEAEA",
"d	c #D3B1F4",
"e	c #EBEBEB",
"f	c #ECECEC",
"g	c #EDEDED",
"h	c #EEEEEE",
"i	c #EFEFEF",
"j	c #F0F0F0",
"k	c #F1F1F1",
".++++++++++++++++++++++++.",
".+@#$%&**=-;>,'))!~{]^/((.",
".+#$%&**=-;>,'))!~{]^/(((.",
".+$%&**=-;>,'))!~{]^/((__.",
".+%&**=-;>,'))!~{]^/((_::.",
".+&**=-;>,'))!~{]^/((_:<<.",
".+**=-;>[}|||||||1((_:<22.",
".+*=-;>[||||||||||3_:<244.",
".+=-;>,}||||||||||5:<2466.",
".+-;>,'|||~{]^/(|||<24677.",
".+;>,')|||{||||(|||246777.",
".+>,'))|||]||||_|||467788.",
".+,'))!|||^||||:|||677899.",
".+'))!~|||/||||<|||7789++.",
".+))!~{|||((_:<2|||789+00.",
".+)!~{]a||||||||||b89+0cc.",
".+!~{]^1||||||||||d9+0cee.",
".+~{]^/(35|||||||d9+0ceff.",
".+{]^/((_:<2467789+0cefff.",
".+]^/((_:<2467789+0ceffgg.",
".+^/((_:<2467789+0ceffghh.",
".+/((_:<2467789+0ceffghii.",
".+((_:<2467789+0ceffghijj.",
".+(_:<2467789+0ceffghijkk."};
