/* XPM */
static char * top_left_active_xpm[] = {
"8 26 4 1",
" 	c None",
".	c #000000",
"+	c #EDECEB",
"@	c #797673",
"     ...",
"   ..+++",
"  .+++++",
" .++++++",
" .++++++",
".+++++++",
".+++++++",
".+++++++",
".+++++++",
".+++++++",
".+++++++",
".+++++++",
".+++++++",
".+++++++",
".+++++++",
".+++++++",
".+++++++",
".+++++++",
".+++++++",
".+++++++",
".+++++++",
".+++++++",
".+++++++",
".+++++++",
".+++++++",
".@@@@@@@"};
