/* XPM */
static char * bottom_right_active_xpm[] = {
"7 7 2 1",
" 	c None",
".	c #E7E7E7 s active_color_2",
".......",
".......",
"...... ",
"...... ",
".....  ",
"....   ",
"..     "};
