/* XPM */
static char *maximize_prelight[] = {
/* columns rows colors chars-per-pixel */
"23 23 116 2",
"   c #31393C",
".  c #463D41",
"X  c #464D50",
"o  c gray32",
"O  c gray33",
"+  c #555555",
"@  c gray35",
"#  c #5B5B5B",
"$  c gray36",
"%  c #5D5D5D",
"&  c gray37",
"*  c #5F5F5F",
"=  c #595F62",
"-  c #656565",
";  c gray40",
":  c DimGray",
">  c #6A6F72",
",  c #717171",
"<  c gray46",
"1  c #777777",
"2  c #7E7E7E",
"3  c #7F7F7F",
"4  c #818181",
"5  c gray51",
"6  c #838383",
"7  c #8B8B8B",
"8  c gray55",
"9  c #8D8D8D",
"0  c #8E8E8E",
"q  c gray56",
"w  c #909090",
"e  c gray57",
"r  c #929292",
"t  c #939393",
"y  c gray58",
"u  c #959595",
"i  c gray59",
"p  c #989898",
"a  c gray60",
"s  c #9A9A9A",
"d  c #9B9B9B",
"f  c gray61",
"g  c #9D9D9D",
"h  c gray62",
"j  c #9F9F9F",
"k  c #A0A0A0",
"l  c gray63",
"z  c gray64",
"x  c #A4A4A4",
"c  c gray65",
"v  c #A7A7A7",
"b  c gray66",
"n  c #AAAAAA",
"m  c gray67",
"M  c #ACACAC",
"N  c gray68",
"B  c gray69",
"V  c #B1B1B1",
"C  c gray70",
"Z  c gray71",
"A  c #B6B6B6",
"S  c #B7B7B7",
"D  c #B9B9B9",
"F  c gray73",
"G  c #BBBBBB",
"H  c #BCBCBC",
"J  c gray74",
"K  c gray",
"L  c gray75",
"P  c #C0C0C0",
"I  c #C1C1C1",
"U  c #C5C5C5",
"Y  c #C6C6C6",
"T  c gray78",
"R  c #C8C8C8",
"E  c gray79",
"W  c #CACACA",
"Q  c #CBCBCB",
"!  c gray80",
"~  c #CDCDCC",
"^  c #CDCDCD",
"/  c #CECFCD",
"(  c #CECECE",
")  c #D0D0D0",
"_  c gray82",
"`  c #D2D2D2",
"'  c LightGray",
"]  c gray83",
"[  c #D5D5D5",
"{  c #D5D6D4",
"}  c gray84",
"|  c #D7D7D7",
" . c #D8D8D8",
".. c #DADADA",
"X. c gray86",
"o. c #DBDDD9",
"O. c gainsboro",
"+. c #DDDDDD",
"@. c gray87",
"#. c #DFDFDF",
"$. c gray88",
"%. c #E1E1E1",
"&. c #E2E2E2",
"*. c gray89",
"=. c #E9E9E9",
"-. c #ECECEC",
";. c gray93",
":. c #EEEEEE",
">. c #EFEFEF",
",. c gray94",
"<. c #F1F1F1",
"1. c gray95",
"2. c #F9F9F9",
"3. c gray99",
"4. c gray100",
"5. c None",
/* pixels */
"> o.V V V V V V V V V V V V V V V V V V V o.> ",
"> o.V V V V V V V V V V V V V V V V V V V o.> ",
"> o.V V V V V V V V V V V V V V V V V V V o.> ",
"= { b b b v 1 o + o + + o + + o 1 b b b b { = ",
"= ~ k j j j o 4.3.3.3.3.4.3.3.3.o k k l k ~ = ",
"X Y w u u w + 4.3.3.3.4.3.3.3.4.# p p p s E X ",
"X V 8 8 8 8 # 4.# # & & & & # 4.= r w t t A X ",
"  s 8 w w w - 4.- 8 w w w w : 4.: u u u u k   ",
"  x u u u u , 4., s s u s s 1 4.1 s s s j b   ",
"  N f f j j 2 4.2 4 2 4 4 4 4 4.6 z z x x C   ",
"  A v v v v 7 4.4.4.4.4.4.4.4.4.w M m N N G   ",
"  L B B B N z a s j s s s s j j v A S S S Y   ",
"  E D D D G G G G J J J K K K K L L L L I ~   ",
"  _ U Y Y Y T T T T E E E E E E Q Q ! ! ~ X.  ",
"  X.) ) ) ' _ ' ' ] ] ] { ] { { { | | | X.+.  ",
"  *.X.+.+.+.+.+.#.#.#.#.#.%.%.*.#.*.*.*.*.=.  ",
"  -.-.-.-.-.-.<.-.<.<.-.<.<.<.-.<.<.<.1.1.1.  ",
".                                           . ",
"5.5.5.5.5.5.5.5.5.5.5.5.5.5.5.5.5.5.5.5.5.5.5.",
"5.5.5.5.5.5.5.5.5.5.5.5.5.5.5.5.5.5.5.5.5.5.5.",
"5.5.5.5.5.5.5.5.5.5.5.5.5.5.5.5.5.5.5.5.5.5.5.",
"5.5.5.5.5.5.5.5.5.5.5.5.5.5.5.5.5.5.5.5.5.5.5.",
"5.5.5.5.5.5.5.5.5.5.5.5.5.5.5.5.5.5.5.5.5.5.5."
};
