/* XPM */
static char *maximize_toggled_prelight[] = {
/* columns rows colors chars-per-pixel */
"23 23 120 2",
"   c #31393C",
".  c #463D41",
"X  c gray29",
"o  c gray30",
"O  c #4E4E4E",
"+  c #464D50",
"@  c #515151",
"#  c gray32",
"$  c gray33",
"%  c #5B5B5B",
"&  c gray36",
"*  c #595F62",
"=  c #626262",
"-  c gray39",
";  c #646464",
":  c #656565",
">  c #676767",
",  c DimGray",
"<  c #6D6D6D",
"1  c gray43",
"2  c #6A6F72",
"3  c #727272",
"4  c gray45",
"5  c #747474",
"6  c #767676",
"7  c #777777",
"8  c gray47",
"9  c #797979",
"0  c gray49",
"q  c #7F7F7F",
"w  c #818181",
"e  c gray51",
"r  c #838383",
"t  c #848484",
"y  c gray52",
"u  c gray55",
"i  c #8D8D8D",
"p  c #8E8E8E",
"a  c gray56",
"s  c #909090",
"d  c gray57",
"f  c #929292",
"g  c #939393",
"h  c gray58",
"j  c #959595",
"k  c #979797",
"l  c #989898",
"z  c #9A9A9A",
"x  c #9B9B9B",
"c  c gray61",
"v  c #9D9D9D",
"b  c gray62",
"n  c #9F9F9F",
"m  c gray63",
"M  c #A4A4A4",
"N  c gray65",
"B  c #A7A7A7",
"V  c gray66",
"C  c #AAAAAA",
"Z  c #ACACAC",
"A  c gray68",
"S  c gray69",
"D  c #B1B1B1",
"F  c gray70",
"G  c gray71",
"H  c #B6B6B6",
"J  c #B7B7B7",
"K  c gray72",
"L  c #B9B9B9",
"P  c gray73",
"I  c #BCBCBC",
"U  c gray74",
"Y  c gray75",
"T  c #C0C0C0",
"R  c #C1C1C1",
"E  c gray76",
"W  c #C5C5C5",
"Q  c #C6C6C6",
"!  c #C8C8C8",
"~  c gray79",
"^  c #CACACA",
"/  c #CBCBCB",
"(  c gray80",
")  c #CDCDCC",
"_  c #CDCDCD",
"`  c #CECFCD",
"'  c #CECECE",
"]  c #D0D0D0",
"[  c gray82",
"{  c #D2D2D2",
"}  c LightGray",
"|  c gray83",
" . c #D5D5D5",
".. c #D5D6D4",
"X. c gray84",
"o. c #D7D7D7",
"O. c #D8D8D8",
"+. c #DADADA",
"@. c gray86",
"#. c #DBDDD9",
"$. c gainsboro",
"%. c #DDDDDD",
"&. c gray87",
"*. c #DFDFDF",
"=. c gray88",
"-. c #E1E1E1",
";. c #E2E2E2",
":. c gray89",
">. c #E9E9E9",
",. c #ECECEC",
"<. c gray93",
"1. c #EEEEEE",
"2. c #EFEFEF",
"3. c gray94",
"4. c #F1F1F1",
"5. c gray95",
"6. c #F9F9F9",
"7. c gray99",
"8. c gray100",
"9. c None",
/* pixels */
"2 #.D D D D D D D D D D D D D D D D D D D #.2 ",
"2 #.D D D D D D D D D D D D D D D D D D D #.2 ",
"2 #.D D D D D D 7 # # $ $ # $ $ # $ 7 D D #.2 ",
"* ..V V V V V B O 8.8.6.8.8.6.8.8.6.O B V ..* ",
"* ) m b b b b b X 8.8.6.6.8.6.6.8.8.X m m ) * ",
"+ Q s j e = = = = ; = = ; ; y # # 8.# z j ^ + ",
"+ D u u , 8.6.8.8.6.6.8.6.8.1 u & 8.& s s P + ",
"  z u s 1 8.8.6.6.8.8.6.8.8.4 j ; 8., j j m   ",
"  M j j 5 8.7 7 7 7 8 8 8 8.8 7 7 8.7 z b V   ",
"  Z b x 0 8.w n 0 8.8.8.y 8.e 8.8.8.e m M G   ",
"  G B B u 8.u V j u u u s 8.s s s s b Z Z Y   ",
"  Y S D z 8.z z b z b b b 8.b G G G G G G Q   ",
"  ! P P B 8.8.8.8.8.8.8.8.8.Z Y Y Y Y T E )   ",
"  { W W U G G L G L L L P P E ^ / ^ / ( ) +.  ",
"  +.) { ] { { { }  . . . .......O.O.O.O.+.*.  ",
"  -.+.&.%.%.%.&.&.&.*.*.*.=.=.-.-.-.-.-.:.>.  ",
"  <.<.<.<.<.<.<.<.2.3.2.3.3.3.3.3.3.3.5.5.5.  ",
".                                           . ",
"9.9.9.9.9.9.9.9.9.9.9.9.9.9.9.9.9.9.9.9.9.9.9.",
"9.9.9.9.9.9.9.9.9.9.9.9.9.9.9.9.9.9.9.9.9.9.9.",
"9.9.9.9.9.9.9.9.9.9.9.9.9.9.9.9.9.9.9.9.9.9.9.",
"9.9.9.9.9.9.9.9.9.9.9.9.9.9.9.9.9.9.9.9.9.9.9.",
"9.9.9.9.9.9.9.9.9.9.9.9.9.9.9.9.9.9.9.9.9.9.9."
};
