/* XPM */
static char * top_left_active_xpm[] = {
"10 25 2 1",
" 	c None",
".	c #E7E7E7 s inactive_color_2",
"     .....",
"   .......",
"  ........",
" .........",
" .........",
"..........",
"..........",
"..........",
"..........",
"..........",
"..........",
"..........",
"..........",
"..........",
"..........",
"..........",
"..........",
"..........",
"..........",
"..........",
"..........",
"..........",
"..........",
"..........",
".........."};
