/* XPM */
static char * top_right_active_xpm[] = {
"10 25 2 1",
" 	c None",
".	c #E7E7E7 s active_color_2",
".....     ",
".......   ",
"........  ",
"......... ",
"......... ",
"..........",
"..........",
"..........",
"..........",
"..........",
"..........",
"..........",
"..........",
"..........",
"..........",
"..........",
"..........",
"..........",
"..........",
"..........",
"..........",
"..........",
"..........",
"..........",
".........."};
