/* XPM */
static char *menu_prelight_png[] = {
/* columns rows colors chars-per-pixel */
"9 15 2 1",
"  c #B4B4B4",
". c None",
/* pixels */
".........",
".........",
".........",
".........",
".........",
".  ...  .",
".   .  ..",
"..    ...",
"...  ....",
".........",
".........",
".........",
".........",
".........",
"........."
};
