/* XPM */
static char * close_active_xpm[] = {
"23 23 57 1",
" 	c None",
".	c #6A6F72",
"+	c #DBDDD9",
"@	c #B1B1B1",
"#	c #DADCD8",
"$	c #6C7072",
"%	c #595F62",
"&	c #D5D6D4",
"*	c #A8A8A8",
"=	c #8F8F8F",
"-	c #7E7E7E",
";	c #D3D4D2",
">	c #696969",
",	c #CCCDCB",
"'	c #9D9D9D",
")	c #757575",
"!	c #CDCDCD",
"~	c #868686",
"{	c #CECECE",
"]	c #C9CAC9",
"^	c #464D50",
"/	c #C2C2C2",
"(	c #8B8B8B",
"_	c #686868",
":	c #C4C4C4",
"<	c #BCBCBC",
"[	c #595959",
"}	c #A5A5A5",
"|	c #797979",
"1	c #676767",
"2	c #5A5A5A",
"3	c #BBBBBB",
"4	c #BABABA",
"5	c #949494",
"6	c #31393C",
"7	c #808080",
"8	c #707070",
"9	c #5F5F5F",
"0	c #545454",
"a	c #B6B6B6",
"b	c #6B6B6B",
"c	c #5B5B5B",
"d	c #505050",
"e	c #B4B4B4",
"f	c #4D4D4D",
"g	c #B2B2B2",
"h	c #636363",
"i	c #4A4A4A",
"j	c #B0B0B0",
"k	c #616161",
"l	c #525252",
"m	c #484848",
"n	c #7F7F7F",
"o	c #463D41",
"p	c #5E5E5E",
"q	c #5C5C5C",
"r	c #645C60",
".+@@@@@@@@@@@@@@@@@@@+.",
".+@@@@@@@@@@@@@@@@@@@+.",
".+@@@@@@@@@@@@@@@@@@@#$",
"%&*****=--=*=--=*****;>",
"%,''''')!!)~){!)''''']>",
"^/(((((_:::_:::_(((((<[",
"^}|||||123333421|||||5[",
"6788888890aaa0988888876",
"67bbbbbcdeeeeedcbbbbb76",
"6711111fgggfgggf1111176",
"67hhhhhijji0ijjihhhhh76",
"67kkkkklmmlklmmlkkkkkno",
"67pppppppppppppppppppno",
"67ppppppppppppppppppqn6",
"67ppppppppppppppppppqn6",
"67qqqqqqqqqqqqqqqqqqqno",
"677777777777777777nnnor",
"o6666666666666666666or ",
"                       ",
"                       ",
"                       ",
"                       ",
"                       "};
