/* XPM */
static char * close_pressed_xpm[] = {
"23 23 50 1",
" 	c None",
".	c #6A6F72",
"+	c #DBDDD9",
"@	c #B1B1B1",
"#	c #DADCD8",
"$	c #6C7072",
"%	c #595F62",
"&	c #D5D6D4",
"*	c #A8A8A8",
"=	c #777777",
"-	c #545454",
";	c #D3D4D2",
">	c #696969",
",	c #CCCDCB",
"'	c #9D9D9D",
")	c #4E4E4E",
"!	c #707070",
"~	c #6F6F6F",
"{	c #C9CAC9",
"]	c #464D50",
"^	c #C2C2C2",
"/	c #8B8B8B",
"(	c #454545",
"_	c #BCBCBC",
":	c #595959",
"<	c #A5A5A5",
"[	c #797979",
"}	c #555555",
"|	c #3C3C3C",
"1	c #949494",
"2	c #31393C",
"3	c #808080",
"4	c #4F4F4F",
"5	c #383838",
"6	c #6B6B6B",
"7	c #4B4B4B",
"8	c #353535",
"9	c #676767",
"0	c #333333",
"a	c #636363",
"b	c #313131",
"c	c #464646",
"d	c #616161",
"e	c #444444",
"f	c #303030",
"g	c #7F7F7F",
"h	c #463D41",
"i	c #5E5E5E",
"j	c #5C5C5C",
"k	c #645C60",
".+@@@@@@@@@@@@@@@@@@@+.",
".+@@@@@@@@@@@@@@@@@@@+.",
".+@@@@@@@@@@@@@@@@@@@#$",
"%&*****=--=*=--=*****;>",
"%,''''')!!)~)!!)'''''{>",
"]^/////(!!!(!!!(/////_:",
"]<[[[[[}|!!!!!|}[[[[[1:",
"23!!!!!!45!!!54!!!!!!32",
"236666678!!!!!876666632",
"23999990!!!0!!!09999932",
"23aaaaab!!bcb!!baaaaa32",
"23dddddeffedeffedddddgh",
"23iiiiiiiiiiiiiiiiiiigh",
"23iiiiiiiiiiiiiiiiiijg2",
"23iiiiiiiiiiiiiiiiiijg2",
"23jjjjjjjjjjjjjjjjjjjgh",
"233333333333333333ggghk",
"h2222222222222222222hk ",
"                       ",
"                       ",
"                       ",
"                       ",
"                       "};
