/* XPM */
static char *hide_toggled_prelight[] = {
/* columns rows colors chars-per-pixel */
"23 23 219 2",
"   c #31393C",
".  c #346F2D",
"X  c #307E27",
"o  c #31762A",
"O  c #34702E",
"+  c #307D28",
"@  c #376932",
"#  c #376A32",
"$  c #3F663B",
"%  c #3F683A",
"&  c #3B7D34",
"*  c #3B7F34",
"=  c #427B3D",
"-  c #427D3C",
";  c #464D50",
":  c #486644",
">  c #476844",
",  c #4E664B",
"<  c #4E644C",
"1  c #4E654C",
"2  c #487843",
"3  c #487943",
"4  c #487A43",
"5  c #595F62",
"6  c DimGray",
"7  c #6A6F72",
"8  c #2E8326",
"9  c #2E8626",
"0  c #2E8E23",
"q  c #2E8C24",
"w  c #2E8D24",
"e  c #2E8E24",
"r  c #308F26",
"t  c #308E27",
"y  c #328629",
"u  c #35812C",
"i  c #35802D",
"p  c #35812D",
"a  c #35822D",
"s  c #328829",
"d  c #2F9524",
"f  c #2F9624",
"g  c #2F9724",
"h  c #2E9D23",
"j  c #2F9824",
"k  c #37952D",
"l  c #36972D",
"z  c #2EA022",
"x  c #2DA720",
"c  c #2DA621",
"v  c #2DA721",
"b  c #2DA820",
"n  c #2DA821",
"m  c #33AC26",
"M  c #33AD26",
"N  c #35BF26",
"B  c #3BB22E",
"V  c #3AB32E",
"C  c #39B52D",
"Z  c #3AB52C",
"A  c #3AB52D",
"S  c #39B62C",
"D  c #37BA29",
"F  c #37BB29",
"G  c #37BA2A",
"H  c #37BB2A",
"J  c #36BC28",
"K  c #36BC29",
"L  c #37BC29",
"P  c #38B92A",
"I  c #38B92B",
"U  c #3DAC31",
"Y  c #3CAE30",
"T  c #3CAF30",
"R  c #3CAE31",
"E  c #3DAC32",
"W  c #41A736",
"Q  c #41A737",
"!  c #40A935",
"~  c #40AA35",
"^  c #45A13B",
"/  c #44A23A",
"(  c #45A23B",
")  c #43A439",
"_  c #43A539",
"`  c #48A03F",
"'  c #42BF35",
"]  c #44BC37",
"[  c #46BA3A",
"{  c #49B83E",
"}  c #34C025",
"|  c #34C125",
" . c #34C224",
".. c #34C225",
"X. c #34C026",
"o. c #35C026",
"O. c #34C126",
"+. c #35C027",
"@. c #34C226",
"#. c #36CB26",
"$. c #37CA27",
"%. c #36CB27",
"&. c #35CC24",
"*. c #35CC25",
"=. c #35CD25",
"-. c #35CC26",
";. c #3DC32F",
":. c #3BC52E",
">. c #37CA28",
",. c #39C82A",
"<. c #40C132",
"1. c #4A9D41",
"2. c #499E40",
"3. c #4F9947",
"4. c #4D9C45",
"5. c #4E9C45",
"6. c #55974E",
"7. c #55974F",
"8. c #54994C",
"9. c #54994D",
"0. c #5E9957",
"q. c #5D9A57",
"w. c #5F975A",
"e. c #5F9859",
"r. c #60935B",
"t. c #62915D",
"y. c #52AE48",
"u. c #54AC4B",
"i. c #56AA4E",
"p. c #4DB343",
"a. c #4BB640",
"s. c #50B145",
"d. c #5BA553",
"f. c #5DA356",
"g. c #58A850",
"h. c #5FA158",
"j. c #6D836B",
"k. c #6C846A",
"l. c #709F6B",
"z. c #6EA169",
"x. c #79B673",
"c. c #7DB577",
"v. c #71E265",
"b. c #72E266",
"n. c #73E367",
"m. c #73E368",
"M. c #7CE470",
"N. c #7EE574",
"B. c #80AB7C",
"V. c #83A97F",
"C. c #82AA7E",
"Z. c #87E77D",
"A. c #92AF8F",
"S. c #8FB08C",
"D. c #8FB18C",
"F. c #9DB69B",
"G. c #9EB69B",
"H. c #A0B59E",
"J. c #A1B59F",
"K. c #A1B5A0",
"L. c #A6B3A4",
"P. c #A6B3A5",
"I. c #A7B3A5",
"U. c #A7B3A6",
"Y. c #A5B4A4",
"T. c #A8B3A7",
"R. c #ACB2AB",
"E. c #ADB0AC",
"W. c #ADB1AC",
"Q. c #ADB1AD",
"!. c #ACB2AC",
"~. c #AEB1AE",
"^. c #93C78E",
"/. c #98C793",
"(. c #A3CF9E",
"). c #8AE780",
"_. c #92E988",
"`. c #92E989",
"'. c #93E98A",
"]. c #93E98B",
"[. c #94E98C",
"{. c #95E98D",
"}. c #9DEB95",
"|. c #9EEB96",
" X c #A1EC99",
".X c #A8CEA3",
"XX c #B3D5AF",
"oX c #B8D5B4",
"OX c #A8ECA1",
"+X c #A9ECA2",
"@X c #A9EDA2",
"#X c #AAECA2",
"$X c #AAECA3",
"%X c #ACEEA5",
"&X c #B2EEAC",
"*X c #B3EEAD",
"=X c #B4EEAE",
"-X c #B5EEAF",
";X c #B4F0AE",
":X c #B6EEB0",
">X c #BFF2BA",
",X c #C1DBBD",
"<X c #C6DCC2",
"1X c #CBDCC7",
"2X c #D0DCCD",
"3X c #D4DCD2",
"4X c #D7DCD5",
"5X c #C8F2C4",
"6X c #C9F2C5",
"7X c #CAF2C6",
"8X c #CBF2C7",
"9X c #CBF4C6",
"0X c #CDF5C9",
"qX c #D3F4CF",
"wX c #D3F4D0",
"eX c #D5F4D1",
"rX c #D5F4D2",
"tX c #D6F4D3",
"yX c None",
/* pixels */
"7 4X~.~.~.~.~.~.~.~.~.~.T.E.E.E.T.~.~.T.~.3X7 ",
"7 2XT.T.T.T.U.U.U.U.U.U.U.U.L.U.L.L.Y.Y.Y.1X7 ",
"7 <XK.J.J.G.J.G.k.< < < < < < < < < j.F.G.,X7 ",
"5 oXA.A.A.A.A.A.: rXrXrXeXeXeXeXqXwX: A.D.XX5 ",
"5 .XV.V.V.V.V.V.$ 0X8X8X7X7X7X5X5X9X% c.B.(.5 ",
"; /.l.l.t.2 2 2 3 3 3 4 4 4 w.# # >X# z.z.^.; ",
"; c.e.w.= -X-X:X:X&X&X&X&X&X= 0.O ;XO q.e.x.; ",
"  h.7.7.& %X#X#X$X$X#X#XOX#X& 8.o #Xo 8.8.f.  ",
"  d.3.8.i  Xi i i i i i i }.i X X }.X 4.4.g.  ",
"  i.2.1.y {.y 2.8 ].].].s ].s ]._.].8 ` ` u.  ",
"  y./ / t ).t / k q q q r Z.r 0 w w k / _ s.  ",
"  p.Q Q f N.f f g g g g j M.j ~ ~ ~ ~ E ~ {   ",
"  { U U h m.m.m.v.v.m.v.v.v.z R T B R Y R [   ",
"  ] V V m c c b c c c c b b M A A A A A A <.  ",
"  ' P P P P P P P P F F F F F F L L L N L ;.  ",
"  :.N N N N O.O.O.O.O.O.O.O.O.O.O.O.O.O.O.,.  ",
"  #.#.,.#.#.>.#.#.#.>.-.#.#.-.-.-.-.-.-.-.&.  ",
"6                                           6 ",
"yXyXyXyXyXyXyXyXyXyXyXyXyXyXyXyXyXyXyXyXyXyXyX",
"yXyXyXyXyXyXyXyXyXyXyXyXyXyXyXyXyXyXyXyXyXyXyX",
"yXyXyXyXyXyXyXyXyXyXyXyXyXyXyXyXyXyXyXyXyXyXyX",
"yXyXyXyXyXyXyXyXyXyXyXyXyXyXyXyXyXyXyXyXyXyXyX",
"yXyXyXyXyXyXyXyXyXyXyXyXyXyXyXyXyXyXyXyXyXyXyX"
};
