/* XPM */
static char *maximize_prelight[] = {
/* columns rows colors chars-per-pixel */
"23 23 196 2",
"   c #31393C",
".  c #33762C",
"X  c #317C29",
"o  c #317D29",
"O  c #317F29",
"+  c #33782C",
"@  c #3E6D39",
"#  c #367030",
"$  c #367130",
"%  c #367031",
"&  c #367230",
"*  c #3D7038",
"=  c #464D50",
"-  c #456F41",
";  c #466D42",
":  c #4D6A49",
">  c #4C6B49",
",  c #4C6C49",
"<  c #595F62",
"1  c DimGray",
"2  c #6A6F72",
"3  c #2F8526",
"4  c #2F8427",
"5  c #2F8527",
"6  c #2F8626",
"7  c #2F8627",
"8  c #2E8C25",
"9  c #2E8E24",
"0  c #2E9423",
"q  c #2E9523",
"w  c #2E9622",
"e  c #2E9623",
"r  c #359C2B",
"t  c #359E2A",
"y  c #35BF26",
"u  c #3AB32D",
"i  c #3BB22E",
"p  c #3AB32E",
"a  c #39B52D",
"s  c #3AB52C",
"d  c #3AB42D",
"f  c #3AB52D",
"g  c #39B62C",
"h  c #3AB42E",
"j  c #37BA29",
"k  c #37BB29",
"l  c #37BA2A",
"z  c #37BB2A",
"x  c #36BC28",
"c  c #36BC29",
"v  c #37BC29",
"b  c #38B92A",
"n  c #38B92B",
"m  c #3DAC31",
"M  c #3DAD31",
"N  c #3CAE30",
"B  c #3CAF30",
"V  c #3CAE31",
"C  c #3DAC32",
"Z  c #3DAD32",
"A  c #41A736",
"S  c #41A737",
"D  c #40A935",
"F  c #40AA35",
"G  c #45A13B",
"H  c #44A23A",
"J  c #44A23B",
"K  c #45A23B",
"L  c #43A439",
"P  c #43A539",
"I  c #44A439",
"U  c #44A43A",
"Y  c #48A03F",
"T  c #42BF35",
"R  c #44BC37",
"E  c #46BA3A",
"W  c #49B83E",
"Q  c #34C025",
"!  c #34C125",
"~  c #34C224",
"^  c #34C225",
"/  c #34C026",
"(  c #35C026",
")  c #34C126",
"_  c #35C027",
"`  c #34C226",
"'  c #36CB26",
"]  c #37CA27",
"[  c #36CB27",
"{  c #35CC24",
"}  c #35CC25",
"|  c #35CD25",
" . c #35CC26",
".. c #3DC32F",
"X. c #3BC52E",
"o. c #37CA28",
"O. c #39C82A",
"+. c #40C132",
"@. c #4A9D41",
"#. c #489F40",
"$. c #499E41",
"%. c #4F9947",
"&. c #4E9B46",
"*. c #4F9A47",
"=. c #4E9B47",
"-. c #4D9C45",
";. c #4E9C45",
":. c #4E9C46",
">. c #55974E",
",. c #55974F",
"<. c #54994C",
"1. c #54994D",
"2. c #54984E",
"3. c #55984E",
"4. c #5D9957",
"5. c #5D9A57",
"6. c #5F975A",
"7. c #5E9958",
"8. c #5F9859",
"9. c #52AE48",
"0. c #54AC4B",
"q. c #56AA4E",
"w. c #4DB343",
"e. c #4BB640",
"r. c #50B145",
"t. c #5BA553",
"y. c #5DA356",
"u. c #58A850",
"i. c #5FA158",
"p. c #698766",
"a. c #688964",
"s. c #709F6B",
"d. c #6EA169",
"f. c #70A06B",
"g. c #79B673",
"h. c #7DB577",
"j. c #80AB7C",
"k. c #81AA7D",
"l. c #83A97F",
"z. c #87E77D",
"x. c #88E77E",
"c. c #89E77F",
"v. c #92AF8F",
"b. c #8FB08C",
"n. c #8FB18C",
"m. c #9DB69B",
"M. c #9EB69B",
"N. c #9EB59C",
"B. c #9FB59D",
"V. c #A0B59E",
"C. c #A1B59F",
"Z. c #A1B5A0",
"A. c #A6B3A4",
"S. c #A6B3A5",
"D. c #A7B3A5",
"F. c #A7B3A6",
"G. c #A5B4A4",
"H. c #A8B3A7",
"J. c #ACB2AB",
"K. c #ADB0AC",
"L. c #ADB1AC",
"P. c #ADB1AD",
"I. c #ACB2AC",
"U. c #AEB1AE",
"Y. c #93C78E",
"T. c #98C793",
"R. c #A3CF9E",
"E. c #8AE780",
"W. c #93E98A",
"Q. c #95E98C",
"!. c #9DEB95",
"~. c #A0EC98",
"^. c #A8CEA3",
"/. c #B3D5AF",
"(. c #B8D5B4",
"). c #A9EDA2",
"_. c #ACEEA5",
"`. c #B4F0AE",
"'. c #B7F0B1",
"]. c #BEF0B8",
"[. c #BEF0B9",
"{. c #BFF0BA",
"}. c #C1DBBD",
"|. c #C0F0BB",
" X c #C0F2BB",
".X c #C2F2BD",
"XX c #C6DCC2",
"oX c #CBDCC7",
"OX c #D0DCCD",
"+X c #D4DCD2",
"@X c #D7DCD5",
"#X c #C8F2C4",
"$X c #C9F2C5",
"%X c #CAF2C6",
"&X c #CBF2C7",
"*X c None",
/* pixels */
"2 @XU.U.U.U.U.U.U.U.I.I.U.I.K.K.K.J.J.J.J.+X2 ",
"2 OXH.H.H.D.D.D.D.D.D.D.D.D.G.D.A.A.A.G.G.oX2 ",
"2 XXZ.C.C.B.B.C.B.B.B.B.B.B.N.N.N.N.N.N.m.(.2 ",
"< (.v.v.v.v.p.: > > > > > > > > a.b.b.v.b./.< ",
"< ^.l.l.l.l.; &X&X&X&X&X&X&X#X#X; l.j.h.l.R.< ",
"= T.s.s.s.f.@ .X.X{.[.{.[.[.[.{.* f.d.d.d.Y.= ",
"= h.8.6.8.8.# '.# # # # # & # `.. 8.5.5.5.g.= ",
"  i.,.,.,.,.. _.. 1.2.1.1.1.+ ).+ 1.1.1.<.y.  ",
"  t.%.<.*.*.o ~.o =.=.=.=.=.O !.4 <.-.=.-.q.  ",
"  q.@.@.@.@.4 Q.5 5 7 7 7 7 7 W.7 #.J @.Y 0.  ",
"  9.G J J J 8 E.E.x.E.z.z.z.z.z.8 P U P P r.  ",
"  w.C P D P r 0 0 0 0 0 w w 0 0 r D D S D W   ",
"  W m m C C C N N N C N i N N N i i N i i E   ",
"  R u u u u p p i u u u u d d d d d h h d +.  ",
"  n n n b n n l n b l l l l v b v v v x x ..  ",
"  X.y y ^ _ x ^ y ^ ^ ^ ^ ^ ^ ^ ` _ ^ ^ ^ O.  ",
"  O.o.o.o.o.o.| | o.o.| | o.[ [ [ | [ | [ |   ",
"1                                           1 ",
"*X*X*X*X*X*X*X*X*X*X*X*X*X*X*X*X*X*X*X*X*X*X*X",
"*X*X*X*X*X*X*X*X*X*X*X*X*X*X*X*X*X*X*X*X*X*X*X",
"*X*X*X*X*X*X*X*X*X*X*X*X*X*X*X*X*X*X*X*X*X*X*X",
"*X*X*X*X*X*X*X*X*X*X*X*X*X*X*X*X*X*X*X*X*X*X*X",
"*X*X*X*X*X*X*X*X*X*X*X*X*X*X*X*X*X*X*X*X*X*X*X"
};
