/* XPM */
static char * menu_active_xpm[] = {
"14 23 2 1",
" 	c None",
".	c #808080",
"              ",
"              ",
"              ",
"              ",
"              ",
"              ",
"              ",
"  .       .   ",
" ...     ...  ",
" ....   ....  ",
"  .... ....   ",
"   .......    ",
"    .....     ",
"     ...      ",
"              ",
"              ",
"              ",
"              ",
"              ",
"              ",
"              ",
"              ",
"              "};
