/* XPM */
static char *close_pressed_png[] = {
/* columns rows colors chars-per-pixel */
"15 15 56 1",
"  c #403E42",
". c #3A4144",
"X c #444444",
"o c gray29",
"O c gray30",
"+ c gray31",
"@ c #534B4F",
"# c #4C5254",
"$ c #4F5355",
"% c #535355",
"& c gray33",
"* c #555555",
"= c #585456",
"- c #5B5457",
"; c #5A5A5A",
": c gray37",
"> c #5B6062",
", c #5F6162",
"< c #606060",
"1 c gray38",
"2 c #626262",
"3 c gray39",
"4 c #656565",
"5 c #676767",
"6 c #686868",
"7 c #6A6A6A",
"8 c gray42",
"9 c #6C6B6B",
"0 c #6C6C6C",
"q c #6D6D6D",
"w c gray44",
"e c #727272",
"r c gray46",
"t c #74797B",
"y c #7C7C7C",
"u c #7E7E7E",
"i c #7F7F7F",
"p c #838383",
"a c #838788",
"s c #898989",
"d c #8D8D8C",
"f c #8E8E8E",
"g c #919595",
"h c #929595",
"j c #919596",
"k c gray61",
"l c gray62",
"z c #A4A4A4",
"x c gray68",
"c c #AEAEAE",
"v c gray69",
"b c #B1B1B1",
"n c #B2B2B1",
"m c #BDBEBD",
"M c #BEBEBD",
"N c None",
/* pixels */
"jMvnvnvnnnvvnMj",
"jMnnvxxvccvnvmj",
"anzzs13p22szznd",
"tlffw40;84wffki",
">irr0O3w2Oqrry,",
"#e09,o708o,87e#",
"#q44%11X22@44q#",
"#71<&XX%XX*117=",
"#6:::::::::::7%",
"#6:::::::::::4$",
"#rwweqqeeqeee7-",
" ............@N",
"NNNNNNNNNNNNNNN",
"NNNNNNNNNNNNNNN",
"NNNNNNNNNNNNNNN"
};
