/* XPM */
static char *hide_toggled_prelight_png[] = {
/* columns rows colors chars-per-pixel */
"15 15 101 2",
"   c #444448",
".  c #454548",
"X  c #474E51",
"o  c #474F51",
"O  c #484F51",
"+  c #595E60",
"@  c #5B6062",
"#  c #5E6365",
"$  c #606567",
"%  c #626769",
"&  c #62686A",
"*  c #64696B",
"=  c #646A6C",
"-  c #676C6E",
";  c #696E70",
":  c #6C7173",
">  c #6E7375",
",  c #747474",
"<  c #767676",
"1  c #777777",
"2  c #717678",
"3  c #73787A",
"4  c #767A7C",
"5  c #777B7D",
"6  c gray47",
"7  c #7C7C7C",
"8  c #7E7E7E",
"9  c #7F7F7F",
"0  c #808080",
"q  c #818181",
"w  c #838383",
"e  c gray53",
"r  c #838789",
"t  c #888888",
"y  c #898989",
"u  c gray55",
"i  c #8E8E8E",
"p  c gray56",
"a  c #909090",
"s  c #939393",
"d  c #919595",
"f  c #919596",
"g  c #959595",
"h  c gray59",
"j  c #979797",
"k  c gray60",
"l  c #9A9A9A",
"z  c #9B9B9B",
"x  c gray62",
"c  c #A0A0A0",
"v  c #A4A4A4",
"b  c gray65",
"n  c #A7A7A7",
"m  c gray66",
"M  c gray67",
"N  c #ACACAC",
"B  c gray68",
"V  c #AFAFAF",
"C  c gray69",
"Z  c #B1B1B1",
"A  c #B2B2B2",
"S  c gray70",
"D  c #B4B4B4",
"F  c gray71",
"G  c #BBBBBB",
"H  c #BDBEBD",
"J  c #BEBEBD",
"K  c gray",
"L  c gray75",
"P  c #C3C3C3",
"I  c #C5C5C5",
"U  c #C6C6C6",
"Y  c gray78",
"T  c #C8C8C8",
"R  c #CACACA",
"E  c #CBCBCB",
"W  c #CDCDCD",
"Q  c gray81",
"!  c #D0D0D0",
"~  c gray82",
"^  c #D2D2D2",
"/  c LightGray",
"(  c gray83",
")  c #D5D5D5",
"_  c #D7D7D7",
"`  c #D8D8D8",
"'  c gray85",
"]  c #DADADA",
"[  c gray86",
"{  c #DDDDDD",
"}  c #E6E6E6",
"|  c #E7E7E7",
" . c gray91",
".. c #E9E9E9",
"X. c #EAEAEA",
"o. c gray92",
"O. c #ECECEC",
"+. c #FBFBFB",
"@. c gray99",
"#. c #FDFDFD",
"$. c None",
/* pixels */
"f J C A C A A C A A A A C J f ",
"f J A A A u 6 1 6 6 1 7 c J f ",
"r A v v v 1 #.@.#.+.+.W q S r ",
"4 v a q 9 , k k k k q T 9 m 4 ",
"$ h 0 _ @.#.@.@.#.y 1 T q z = ",
"+ k t ^ h h b v W p e Q u c @ ",
"$ b h ) f h T J U m R G z B # ",
"% S n { N B M N ` C C A F J = ",
"- P G Q ' ' ' { ' J U U U E ; ",
": ( ^ ^ ^ ^ ) ^ ) ) ) ` ` [ > ",
"2 } } } } }  . . . . .O.O.O.4 ",
"  X X X X X X X O O O O o o . ",
"$.$.$.$.$.$.$.$.$.$.$.$.$.$.$.",
"$.$.$.$.$.$.$.$.$.$.$.$.$.$.$.",
"$.$.$.$.$.$.$.$.$.$.$.$.$.$.$."
};
