/* XPM */
static char *hide_prelight_png[] = {
/* columns rows colors chars-per-pixel */
"15 15 56 1",
"  c #474E51",
". c #474F51",
"X c #5E575A",
"o c #595C5D",
"O c #5C6163",
"+ c #606567",
"@ c #606668",
"# c #6E676A",
"$ c #656A6C",
"% c #696B6C",
"& c #706C6E",
"* c #696E70",
"= c #6E7375",
"- c #707072",
"; c #727577",
": c #727779",
"> c #777C7E",
", c #818281",
"< c #848889",
"1 c #8D8E8D",
"2 c #909090",
"3 c #939393",
"4 c #919595",
"5 c #929595",
"6 c #919596",
"7 c gray58",
"8 c #979797",
"9 c gray61",
"0 c #9D9D9D",
"q c gray62",
"w c #9F9F9F",
"e c gray64",
"r c gray66",
"t c #AAAAAA",
"y c #ACACAC",
"u c #AFAFAF",
"i c gray69",
"p c #B1B1B1",
"a c #B5B5B4",
"s c #B5B6B5",
"d c #B7B7B7",
"f c gray72",
"g c #BCBCBC",
"h c #BDBEBD",
"j c #BEBEBD",
"k c gray75",
"l c gray78",
"z c #CACACA",
"x c #D2D1D1",
"c c #D7D7D7",
"v c #D8D8D8",
"b c #DADADA",
"n c #E9E9E9",
"m c #EAEAEA",
"M c #FEFEFE",
"N c None",
/* pixels */
"6jpppppppppppj6",
"6jpppppppypppj6",
"1arrrrrrrrrtts<",
",twwwwwwwwwwwt>",
"%877778878878w*",
"Oeew2777363wweO",
"@ptrlMMMMMkrtiO",
"&jfsyfffffiffg$",
"-zlllllllllllz%",
";bvccbvvvcccbb=",
"#xnnnnnnnnnnnn:",
"NX  ... ... ..o",
"NNNNNNNNNNNNNNN",
"NNNNNNNNNNNNNNN",
"NNNNNNNNNNNNNNN"
};
