/* XPM */
static char *maximize_pressed_png[] = {
/* columns rows colors chars-per-pixel */
"15 15 46 1",
"  c #3F3F42",
". c #3A4144",
"X c #434343",
"o c #444444",
"O c #484848",
"+ c #494949",
"@ c gray30",
"# c gray31",
"$ c #4C5254",
"% c #505050",
"& c gray32",
"* c #535353",
"= c gray34",
"- c gray35",
"; c gray37",
": c #5F5F5F",
"> c #5B6062",
", c gray38",
"< c gray39",
"1 c #656565",
"2 c #676767",
"3 c #686868",
"4 c #6A6A6A",
"5 c gray42",
"6 c #6C6C6C",
"7 c #6D6D6D",
"8 c gray44",
"9 c #727272",
"0 c gray46",
"q c #74797B",
"w c #7F7F7F",
"e c #838788",
"r c #888888",
"t c #8E8E8E",
"y c #919595",
"u c #919596",
"i c gray62",
"p c #A4A4A4",
"a c gray68",
"s c #AEAEAE",
"d c gray69",
"f c #B1B1B1",
"g c #B2B2B1",
"h c #BDBEBD",
"j c #BEBEBD",
"k c None",
/* pixels */
"ujgdggdggggffhu",
"ujgdaaaaaassfhu",
"egpi<;;;;;<ipfe",
"qitr-66667-rtiq",
";w08&+&&&+&80w>",
"$962#O121O#279$",
"$71,@=#$#=@,17$",
"$6,;oXXXooo;;6$",
"$2;;;;;;;;;;;3$",
"$2;;;;;;;;;;;3$",
"$0888888888880$",
" ............. ",
"kkkkkkkkkkkkkkk",
"kkkkkkkkkkkkkkk",
"kkkkkkkkkkkkkkk"
};
