/* XPM */
static char *maximize_prelight_png[] = {
/* columns rows colors chars-per-pixel */
"15 15 94 2",
"   c #444448",
".  c #454548",
"X  c #474E51",
"o  c #474F51",
"O  c #484F51",
"+  c #595E60",
"@  c #5B6062",
"#  c #5E6365",
"$  c #606567",
"%  c #626769",
"&  c #62686A",
"*  c #64696B",
"=  c #646A6C",
"-  c #676C6E",
";  c #696E70",
":  c #6C7173",
">  c #6E7375",
",  c gray45",
"<  c #747474",
"1  c #717678",
"2  c #73787A",
"3  c #767A7C",
"4  c #777B7D",
"5  c #7C7C7C",
"6  c gray52",
"7  c gray53",
"8  c #838789",
"9  c gray54",
"0  c #8E8E8E",
"q  c #909090",
"w  c #929292",
"e  c #939393",
"r  c #919595",
"t  c #919596",
"y  c gray58",
"u  c #959595",
"i  c gray59",
"p  c #979797",
"a  c gray60",
"s  c #9A9A9A",
"d  c #9B9B9B",
"f  c gray62",
"g  c #9F9F9F",
"h  c #A0A0A0",
"j  c gray63",
"k  c #A4A4A4",
"l  c #A5A5A5",
"z  c gray65",
"x  c #A7A7A7",
"c  c gray66",
"v  c #A9A9A9",
"b  c gray68",
"n  c #AEAEAE",
"m  c #AFAFAF",
"M  c gray69",
"N  c #B1B1B1",
"B  c #B2B2B2",
"V  c gray70",
"C  c #B4B4B4",
"Z  c #B6B6B6",
"A  c gray73",
"S  c #BBBBBB",
"D  c #BCBCBC",
"F  c gray74",
"G  c #BDBEBD",
"H  c #BEBEBD",
"J  c gray",
"K  c #C0C0C0",
"L  c #C1C1C1",
"P  c gray76",
"I  c #C3C3C3",
"U  c gray77",
"Y  c #C5C5C5",
"T  c #C6C6C6",
"R  c #CBCBCB",
"E  c gray80",
"W  c #D2D2D2",
"Q  c LightGray",
"!  c gray83",
"~  c #D5D5D5",
"^  c gray84",
"/  c #D7D7D7",
"(  c #D8D8D8",
")  c gray86",
"_  c #E6E6E6",
"`  c #E7E7E7",
"'  c gray91",
"]  c #E9E9E9",
"[  c #EAEAEA",
"{  c gray92",
"}  c #ECECEC",
"|  c #EEEEEE",
" . c gray95",
".. c None",
/* pixels */
"t H B M B B M B B B M B B H t ",
"t H B M b b b b b b b M B D t ",
"8 B k g 5 i i i p i 5 h k V 8 ",
"3 k i q g  .} } }  .h e s c 4 ",
"% i 0 9 k 6 , < < 7 x 0 e d - ",
"+ p i e b i e y i p B p d j + ",
"# k j h A R D H J E J k c b # ",
"& C B b c B B B C C b C C S - ",
"- I K K K K I I T I T T T R ; ",
": ! W ! ! ! ! ! / ! ( ( ( ) : ",
"1 _ _ _ _ _ ' ' [ ' [ [ { } 2 ",
"  o o o o o o o o O O O O O . ",
"..............................",
"..............................",
".............................."
};
