/* XPM */
static char *close_prelight_png[] = {
/* columns rows colors chars-per-pixel */
"15 15 70 1",
"  c #454447",
". c #474E51",
"X c #474F51",
"o c #5E575A",
"O c #5A5F61",
"+ c #5F6466",
"@ c #6E676A",
"# c #63686A",
"$ c #63696B",
"% c #67696A",
"& c #6F6B6D",
"* c #686D6F",
"= c #6F6F71",
"- c #6D7274",
"; c #717476",
": c #727779",
"> c #767B7C",
", c gray47",
"< c #7C7C7C",
"1 c #808080",
"2 c #818181",
"3 c gray52",
"4 c #838789",
"5 c #898989",
"6 c #8B8B8B",
"7 c gray55",
"8 c #8D8D8C",
"9 c gray56",
"0 c #909090",
"q c gray57",
"w c #929292",
"e c #919595",
"r c #929595",
"t c #919596",
"y c gray59",
"u c #989898",
"i c gray61",
"p c #9D9D9D",
"a c gray63",
"s c #A4A4A4",
"d c #A5A5A5",
"f c gray65",
"g c #A9A9A9",
"h c #ACACAC",
"j c gray68",
"k c #AEAEAE",
"l c #AFAFAF",
"z c gray69",
"x c #B1B1B1",
"c c #B2B2B2",
"v c #B3B3B2",
"b c #B4B4B4",
"n c gray72",
"m c #BDBEBD",
"M c #BEBEBD",
"N c #C3C3C3",
"B c gray78",
"V c gray81",
"C c #D1CFD0",
"Z c #D5D5D5",
"A c #D8D8D8",
"S c #DADADA",
"D c gray89",
"F c #E7E7E7",
"G c gray91",
"H c #E9E9E9",
"J c gray92",
"K c gray95",
"L c gray99",
"P c None",
/* pixels */
"tMvlvvlvlvlvlMt",
"tMzvlhlllllvzMt",
"4vff6613265ffb6",
">fyu<VF9DZ<uus1",
"$u995,SLS,599y%",
"Opuu9qJKHqquupO",
"+gfsuDDaDDuffg+",
"$nbbhlhllllbbb&",
"*BNNNNNNNNNNNB=",
"-AZZZZZZZZZZZA;",
":HHHHHHHGGHGHC@",
" ............oP",
"PPPPPPPPPPPPPPP",
"PPPPPPPPPPPPPPP",
"PPPPPPPPPPPPPPP"
};
