/* XPM */
static char *hide_active_png[] = {
/* columns rows colors chars-per-pixel */
"15 15 46 1",
"  c #3A4144",
". c #534B4F",
"X c #4C5254",
"o c #4F5355",
"O c #535355",
"+ c #585456",
"@ c #5B5457",
"# c #545859",
"$ c #585858",
"% c gray37",
"& c #5B6062",
"* c #5F6162",
"= c #606060",
"- c gray38",
"; c gray39",
": c #646464",
"> c #656565",
", c #676767",
"< c #686868",
"1 c #6A6A6A",
"2 c #6C6B6B",
"3 c #6C6C6C",
"4 c #6D6D6D",
"5 c gray44",
"6 c #727272",
"7 c gray46",
"8 c #74797B",
"9 c gray47",
"0 c #7C7C7C",
"q c #7E7E7E",
"w c #7F7F7F",
"e c #838788",
"r c #8D8D8C",
"t c #8E8E8E",
"y c #919595",
"u c #929595",
"i c #919596",
"p c gray61",
"a c gray62",
"s c #A4A4A4",
"d c #B1B1B1",
"f c #B2B2B1",
"g c #B2B2B2",
"h c #BDBEBD",
"j c #BEBEBD",
"k c None",
/* pixels */
"ijdddddddddddji",
"ijdddddddddddji",
"rdsssssssssssde",
"qpttttttttttta8",
"*077777777777q&",
"X631=:::>>=146X",
"X4>>9ddddg9->4X",
"+1--$%%%%%$*-1X",
"O1%%%%%%%%%%%<X",
"o>%%%%%%%%%%%1X",
"+2465556555547o",
"k.            #",
"kkkkkkkkkkkkkkk",
"kkkkkkkkkkkkkkk",
"kkkkkkkkkkkkkkk"
};
