/* XPM */
static char * top_right_active_xpm[] = {
"6 15 2 1",
" 	c None",
".	c #E7E7E7 s active_color_2",
"...   ",
"....  ",
"..... ",
"......",
"......",
"......",
"......",
"......",
"......",
"......",
"......",
"......",
"......",
"......",
"......"};
