/* XPM */
static char * top_left_active_xpm[] = {
"6 15 2 1",
" 	c None",
".	c #E7E7E7 s inactive_color_2",
"   ...",
"  ....",
" .....",
"......",
"......",
"......",
"......",
"......",
"......",
"......",
"......",
"......",
"......",
"......",
"......"};
