/* XPM */
static char *close_prelight[] = {
/* columns rows colors chars-per-pixel */
"23 23 116 2",
"   c #31393C",
".  c #7E433F",
"X  c #7F433F",
"o  c #463D41",
"O  c #464D50",
"+  c gray35",
"@  c #7A4945",
"#  c #764F4C",
"$  c #774F4C",
"%  c #725351",
"&  c #595F62",
"*  c #645C60",
"=  c DimGray",
"-  c #6A6F72",
";  c #6C7072",
":  c #86423D",
">  c #90423C",
",  c #90433C",
"<  c #9A433C",
"1  c #9B433C",
"2  c #A5443C",
"3  c #B0453D",
"4  c #9C4E48",
"5  c #8F544F",
"6  c #94504B",
"7  c #95504B",
"8  c #AE4D46",
"9  c #B74D45",
"0  c #B35C56",
"q  c #B45C56",
"w  c #BB5952",
"e  c #BA5A52",
"r  c #AD605A",
"t  c #AE605A",
"y  c #A8645F",
"u  c #A9645F",
"i  c #906865",
"p  c #8F706E",
"a  c #A76B67",
"s  c #A66C67",
"d  c #B96B65",
"f  c #B26E68",
"g  c #B26E69",
"h  c #AB7B77",
"j  c #AC7A76",
"k  c #AC7A77",
"l  c #AC7B77",
"z  c #B87D79",
"x  c #CA564D",
"c  c #CB564D",
"v  c #CA574D",
"b  c #D2564B",
"n  c #D3554C",
"m  c #D3564C",
"M  c #D4554C",
"N  c #D4564C",
"B  c #DB544A",
"V  c #DB554B",
"C  c #DC554B",
"Z  c #DC564B",
"A  c #C25850",
"S  c #C35850",
"D  c #DC5E55",
"F  c #DC5F55",
"G  c #E45449",
"H  c #E55449",
"J  c #EA5A4F",
"K  c #EB5A4F",
"L  c #F1574B",
"P  c #F2574B",
"I  c #F1574C",
"U  c #E35C52",
"Y  c #E45C52",
"T  c #C7665F",
"R  c #CE635B",
"E  c #CF635B",
"W  c #D56158",
"Q  c #D66158",
"!  c #C06962",
"~  c #B38B88",
"^  c #B48B88",
"/  c #B79896",
"(  c #B79996",
")  c #B79997",
"_  c #BAA5A3",
"`  c #BAA5A4",
"'  c #B6AAA9",
"]  c #B5ABAA",
"[  c #B2AEAE",
"{  c #B2AFAE",
"}  c #B2AFAF",
"|  c #C48884",
" . c #CF9D9A",
".. c #FD9C95",
"X. c #D3A19E",
"o. c #FDA59F",
"O. c #FDA69F",
"+. c #D5AEAA",
"@. c #D8B0AB",
"#. c #DABDB9",
"$. c #DCBEBA",
"%. c #FDAFA9",
"&. c #FDB8B3",
"*. c #FDB9B3",
"=. c #FBC1BC",
"-. c #FDC1BD",
";. c #FDC2BD",
":. c #DECBC6",
">. c #DFCBC6",
",. c #DDD3CF",
"<. c #DBDAD6",
"1. c #FCCAC7",
"2. c #FCCBC7",
"3. c #FCD4D1",
"4. c #FFD7D4",
"5. c None",
/* pixels */
"- <.{ { { { { { { { { { { { { { { { { { { <.- ",
"- ,.' ' ' ' ' ' ' ' ' ' ] ] ] ' ] ] ] ' ] ,.- ",
"; >._ _ _ _ _ _ _ _ _ _ _ _ ` _ _ _ _ _ _ :.; ",
"& $./ / / / / p % % p / p % % p / / / / / #.= ",
"& @.^ ^ ~ ^ ~ # 3.3.# i # 4.3.# ~ ~ ~ ~ ~ +.= ",
"O X.j j j j j @ 1.1.1.@ 2.2.2.@ j j j j j  .+ ",
"O | a a s a a 5 . ;.;.;.;.=.. 5 a a a a a z + ",
"  f y y a r y y 6 : *.*.*.: 6 y y y y y a f   ",
"  d t t t t t 4 , %.%.%.%.%., 4 t t t t t d   ",
"  d 0 0 q q q 1 o.o.o.1 o.o.o.1 q q 0 0 q d   ",
"  ! w w w w w 2 ....2 8 2 ....2 w w w w w T   ",
"  D S S S S S 9 3 3 9 S 9 3 3 9 w S S S S W o ",
"  D x x v v v v v v v v v v v v v v v v v W o ",
"  D n n M M M M n n n m m m m m m M n n m U   ",
"  Y V V C C C B B B V C C V B C C C C V V U   ",
"  K G G H H H H H H H H H G H H G G G G G J o ",
"  I I I I I I I P I I I I I P P I I I P I o * ",
"o                                       o * 5.",
"5.5.5.5.5.5.5.5.5.5.5.5.5.5.5.5.5.5.5.5.5.5.5.",
"5.5.5.5.5.5.5.5.5.5.5.5.5.5.5.5.5.5.5.5.5.5.5.",
"5.5.5.5.5.5.5.5.5.5.5.5.5.5.5.5.5.5.5.5.5.5.5.",
"5.5.5.5.5.5.5.5.5.5.5.5.5.5.5.5.5.5.5.5.5.5.5.",
"5.5.5.5.5.5.5.5.5.5.5.5.5.5.5.5.5.5.5.5.5.5.5."
};
