/* XPM */
static char *hide_prelight[] = {
/* columns rows colors chars-per-pixel */
"23 23 82 1",
"  c #31393C",
". c #463D41",
"X c #464D50",
"o c gray35",
"O c #595F62",
"+ c #645C60",
"@ c DimGray",
"# c #6A6F72",
"$ c #6C7072",
"% c #938451",
"& c #9D8D53",
"* c #9F905C",
"= c #A69555",
"- c #B19E58",
"; c #B29F59",
": c #AA9E70",
"> c #A89D76",
", c #A99E76",
"< c #AFA16D",
"1 c #BAA660",
"2 c #B0A16D",
"3 c #B5A56C",
"4 c #B6A66C",
"5 c #BCAA6B",
"6 c #BCAB6B",
"7 c #B4A779",
"8 c #BBAC79",
"9 c #C4B06B",
"0 c #C4B16B",
"q c #CBB66A",
"w c #CCB76B",
"e c #D4BD6B",
"r c #D4BD6C",
"t c #D5BE6C",
"y c #C8B677",
"u c #C9B777",
"i c #CFBB76",
"p c #CFBC76",
"a c #C1B178",
"s c #C2B278",
"d c #DFC668",
"f c #DDC46C",
"g c #DDC46D",
"h c #DEC56D",
"j c #D6C175",
"k c #DDC674",
"l c #E6CB6D",
"z c #EACF6B",
"x c #E4CB73",
"c c #E4CC74",
"v c #EBD173",
"b c #F1D672",
"n c #F2D672",
"m c #AEA483",
"M c #AEA583",
"N c #BAAF87",
"B c #B5AD91",
"V c #B5AD92",
"C c #B8B29D",
"Z c #B9B29D",
"A c #BCB7A7",
"S c #B7B4AB",
"D c #B7B5AB",
"F c #B3B2AE",
"G c #B3B2AF",
"H c #BBB7A8",
"J c #C5BA92",
"K c #D0C6A5",
"L c #D4CBA9",
"P c #D6CFB3",
"I c #D8D1B4",
"U c #DBD6BF",
"Y c #FFEDAD",
"T c #FDEDB3",
"R c #FDEDB4",
"E c #DDD7C0",
"W c #DFDCC9",
"Q c #DEDDD0",
"! c #DBDDD6",
"~ c #DCDDD5",
"^ c #E0DDCA",
"/ c None",
/* pixels */
"#~GGGGGGGGGGGGFGGGGGG~#",
"#QDDSSHGSHDDDDDDDDDDDW#",
"$WAHHHHHHHHAAAHAHHHHHW#",
"@UZZZZZZCCCCCCCCZCZZAUO",
"@PBBBBBVBBBBBBBBBBBVBIO",
"oKmmmmmmmmmmmmmmmmmmmLX",
"oN>>>>>>>>>>>>>>>>>>>JX",
" 7:::::::::::::::::::7 ",
" 8<<<2*%%%%%%%%%*2<228 ",
" s4444&RRRRRRTRT&4444a ",
" u5555=YYYYYYYYY=5555y ",
".i90001---------19999p ",
".jwqqqqqwwqwqwqqwwwwwj ",
" krrttertrrrrrrrrrrrtk ",
" xgggggghhggghhhghghgx ",
".dvllllllllllllllllllv ",
"+.zbbbbbnnnnnnnnnnnnnn ",
"/+.                   @",
"///////////////////////",
"///////////////////////",
"///////////////////////",
"///////////////////////",
"///////////////////////"
};
