/* XPM */
static char * bottom_left_active_xpm[] = {
"24 24 5 1",
" 	c None",
".	c #000000",
"+	c #6674CC",
"@	c #4956A9",
"#	c #7D89D4",
".+@@@@@                 ",
".#####@                 ",
".#++++@                 ",
".#++++@                 ",
".#++++@                 ",
".#++++@                 ",
".#++++@                 ",
".#++++@                 ",
".#++++@                 ",
".#++++@                 ",
".#++++@                 ",
".#++++@                 ",
".#++++@                 ",
".#++++@                 ",
".#++++@                 ",
".#++++@                 ",
".#++++@                 ",
".#+++++@@@@@@@@@@@@@@@@@",
".#++++++###############+",
" .#++++++++++++++++++++@",
" .#++++++++++++++++++++@",
"  .@@++++++++++++++++++@",
"   ..@@@@@@@@@@@@@@@@@@@",
"     ..................."};
