/* XPM */
static char * close_active_xpm[] = {
"26 24 57 1",
" 	c None",
".	c #393E5F",
"+	c #EFEEED",
"@	c #000000",
"#	c #D3D1CF",
"$	c #D4D2D0",
"%	c #D5D3D1",
"&	c #D5D4D2",
"*	c #D6D4D2",
"=	c #D7D5D3",
"-	c #D8D6D4",
";	c #D8D7D5",
">	c #D9D8D6",
",	c #DAD8D7",
"'	c #DBD9D7",
")	c #DBDAD8",
"!	c #DCDBD9",
"~	c #DDDCDA",
"{	c #DEDCDB",
"]	c #DFDDDC",
"^	c #DFDEDC",
"/	c #E0DFDD",
"(	c #E1E0DE",
"_	c #E2E0DF",
":	c #E2E1E0",
"<	c #E3E2E1",
"[	c #E4E3E1",
"}	c #E5E4E2",
"|	c #E5E5E3",
"1	c #E6E5E4",
"2	c #A5A6B0",
"3	c #A7A9B2",
"4	c #E7E6E5",
"5	c #3B4061",
"6	c #A6A7B1",
"7	c #E8E7E6",
"8	c #A7A8B2",
"9	c #E8E8E6",
"0	c #3A3F60",
"a	c #AAACB6",
"b	c #E9E9E7",
"c	c #EAE9E8",
"d	c #EBEAE9",
"e	c #ABACB6",
"f	c #ECEBEA",
"g	c #ACADB8",
"h	c #ECECEB",
"i	c #ADAFB8",
"j	c #EDEDEB",
"k	c #EEEDEC",
"l	c #EFEFEE",
"m	c #F0F0EF",
"n	c #F1F1F0",
"o	c #F2F1F0",
"p	c #F2F2F1",
"q	c #F3F3F2",
"r	c #F4F4F3",
".++++++++++++++++++++@@   ",
".+#$%&*=-;>,')!~{]^/(++@  ",
".+$%&*=-;>,')!~{]^/(_:<+@ ",
".+%&*=-;>,')!~{]^/(_:<[+@ ",
".+&*=-;>,')!~{]^/(_:<[}|+@",
".+*=-;>,')!~{]^/(_:<[}|1+@",
".+=-;>,'..2{]^/3..<[}|14+@",
".+-;>,'...56^/35...}|147+@",
".+;>,')....5835....|1479+@",
".+>,')!25...00...5a1479b+@",
".+,')!~{65......5a1479bc+@",
".+')!~{]^80....0a1479bcd+@",
".+)!~{]^/30....0e479bcdf+@",
".+!~{]^/35......5g9bcdfh+@",
".+~{]^/35...00...5icdfhj+@",
".+{]^/(....5ae5....dfhjk+@",
".+]^/(_...5a14g5...fhjk++@",
".+^/(_:<..a1479i..fhjk+l+@",
".+/(_:<[}|1479bcdfhjk+lm+@",
".+(_:<[}|1479bcdfhjk+lmn+@",
".+_:<[}|1479bcdfhjk+lmno+@",
".+:<[}|1479bcdfhjk+lmnop+@",
".+<[}|1479bcdfhjk+lmnopq+@",
".+[}|1479bcdfhjk+lmnopqr+@"};
