/* XPM */
static char * maximize_inactive_xpm[] = {
"26 24 24 1",
" 	c None",
".	c #EFEEED",
"+	c #D5D3D1",
"@	c #D4D2D0",
"#	c #D3D1CF",
"$	c #D3D1CE",
"%	c #B4B3B1",
"&	c #666666",
"*	c #D2D0CE",
"=	c #D2D0CD",
"-	c #D1CFCD",
";	c #D1CFCC",
">	c #D0CECC",
",	c #D0CECB",
"'	c #CFCDCA",
")	c #CECCCA",
"!	c #CECCC9",
"~	c #CDCBC9",
"{	c #CDCBC8",
"]	c #B0AEAC",
"^	c #CCCAC8",
"/	c #CCCAC7",
"(	c #CBC9C6",
"_	c #CAC8C5",
"..........................",
"++++++++++++++++++++++++++",
"++++++++++++++++++++++++++",
"@@@@@@@@@@@@@@@@@@@@@@@@@@",
"@@@@@@@@@@@@@@@@@@@@@@@@@@",
"##########################",
"$$$$$$$%&&&&&&&&&&%$$$$$$$",
"*******&&&&&&&&&&&&*******",
"=======&&&&&&&&&&&&=======",
"-------&&&&&&&&&&&&-------",
";;;;;;;&;;;;;;;;;;&;;;;;;;",
">>>>>>>&>>>>>>>>>>&>>>>>>>",
",,,,,,,&,,,,,,,,,,&,,,,,,,",
"'''''''&''''''''''&'''''''",
")))))))&))))))))))&)))))))",
"!!!!!!!&!!!!!!!!!!&!!!!!!!",
"~~~~~~~&~~~~~~~~~~&~~~~~~~",
"{{{{{{{]&&&&&&&&&&]{{{{{{{",
"^^^^^^^^^^^^^^^^^^^^^^^^^^",
"//////////////////////////",
"((((((((((((((((((((((((((",
"((((((((((((((((((((((((((",
"__________________________",
"__________________________"};
