/* XPM */
static char * shade_inactive_xpm[] = {
"26 24 30 1",
" 	c None",
".	c #EFEEED",
"+	c #D5D3D1",
"@	c #D4D2D0",
"#	c #D3D1CF",
"$	c #A19F9E",
"%	c #D3D1CE",
"&	c #A19F9D",
"*	c #666666",
"=	c #D2D0CE",
"-	c #A09F9D",
";	c #D2D0CD",
">	c #D1CFCD",
",	c #9F9E9D",
"'	c #D1CFCC",
")	c #9F9E9C",
"!	c #D0CECC",
"~	c #D0CECB",
"{	c #CFCDCA",
"]	c #9E9D9B",
"^	c #CECCCA",
"/	c #CECCC9",
"(	c #CDCBC9",
"_	c #CDCBC8",
":	c #9D9B99",
"<	c #CCCAC8",
"[	c #9C9B99",
"}	c #CCCAC7",
"|	c #CBC9C6",
"1	c #CAC8C5",
"..........................",
"++++++++++++++++++++++++++",
"++++++++++++++++++++++++++",
"@@@@@@@@@@@@@@@@@@@@@@@@@@",
"@@@@@@@@@@@@@@@@@@@@@@@@@@",
"############$$############",
"%%%%%%%%%%%&**&%%%%%%%%%%%",
"==========-****-==========",
";;;;;;;;;-******-;;;;;;;;;",
">>>>>>>>,********,>>>>>>>>",
"''''''')**********)'''''''",
"!!!!!!!************!!!!!!!",
"~~~~~~~************~~~~~~~",
"{{{{{{{]**]****]**]{{{{{{{",
"^^^^^^^^^^^****^^^^^^^^^^^",
"///////////****///////////",
"(((((((((((****(((((((((((",
"___________:**:___________",
"<<<<<<<<<<<<[[<<<<<<<<<<<<",
"}}}}}}}}}}}}}}}}}}}}}}}}}}",
"||||||||||||||||||||||||||",
"||||||||||||||||||||||||||",
"11111111111111111111111111",
"11111111111111111111111111"};
