/* XPM */
static char * shade_toggled_prelight_xpm[] = {
"26 24 51 1",
" 	c None",
".	c #313447",
"+	c #E8E8E8",
"@	c #CBCBCB",
"#	c #CCCCCC",
"$	c #CDCDCD",
"%	c #CECECE",
"&	c #CFCFCF",
"*	c #D0D0D0",
"=	c #D1D1D1",
"-	c #D2D2D2",
";	c #D3D3D3",
">	c #D4D4D4",
",	c #D5D5D5",
"'	c #D6D6D6",
")	c #D7D7D7",
"!	c #D8D8D8",
"~	c #D9D9D9",
"{	c #DADADA",
"]	c #DBDBDB",
"^	c #DCDCDC",
"/	c #DDDDDD",
"(	c #DEDEDE",
"_	c #DFDFDF",
":	c #E0E0E0",
"<	c #B8BBCE",
"[	c #B8BCCE",
"}	c #E1E1E1",
"|	c #7983BC",
"1	c #BABDD0",
"2	c #E2E2E2",
"3	c #E3E3E3",
"4	c #E4E4E4",
"5	c #E5E5E5",
"6	c #BCC0D2",
"7	c #BEC2D4",
"8	c #E6E6E6",
"9	c #E7E7E7",
"0	c #C0C4D6",
"a	c #BBBED1",
"b	c #E9E9E9",
"c	c #EAEAEA",
"d	c #BDC0D3",
"e	c #EBEBEB",
"f	c #ECECEC",
"g	c #C0C3D6",
"h	c #EDEDED",
"i	c #EEEEEE",
"j	c #EFEFEF",
"k	c #F0F0F0",
"l	c #F1F1F1",
".++++++++++++++++++++++++.",
".+@#$%&**=-;>,'))!~{]^/((.",
".+#$%&**=-;>,'))!~{]^/(((.",
".+$%&**=-;>,'))!~{]^/((__.",
".+%&**=-;>,'))!~{]^/((_::.",
".+&**=-;>,')<[~{]^/((_:}}.",
".+**=-;>,')<||1]^/((_:}22.",
".+*=-;>,'))||||^/((_:}233.",
".+=-;>,'))!||||/((_:}2344.",
".+-;>,'))!~||||((_:}23455.",
".+;>,')<||1||||6||7234555.",
".+>,'))||||||||||||345588.",
".+,'))!||||||||||||455899.",
".+'))!~1||||||||||05589++.",
".+))!~{]a||||||||05589+bb.",
".+)!~{]^/6||||||05589+bcc.",
".+!~{]^/((d||||05589+bcee.",
".+~{]^/((_:7||05589+bceff.",
".+{]^/((_:}2g05589+bcefff.",
".+]^/((_:}2345589+bceffhh.",
".+^/((_:}2345589+bceffhii.",
".+/((_:}2345589+bceffhijj.",
".+((_:}2345589+bceffhijkk.",
".+(_:}2345589+bceffhijkll."};
